<svg xmlns="http://www.w3.org/2000/svg" width="400" height="150" viewBox="0 150 500 200">
    <defs>
        <style>.cls-1{fill:#0072C9;}</style>
    </defs>
    <path class="cls-1"
          d="M96.15,213.5a25.84,25.84,0,0,0-25.82,25.81c0,17.67,23.11,43.6,24.09,44.7a2.32,2.32,0,0,0,3.46,0c1-1.1,24.09-27,24.09-44.7A25.85,25.85,0,0,0,96.15,213.5Zm0,65.39C88.37,269.66,75,251.44,75,239.31a21.17,21.17,0,0,1,42.34,0C117.32,251.44,103.93,269.66,96.15,278.89Z"/>
    <path class="cls-1"
          d="M117.31,213.5A25.84,25.84,0,0,0,91.5,239.31c0,17.67,23.1,43.6,24.08,44.7a2.32,2.32,0,0,0,3.46,0c1-1.1,24.09-27,24.09-44.7A25.84,25.84,0,0,0,117.31,213.5Zm0,65.39c-7.77-9.23-21.17-27.45-21.17-39.58a21.17,21.17,0,0,1,42.34,0C138.48,251.44,125.09,269.66,117.31,278.89Z"/>
    <path class="cls-1"
          d="M183.79,265.21a2.24,2.24,0,0,1-2.22,2.17H164.34a2.32,2.32,0,0,1-2.55-2.55V232.88a2.42,2.42,0,0,1,4.83,0V263h14.95A2.25,2.25,0,0,1,183.79,265.21Z"/>
    <path class="cls-1"
          d="M198.91,240.09c-7.76,0-13.18,5.73-13.18,13.95s5.54,14,13.18,14,13.18-5.89,13.18-14S206.67,240.09,198.91,240.09Zm0,24c-4.15,0-8.63-3.15-8.63-10s4.48-10,8.63-10,8.57,3.12,8.57,10C207.48,258.87,204.8,264.08,198.91,264.08Z"/>
    <path class="cls-1"
          d="M240.3,265.38a2.17,2.17,0,0,1-2.17,2.22,2.14,2.14,0,0,1-1.7-.71l-9.55-11.22-4.3,4v5.77a2.2,2.2,0,0,1-4.4,0V232.66a2.2,2.2,0,0,1,4.4,0V254.6l14-13.54a1.86,1.86,0,0,1,1.42-.54,2,2,0,0,1,2,2.06,2.16,2.16,0,0,1-.59,1.42L230.05,253l9.72,11A2.38,2.38,0,0,1,240.3,265.38Z"/>
    <path class="cls-1"
          d="M256.37,239.7a13.91,13.91,0,0,0-9.71,3.51,2,2,0,0,0-.78,1.51,1.87,1.87,0,0,0,1.87,1.87,2.38,2.38,0,0,0,1.21-.37,9.7,9.7,0,0,1,6.86-2.61c4,0,6.58,2.15,6.58,5.48v3.58c-2.49-1.88-5-2.58-8.68-2.58a10.31,10.31,0,0,0-6.47,2.19,8.4,8.4,0,0,0-3,6.76c0,5.84,4.89,9,9.5,9,3.58,0,5.36-.34,8.68-2.63v0a2.23,2.23,0,0,0,4.46,0V248.87C266.86,243,263,239.7,256.37,239.7Zm-1.16,25c-3.78,0-6.42-2.32-6.42-5.65s2.64-5.7,6.42-5.7a8.81,8.81,0,0,1,7.19,3.21v4.93A8.81,8.81,0,0,1,255.21,264.74Z"/>
    <path class="cls-1" d="M278.82,232.66v32.77a2.2,2.2,0,0,1-4.4,0V232.66a2.2,2.2,0,0,1,4.4,0Z"/>
    <path class="cls-1"
          d="M308.66,248.64v16.79a2.2,2.2,0,0,1-4.4,0V249.89c0-4-1.78-5.84-5.79-5.84a10.14,10.14,0,0,0-7.64,4v17.4a2.2,2.2,0,0,1-4.4,0V232.66a2.2,2.2,0,0,1,4.4,0v11.65a13.33,13.33,0,0,1,9.28-4.22C305.78,240.09,308.66,243,308.66,248.64Z"/>
    <path class="cls-1"
          d="M340.42,253.32A13.72,13.72,0,0,0,337,244.1a12.26,12.26,0,0,0-9.42-4c-7.49,0-13.13,6-13.13,13.95,0,8.24,5.57,14,13.56,14a15.14,15.14,0,0,0,9.47-3.14,1.86,1.86,0,0,0,.77-1.49,1.8,1.8,0,0,0-1.84-1.79,1.93,1.93,0,0,0-1,.26,11.2,11.2,0,0,1-7,2.47,9.15,9.15,0,0,1-9.32-8.8h18.76C339.47,255.55,340.42,254.72,340.42,253.32Zm-21.31-1.07c.3-4.24,3.27-8.48,8.45-8.48,6.07,0,8.4,5,8.52,8.48Z"/>
    <path class="cls-1" d="M351.11,232.66v32.77a2.2,2.2,0,0,1-4.4,0V232.66a2.2,2.2,0,0,1,4.4,0Z"/>
    <path class="cls-1"
          d="M372.14,232.28a1.68,1.68,0,0,1-1.79,1.79,4.21,4.21,0,0,1-.62-.09,4,4,0,0,0-1-.13c-2.58,0-4,1.79-4,5v1.87h3.61a1.95,1.95,0,1,1,0,3.9h-3.61v20.79a2.2,2.2,0,0,1-4.4,0V244.64h-2.63a2,2,0,1,1,0-3.9h2.63v-1.87c0-5.37,3-8.71,7.79-8.71a9.66,9.66,0,0,1,2.6.34A1.84,1.84,0,0,1,372.14,232.28Z"/>
    <path class="cls-1"
          d="M397.78,253.32a13.72,13.72,0,0,0-3.38-9.22,12.26,12.26,0,0,0-9.42-4c-7.49,0-13.13,6-13.13,13.95,0,8.24,5.57,14,13.56,14a15.19,15.19,0,0,0,9.48-3.14,1.88,1.88,0,0,0,.76-1.49,1.8,1.8,0,0,0-1.84-1.79,1.93,1.93,0,0,0-1,.26,11.2,11.2,0,0,1-7,2.47,9.15,9.15,0,0,1-9.32-8.8h18.76C396.83,255.55,397.78,254.72,397.78,253.32Zm-21.31-1.07c.3-4.24,3.27-8.48,8.45-8.48,6.07,0,8.4,5,8.52,8.48Z"/>
    <path class="cls-1"
          d="M417,242.42c0,1.13-.95,2-2.37,2.17a9.5,9.5,0,0,0-6.68,4v16.81a2.2,2.2,0,0,1-4.39,0V242.69a2.2,2.2,0,0,1,4.39,0v2a11.52,11.52,0,0,1,5.7-4.12l.11,0a4,4,0,0,1,1.23-.25A2,2,0,0,1,417,242.42Z"/>
</svg>
