<svg xmlns="http://www.w3.org/2000/svg" xmlns:xlink="http://www.w3.org/1999/xlink" width="640" height="431" viewBox="0 0 640 431"><rect width="100%" height="100%" fill="#DDDDDD"/><path d="M164.51 184.05L145.85 206.89L143.67 209.58Q145.50 208.67 147.61 208.17Q149.72 207.67 152.16 207.67L152.16 207.67Q155.72 207.67 159.09 208.84Q162.46 210.02 165.03 212.39Q167.60 214.76 169.16 218.28Q170.73 221.81 170.73 226.51L170.73 226.51Q170.73 230.90 169.12 234.75Q167.51 238.60 164.60 241.47Q161.68 244.34 157.57 245.99Q153.46 247.65 148.50 247.65L148.50 247.65Q143.46 247.65 139.45 246.04Q135.45 244.43 132.62 241.53Q129.80 238.64 128.30 234.57Q126.79 230.51 126.79 225.55L126.79 225.55Q126.79 221.11 128.60 216.44Q130.41 211.76 134.19 206.71L134.19 206.71L149.20 186.57Q149.98 185.53 151.48 184.79Q152.98 184.05 154.94 184.05L154.94 184.05L164.51 184.05ZM148.28 238.86L148.28 238.86Q150.85 238.86 153.00 237.99Q155.16 237.12 156.70 235.55Q158.25 233.99 159.12 231.88Q159.99 229.77 159.99 227.29L159.99 227.29Q159.99 224.59 159.16 222.44Q158.33 220.28 156.81 218.78Q155.29 217.28 153.16 216.50Q151.02 215.72 148.46 215.72L148.46 215.72Q145.89 215.72 143.80 216.59Q141.72 217.46 140.24 219.00Q138.76 220.55 137.93 222.66Q137.10 224.77 137.10 227.20L137.10 227.20Q137.10 229.81 137.82 231.96Q138.54 234.12 139.95 235.64Q141.37 237.16 143.46 238.01Q145.54 238.86 148.28 238.86ZM185.43 223.24L204.57 223.24L204.57 202.67Q204.57 199.75 204.96 196.23L204.96 196.23L185.43 223.24ZM213.93 223.24L221.84 223.24L221.84 229.46Q221.84 230.33 221.28 230.96Q220.71 231.59 219.67 231.59L219.67 231.59L213.93 231.59L213.93 246.95L204.57 246.95L204.57 231.59L178.04 231.59Q176.95 231.59 176.12 230.92Q175.30 230.25 175.08 229.25L175.08 229.25L173.95 223.81L203.75 184.01L213.93 184.01L213.93 223.24ZM272.35 215.50L272.35 215.50Q272.35 223.72 270.58 229.79Q268.82 235.86 265.71 239.82Q262.60 243.78 258.36 245.71Q254.12 247.65 249.20 247.65L249.20 247.65Q244.29 247.65 240.09 245.71Q235.89 243.78 232.80 239.82Q229.72 235.86 227.98 229.79Q226.24 223.72 226.24 215.50L226.24 215.50Q226.24 207.24 227.98 201.19Q229.72 195.14 232.80 191.18Q235.89 187.22 240.09 185.29Q244.29 183.35 249.20 183.35L249.20 183.35Q254.12 183.35 258.36 185.29Q262.60 187.22 265.71 191.18Q268.82 195.14 270.58 201.19Q272.35 207.24 272.35 215.50ZM261.25 215.50L261.25 215.50Q261.25 208.67 260.25 204.19Q259.25 199.71 257.58 197.06Q255.90 194.40 253.73 193.34Q251.55 192.27 249.20 192.27L249.20 192.27Q246.90 192.27 244.75 193.34Q242.59 194.40 240.94 197.06Q239.29 199.71 238.31 204.19Q237.33 208.67 237.33 215.50L237.33 215.50Q237.33 222.33 238.31 226.81Q239.29 231.29 240.94 233.94Q242.59 236.60 244.75 237.66Q246.90 238.73 249.20 238.73L249.20 238.73Q251.55 238.73 253.73 237.66Q255.90 236.60 257.58 233.94Q259.25 231.29 260.25 226.81Q261.25 222.33 261.25 215.50ZM341.42 232.55L335.73 238.16L320.98 223.42L306.10 238.25L300.40 232.64L315.28 217.72L301.10 203.54L306.75 197.88L320.94 212.06L335.03 197.97L340.77 203.62L326.63 217.76L341.42 232.55ZM379.09 223.24L398.23 223.24L398.23 202.67Q398.23 199.75 398.63 196.23L398.63 196.23L379.09 223.24ZM407.59 223.24L415.50 223.24L415.50 229.46Q415.50 230.33 414.94 230.96Q414.37 231.59 413.33 231.59L413.33 231.59L407.59 231.59L407.59 246.95L398.23 246.95L398.23 231.59L371.70 231.59Q370.61 231.59 369.79 230.92Q368.96 230.25 368.74 229.25L368.74 229.25L367.61 223.81L397.41 184.01L407.59 184.01L407.59 223.24ZM428.08 202.58L422.42 201.58Q423.07 197.06 424.94 193.64Q426.81 190.23 429.62 187.94Q432.43 185.66 436.06 184.51Q439.69 183.35 443.87 183.35L443.87 183.35Q448.22 183.35 451.72 184.59Q455.22 185.83 457.70 188.03Q460.18 190.23 461.51 193.18Q462.83 196.14 462.83 199.58L462.83 199.58Q462.83 202.58 462.16 204.86Q461.48 207.15 460.22 208.84Q458.96 210.54 457.09 211.72Q455.22 212.89 452.87 213.67L452.87 213.67Q458.53 215.46 461.31 219.11Q464.09 222.76 464.09 228.29L464.09 228.29Q464.09 232.99 462.35 236.60Q460.61 240.21 457.66 242.67Q454.70 245.12 450.80 246.39Q446.91 247.65 442.56 247.65L442.56 247.65Q437.82 247.65 434.30 246.56Q430.77 245.47 428.16 243.34Q425.55 241.21 423.73 238.12Q421.90 235.03 420.59 230.99L420.59 230.99L425.34 229.03Q427.21 228.25 428.84 228.62Q430.47 228.99 431.21 230.38L431.21 230.38Q431.99 231.90 432.93 233.38Q433.86 234.86 435.17 236.01Q436.47 237.16 438.23 237.88Q439.99 238.60 442.43 238.60L442.43 238.60Q445.17 238.60 447.22 237.71Q449.26 236.81 450.63 235.38Q452.00 233.94 452.68 232.18Q453.35 230.42 453.35 228.64L453.35 228.64Q453.35 226.38 452.87 224.53Q452.39 222.68 450.87 221.37Q449.35 220.07 446.50 219.33Q443.65 218.59 438.86 218.59L438.86 218.59L438.86 210.93Q442.82 210.89 445.43 210.19Q448.04 209.50 449.59 208.26Q451.13 207.02 451.74 205.28Q452.35 203.54 452.35 201.45L452.35 201.45Q452.35 197.01 449.87 194.71Q447.39 192.40 443.26 192.40L443.26 192.40Q441.34 192.40 439.73 192.95Q438.12 193.49 436.84 194.47Q435.56 195.45 434.69 196.75Q433.82 198.06 433.38 199.62L433.38 199.62Q432.64 201.62 431.45 202.28Q430.25 202.93 428.08 202.58L428.08 202.58ZM501.90 238.90L513.21 238.90L513.21 246.95L478.41 246.95L478.41 238.90L491.15 238.90L491.15 202.23Q491.15 200.06 491.28 197.75L491.28 197.75L482.23 205.32Q481.45 205.93 480.69 206.08Q479.93 206.23 479.25 206.10Q478.58 205.97 478.06 205.65Q477.54 205.32 477.27 204.93L477.27 204.93L473.88 200.28L493.06 183.96L501.90 183.96L501.90 238.90Z" fill="#999999"/></svg>