<svg viewBox="0 0 273 152" xmlns="http://www.w3.org/2000/svg">
  <g fill="#F4F4F4" fill-rule="evenodd">
    <path d="M180 83.3V59.31L187.35 37l7.64 22.31L203.06 37l6.92 22.31V83.3zM65.65 30.18h-.8l-1.6 13.5h-1.24v3.03h-2.38v2.39H56l3.73 5.78h3.53L62 82.8H69.3l-1.25-27.92h3.53l3.73-5.78h-3.63V46.7H69.3v-3.03h-1.25l-1.6-13.5h-.8zM144 81.93v-6.78l4.25-6.15 4.26 6.15v6.78zM75.68 81.93V74.1L80.6 67l4.91 7.1v7.83zM155 82.64v-5.58l3.5-5.06 3.5 5.06v5.58z"/>
    <path d="M104.09 75.84a3 3 0 0 0-1.16.25l-.49-1v-1.58a.23.23 0 0 0-.14-.2l-1.15-.46c-.12-.04-.23.02-.28.14-.04.12.02.24.13.28l1.03.4v1.27H97.8v-.43h.52c.12 0 .22-.1.22-.23 0-.12-.1-.23-.22-.23h-1.34c-.12 0-.22.11-.22.23 0 .12.1.23.22.23h.39v.61l-.42.95a2.67 2.67 0 0 0-1.04-.21A2.98 2.98 0 0 0 93 78.9c0 1.68 1.3 3.04 2.91 3.04a2.98 2.98 0 0 0 2.9-2.82h.94a.2.2 0 0 0 .17-.09l2.26-3.41.36.7a3 3 0 0 0-1.36 2.56c0 1.67 1.3 3.04 2.9 3.04a2.97 2.97 0 0 0 2.92-3.04c0-1.68-1.3-3.04-2.91-3.04zm-8.18 5.63a2.54 2.54 0 0 1-2.48-2.59 2.54 2.54 0 0 1 2.48-2.58c.3 0 .6.06.85.16l-1.05 2.33v.02l-.01.07v.02l.01.07V79l.02.03.02.03v.01l.06.05h.02l.07.01h2.46a2.5 2.5 0 0 1-2.45 2.35zm.33-2.81l.91-2c.68.4 1.16 1.14 1.23 2h-2.14zm3.4 0h-.84a3.07 3.07 0 0 0-1.47-2.42l.38-.86h4.09l-2.17 3.28zm4.43 2.81a2.54 2.54 0 0 1-2.48-2.59c0-.91.46-1.71 1.16-2.18l1.14 2.29c.04.07.11.12.18.12l.1-.03c.1-.06.15-.2.1-.3l-1.15-2.29c.3-.12.62-.2.95-.2a2.54 2.54 0 0 1 2.48 2.6 2.54 2.54 0 0 1-2.48 2.58z" fill-rule="nonzero"/>
    <path d="M131 82V53h10v29z"/>
    <path d="M131 54V37h5v17z"/>
    <g fill-rule="nonzero">
      <path d="M117 77v5h1v-5z"/>
      <path d="M121.39 72.96a3.61 3.61 0 0 0-6.2-3.56 3.48 3.48 0 0 0-3.19 3.5c0 .95.38 1.85 1.05 2.5a2.74 2.74 0 0 0 4.6 1.87 2.91 2.91 0 0 0 3.74-4.31z"/>
    </g>
    <g fill-rule="nonzero">
      <path d="M50 78v5h1v-5z"/>
      <path d="M53.48 74.5c.15-.39.22-.8.22-1.21a3.16 3.16 0 0 0-3.08-3.22c-.3 0-.6.04-.88.13-.61.2-2.62-.54-3.01 0-1.52.12-1.73 1.73-1.73 3.38 0 .85.8 2.52 1.36 3.1A2.39 2.39 0 0 0 48.7 79a2.25 2.25 0 0 0 1.59-.65c.37.22.8.34 1.23.34a2.55 2.55 0 0 0 2.48-2.6 2.7 2.7 0 0 0-.52-1.6z"/>
    </g>
    <g fill-rule="nonzero">
      <path d="M171 77v5h-1v-5z"/>
      <path d="M166.61 72.96a3.61 3.61 0 0 1 6.2-3.56 3.48 3.48 0 0 1 3.19 3.5c0 .95-.38 1.85-1.05 2.5a2.74 2.74 0 0 1-4.6 1.87 2.91 2.91 0 0 1-3.74-4.31z"/>
    </g>
    <g fill-rule="nonzero">
      <path d="M219 77v5h-1v-5z"/>
      <path d="M214.61 72.96c-.17-.43-.12-.91-.26-1.35-1-3.1 2.02-4.17 4-4.17a3.63 3.63 0 0 1 2.86 1.4c4.77-.44 3.28 2.27 3.28 4.12 0 .95-1.21 1.12-1.88 1.78-.08 1.44-.32 4.45-2.4 3.26-.16-.1-.37-.02-.56-.06a2.72 2.72 0 0 1-1.3-.67 2.91 2.91 0 0 1-3.74-4.31z"/>
    </g>
    <path fill-rule="nonzero" d="M43 86v-4.5h182V86z"/>
    <path d="M215.18 93.98l9.82-7.95L43 86l2.23 9.77 19.99 7.72 2.86 13 20.55 4.96 1.38 8.52 30.8 1.84 1.78 15.3 5.29 4.89 12.32-1.84 1.42-8.15 19.7.87 1.25-15.4 22.17-6 1.24-11.99c1.9-1.84 11.58 1.11 13.27-.6-2.18-7.1 12.94-8.32 12.94-8.32l3-6.6z"/>
    <g fill-rule="nonzero">
      <path d="M20.8 33.8c-.29 0-.58.02-.86.08v-.04A6.91 6.91 0 0 0 12.96 27c-3.26 0-6 2.18-6.76 5.14A5.05 5.05 0 0 0 0 37.02 5.04 5.04 0 0 0 5.1 42h15.7c2.32 0 4.2-1.84 4.2-4.1 0-2.27-1.88-4.1-4.2-4.1zM138.31 13.89c-.26 0-.52.02-.76.07v-.04A6.04 6.04 0 0 0 131.4 8a6.1 6.1 0 0 0-5.95 4.45c-.3-.06-.63-.1-.96-.1a4.4 4.4 0 0 0-4.49 4.33c0 2.38 2 4.32 4.49 4.32h13.82c2.04 0 3.69-1.6 3.69-3.56a3.62 3.62 0 0 0-3.69-3.55z"/>
    </g>
    <g fill-rule="nonzero">
      <path d="M219.73 9.43h.02a9 9 0 0 1 17.84-1.08h.3a7.28 7.28 0 0 1 6.97 5.16l.43-.02a4.7 4.7 0 0 1 0 9.4h-25.56a6.73 6.73 0 0 1 0-13.46z"/>
    </g>
    <g fill-rule="nonzero">
      <path d="M96.58 36.46c-.3.16-.64.37-.64.37-.35.18-.65.45-.94.72-.26.24-.54.5-.76.78-.04.05-.18.14-.18.23h-.04c-.04 0-.14.02-.14-.05a14.95 14.95 0 0 0-.24-2.09c-.1-.48-.42-.86-.73-1.21-.16-.19-.19-.15-.17-.06.03.15.07.39-.05.33-.12-.05-.34-.27-.56-.4-.23-.12-.3.05-.4-.06-.1-.1-.22.2-.2.37 0 .17-.15.3-.12.47.03.17-.08.26-.04.44.05.2-.07.4-.1.6l-.06.51c-.03.18-.03.5.03.75l.05.12c.14.22.19.41.29.6.1.2.2.25.26.39.06.13.13.13.2.24.08.12.1.18-.08.37l-.47.48a12.6 12.6 0 0 1-2.04 1.26c-.56.25-.5.32-.33.32.26 0 .5.1.64.07.15-.02.3 0 .37.02.08.02.13.1.2.17.08.06.17.07.23.1.06.04.17.15.3.14.12-.01.26-.28.38-.52.34-.72.67-.81.67-.81.93-.28 1.4-.57 1.4-.57.4-.26.65-.53.82-.75.15-.2.33-.5.46-.46.1.03.22.1.22.1l.04-.3c0-.1-.02-.18-.04-.26l.1-.07c.05-.05.1-.11.12-.17l.23-.37c.06-.11.18-.2.29-.24.14-.05.15-.14.15-.14s.2-.08.23-.12c.03-.06-.08-.2.02-.2a.8.8 0 0 0 .3-.1c.04-.01.09-.05.09-.1l-.04-.07c-.01-.05.09-.08.12-.13l.2-.25c.1-.1.15-.26.2-.33l.1-.12.08-.1c.03-.04-.2-.02-.42.1zM42.89 6.55c.52-.87.7-1.53.7-1.53a.86.86 0 0 1 .12-.27c.09-.14.41-.24.62-.35 1.03-.56 1.02-1.62 1.02-1.62 0-.47.2-.74.4-.89.2-.14.31-.2.21-.23s-.2-.15-.3-.23c-.1-.1-.2-.1-.2-.1-.23-.02-.65.28-.87.46-.1-.16-.34-.33-.49-.46-.22-.2-.5-.5-.64-.86-.09-.22-.15-.53-.21-.46a.5.5 0 0 0-.07.14s-.04.1-.04.22-.18.04-.22.2c-.04.16-.15.25-.08.39.06.14-.1.17-.05.33.02.1.06.16.05.22l-.14-.02c-.43.04-.78-.03-1.03-.1-.23-.08-.8-.3-.64-.12l.06.06c.17.16.1.39.32.5.22.1 0 .29.2.4.21.1.05.23.28.3.22.08.12.28.32.33.2.04.05.15.2.27.16.12.12.22.3.25.18.02.06.12.24.16.18.04.16.07.22.23.07.15.16.06.08.24-.07.18-.15.52-.34.67-.27.23-.73.46-1.06.62-.22.1-.62.24-.56.4.05.16.07.33.21.42.15.09.21.18.34.27.13.1.24.18.4.22.15.04.27.08.43.11.12.02.22-.17.22-.17z"/>
    </g>
    <path d="M182.7 5.58a.79.79 0 0 1-.22-.03l-.12-.04a.4.4 0 0 0-.3.06c-.09.05-.15.19-.2.26l-.12.1c-.49.36-.88-.22-.88-.22l-.16-.25-.1-.19a1.3 1.3 0 0 1-.18-.77c.01-.13.04-.25.03-.38a1.44 1.44 0 0 0-.13-.42l-.17-.34a3.39 3.39 0 0 0-.22-.36c-.15-.2-.26-.67-.26-.67a.76.76 0 0 0-.05-.14c-.03-.07-.17-.07-.2.03l-.01.09c-.02.1-.1.22-.12.31a.64.64 0 0 0 0 .2c0 .1-.06.2-.1.3-.06.1-.04.24-.02.35.02.1.02.24.01.34 0 .12.02.25.06.34.03.1.04.24.04.34 0 .24.11.46.2.6.05.09 0 .15-.04.24-.03.1.04.22.1.32.06.08.06.08-.03.04l-.32-.1-.52-.18a2.7 2.7 0 0 1-.76-.4c-.07-.07-.79-.7-.88-.55-.1.16.05.35.17.46.07.07.03.17.07.25.04.07.13.15.22.21.07.06.1.18.17.26l.22.16c.08.05.12.18.18.26.08.1.26.2.39.25.09.04.15.1.14.14 0 .05.08.13.17.17.14.05.36.1.51.12.1.02.13.1.18.18.03.07.1.12.1.12.21.14.69.14.94.12.1 0 .13.05.07.13l-.7.74-.32.36c-.07.08-.16.17-.2.25a.72.72 0 0 0-.06.11.56.56 0 0 0-.03.21c0 .06.1.03.14.03.03 0-.04.08-.04.13s.04.08.04.08l.1.02c.07 0 .1 0 .1.03 0 .01 0 .03.02.04.03 0 .05 0 .08-.02.04-.02.08-.01.12-.02.04 0 .1-.04.14-.05.04-.02.07 0 .1.04.02.03.13.06.2 0 .05-.06.1-.2.12-.3l.09-.23c.08-.22.18-.43.22-.65.02-.1.1-.2.2-.2l.21-.05c.15-.03.3-.07.42-.15.28-.17.57-.44.76-.7.1-.14.26-.39.23-.57a1.95 1.95 0 0 1-.03-.29c0-.1.05-.25.12-.31l.03-.03c.07-.06.18-.11.2-.15.02-.04-.08-.03-.13-.03z" fill-rule="nonzero"/>
    <g fill-rule="nonzero">
      <path d="M270.74 53h-.06l-2.47-.7c-.12-.03-.2-.16-.21-.3 0-.15.07-.28.18-.33a6.7 6.7 0 0 0 2.38-1.58c.07-.1.19-.11.28-.06.1.05.16.17.16.3v2.34c0 .1-.04.2-.1.26a.23.23 0 0 1-.16.07zm-1.57-1.1l1.3.36v-1.25c-.35.31-.79.6-1.3.88zM272.85 47.3l-1.3-.78V42.3a.3.3 0 0 0-.3-.3h-1.72a.3.3 0 0 0-.28.2l-.94 2.85c-2.4-.9-5.8-1.46-8.99-1.46-2.8 0-5.16.42-6.82 1.23-1.61.78-2.5 1.9-2.5 3.16 0 1.23.87 2.33 2.46 3.12 1.01.5 2.3.86 3.78 1.06l.67 1.48c.1.22.31.36.55.36h4.62a.6.6 0 0 0 .6-.6v-1.24c4.3-.5 7.98-1.88 8.78-3.46l1.27-.12a.3.3 0 0 0 .27-.3v-.72a.3.3 0 0 0-.15-.26zm-12.48 5.49h-1.7a.48.48 0 1 1 0-.96h1.7a.48.48 0 1 1 0 .96z"/>
    </g>
    <path fill-rule="nonzero" d="M179.74 132l-2.74-2.03 2.21-2.97h5.25v3.71zM214.16 117l1.98 1.47-1.98 1.54.4.6-1.96.39-1.85-.39-.64-1.45.64-1.23z"/>
    <path d="M46 113.98l.01.07c-.12.04-.74-.1-1.86-.45a35.3 35.3 0 0 1-1.63-.6c-.77.26-1.25 1.03-1.44 2.3a8.27 8.27 0 0 0 .37 3.85c.1.35.38.72.8 1.16l.73.68 1.26-.07c1.42-.61 2.23-.95 2.45-1.03.5-.3.86-.95 1.03-1.91.17-.98.1-1.9-.2-2.8-.34-1.02-.83-1.43-1.53-1.2zM95.31 139.28a2.65 2.65 0 0 0-2.07-.13c-.4.13-.79.39-1.24.78l.11 3.52 3.43-.42c.9-1.02 1.23-1.85 1.03-2.49-.19-.5-.6-.93-1.26-1.26z"/>
  </g>
</svg>
