<svg viewBox="0 0 264 56" xmlns="http://www.w3.org/2000/svg">
  <g fill="none" fill-rule="evenodd">
    <path d="M.64 54.78c87.67-35.68 175.34-35.68 263 0" stroke="#F4F4F4" stroke-width="2"/>
    <path fill="#F4F4F4" d="M221 41.44l4.73-17.67 9.82-14.99 1.22 17.95 10.35-14.85.69 17.8-4.74 17.68zM7.69.38l-.71.26 2.94 12.52-1.1.4.98 2.7-2.12.78.77 2.12-3.22 1.17 5.18 3.94 3.14-1.14 7.93 25.23 2.68-.98 3.8-1.38L17.8 21.58l3.14-1.15 1.44-6.35-3.22 1.18-.77-2.12-2.12.77-.98-2.7-1.11.4L8.39.13l-.7.25zM51.4 37.04l-.73-3.2L52 30.46l2.68 2.45.74 3.2zM59.94 35.66L57 22.93l4.02-.93 2.94 12.73zM169.8 31.2l.94-6.7 5.08-5.5 3.35 6.67-.94 6.72zM155.14 28.16l.44-4.15 3-3.49 2.22 4.04-.44 4.15z"/>
    <path d="M98.91 18.85c-.7.09-1.35.33-1.95.67l-1.06-1.63-.34-2.74a.4.4 0 0 0-.3-.34l-2.1-.53c-.2-.06-.4.07-.44.29-.05.22.07.41.28.47l1.87.46.27 2.22-7.34.9-.1-.75.9-.12c.2-.02.36-.22.33-.43-.02-.21-.22-.37-.42-.35l-2.33.29c-.2.02-.36.23-.33.43.03.21.22.38.42.35l.68-.08.13 1.07-.52 1.74a4.68 4.68 0 0 0-1.85-.15 5.22 5.22 0 0 0-4.42 5.9A5.2 5.2 0 0 0 86 31.18a5.21 5.21 0 0 0 4.44-5.5l1.63-.2a.36.36 0 0 0 .28-.2l3.2-6.42.79 1.16a5.26 5.26 0 0 0-1.84 4.73c.36 2.9 2.9 5 5.71 4.66a5.2 5.2 0 0 0 4.42-5.9 5.2 5.2 0 0 0-5.72-4.66zm-13 11.52a4.44 4.44 0 0 1-4.87-3.96 4.44 4.44 0 0 1 3.76-5.03 3.96 3.96 0 0 1 1.51.1l-1.33 4.28v.03.16c0 .05.01.08.04.13v.02c0 .03 0 .03.04.05 0 .03.02.03.05.05v.02c.03.03.09.05.12.07h.02c.05.02.08.01.13 0l4.28-.52c.1 2.3-1.5 4.33-3.75 4.6zm-.03-4.96l1.15-3.67a4.52 4.52 0 0 1 2.56 3.22l-3.7.45zm5.9-.72l-1.46.18a5.38 5.38 0 0 0-3.08-3.9l.5-1.57 7.09-.87-3.06 6.16zm8.31 3.94a4.44 4.44 0 0 1-4.86-3.97c-.2-1.6.43-3.07 1.54-4.03l2.46 3.73c.1.12.23.18.36.17.05 0 .12-.04.17-.08a.4.4 0 0 0 .08-.54l-2.47-3.73a4.5 4.5 0 0 1 1.62-.54 4.44 4.44 0 0 1 4.86 3.97 4.44 4.44 0 0 1-3.76 5.02z" fill="#F4F4F4" fill-rule="nonzero"/>
    <path fill="#F4F4F4" d="M163 29.6l1.92-15.6 5.3.65-1.92 15.6z"/>
    <path d="M125.5 21.62c-.19.14-.38.25-.6.31v5.17c0 .5.27.9.6.9.33 0 .6-.4.6-.9v-6.09h-.02c-.17.24-.37.45-.58.61z" fill="#F4F4F4" fill-rule="nonzero"/>
    <path d="M131.2 16.44a4.7 4.7 0 0 0-8.05-4.62 4.52 4.52 0 0 0-4.15 4.54c0 1.24.5 2.41 1.36 3.27a3.57 3.57 0 0 0 5.98 2.42 3.8 3.8 0 0 0 4.86-5.61z" fill="#F4F4F4" fill-rule="nonzero"/>
  </g>
</svg>
