<?xml version="1.0" encoding="UTF-8"?>
<svg width="219px" height="69px" viewBox="0 0 219 69" version="1.1" xmlns="http://www.w3.org/2000/svg" xmlns:xlink="http://www.w3.org/1999/xlink">
    <!-- Generator: Sketch 52.5 (67469) - http://www.bohemiancoding.com/sketch -->
    <title>Group 6</title>
    <desc>Created with Sketch.</desc>
    <g id="ui" stroke="none" stroke-width="1" fill="none" fill-rule="evenodd">
        <g id="section/price" transform="translate(-50.000000, -351.000000)">
            <g id="Group-3" transform="translate(7.000000, 240.000000)">
                <g id="Group-6" transform="translate(40.000000, 111.000000)">
                    <circle id="Oval" stroke="#FFFFFF" stroke-width="2" opacity="0.5" cx="213.5" cy="60.5" r="7.5"></circle>
                    <circle id="Oval" stroke="#FFFFFF" stroke-width="2" opacity="0.5" cx="40.5" cy="11.5" r="4.5"></circle>
                    <g id="Group-2" opacity="0.5" transform="translate(9.192388, 49.192388) rotate(45.000000) translate(-9.192388, -49.192388) translate(2.692388, 42.692388)" stroke="#FFFFFF" stroke-linecap="round" stroke-width="2">
                        <g id="Group">
                            <path d="M6.5,9.5 L6.5,13" id="Line-13"></path>
                            <path d="M9.5,6.5 L12.5,6.5" id="Line"></path>
                            <path d="M3.5,6.5 L0.5,6.5" id="Line-2"></path>
                            <path d="M6.5,3.5 L6.5,0.5" id="Line-3"></path>
                        </g>
                    </g>
                    <g id="Group-2" opacity="0.5" transform="translate(188.331133, 12.331133) rotate(44.000000) translate(-188.331133, -12.331133) translate(181.831133, 5.831133)" stroke="#FFFFFF" stroke-linecap="round" stroke-width="2">
                        <g id="Group">
                            <path d="M6.5,9.5 L6.5,13" id="Line-13"></path>
                            <path d="M9.5,6.5 L12.5,6.5" id="Line"></path>
                            <path d="M3.5,6.5 L0.5,6.5" id="Line-2"></path>
                            <path d="M6.5,3.5 L6.5,0.5" id="Line-3"></path>
                        </g>
                    </g>
                    <g id="bird" transform="translate(78.000000, 0.000000)">
                        <path d="M41.9345287,24.2929338 C41.5276194,23.9023554 40.8673313,23.9023554 40.4604219,24.2929338 L22.3051819,41.6960583 C21.8982727,42.0861222 21.8982727,42.7190754 22.3051819,43.1091391 C25.0112897,45.7032179 28.5655726,47 32.1198553,47 C35.6741381,47 39.228421,45.7032179 41.9345287,43.1091391 C44.6535201,40.5032246 46.1319213,36.894877 45.9907379,33.2103691 C45.9692651,32.6587221 45.4855906,32.226976 44.91012,32.2480744 C44.3346493,32.2681437 43.8853312,32.7317948 43.906804,33.2834418 C44.0265148,36.4152734 42.7703569,39.4812368 40.4598852,41.6960583 C36.1100356,45.8663448 29.1786205,46.0912234 24.549088,42.371723 L41.9345287,25.7060146 C42.3419749,25.3159508 42.3419749,24.6829976 41.9345287,24.2929338 Z" id="Path" fill="#FFFFFF"></path>
                        <path d="M69.481431,18.8838439 L58.0264511,12.2912049 C56.6256206,9.14604892 54.6357258,6.2004923 52.0535621,3.62486015 C52.0503578,3.62166662 52.0482214,3.61794073 52.0450172,3.61474721 C47.2069984,-1.20491574 39.3376744,-1.20491574 34.502326,3.61474721 C34.2053906,3.91068675 34.1167371,4.35512837 34.2769542,4.74155296 C34.4377052,5.12797755 34.8158173,5.37973917 35.2355857,5.37973917 L48.8075661,5.37973917 L45.5973519,8.57918633 C45.1920029,8.98264342 45.1920029,9.63732975 45.5973519,10.040787 C46.0021667,10.4447764 46.6590564,10.4447764 47.0638712,10.040787 L51.2968039,5.82205159 C58.922598,14.0253256 60.4467956,25.8639718 55.8693964,35.5197979 C55.9206659,34.6830767 55.8918269,33.8447587 55.7786069,33.0091021 C55.3241247,29.6579594 53.5222177,26.4132697 50.7050692,23.8722348 C48.004879,21.4365884 44.5319089,19.8174373 41.1764313,19.4288836 C39.9294093,19.2846397 38.7208391,19.3112529 37.5742196,19.4991425 L43.7906384,13.3030414 C44.1959874,12.8995843 44.1959874,12.2448978 43.7906384,11.8409085 C43.3858236,11.4374513 42.7289339,11.4374513 42.3241189,11.8409085 L0.304011744,53.7200799 C-0.101337248,54.1240694 -0.101337248,54.7787557 0.304011744,55.1822128 L6.8408645,61.6971409 C7.03686331,61.8924823 7.30068734,62 7.57412432,62 C7.62218934,62 7.67078853,61.9962741 7.71938771,61.9893547 C8.04195776,61.944112 8.32500783,61.7498352 8.4820204,61.4656056 L15.7820401,48.2803279 C17.1470888,49.1638884 18.5863712,49.9319472 20.092411,50.5775852 C20.2259251,50.6345375 20.3653138,50.6616831 20.5014983,50.6616831 C20.9036428,50.6616831 21.2860274,50.4274863 21.4553234,50.0362713 C21.6812293,49.5114576 21.4382336,48.9036106 20.9121878,48.6779301 C19.1855828,47.9386134 17.554574,47.0252461 16.0298424,45.9495378 C16.0207635,45.9426184 16.0116844,45.9362312 16.0020715,45.929844 C15.0493145,45.255996 14.1382139,44.5182762 13.2730422,43.7182814 L33.0945528,23.9637845 C37.4428417,19.6306121 44.7556787,21.2939415 49.3133176,25.405159 C51.7683759,27.6188507 53.3342297,30.4175021 53.7230229,33.2853479 C54.1748349,36.6173291 53.1040514,39.8971482 50.542716,43.0353849 C47.1770912,46.3774791 42.985281,48.7763992 38.416961,49.9729317 C33.9666672,51.1385928 29.2589583,51.1487059 24.80279,50.0027386 C24.2479053,49.8606237 23.6823394,50.1927573 23.5392122,50.7457811 C23.396085,51.2982724 23.7298704,51.8624737 24.2847552,52.0045886 C26.6623752,52.6161615 29.1072864,52.9222141 31.5516634,52.9222141 C32.4830581,52.9222141 33.4144528,52.8775038 34.3421091,52.7886155 L37.3872998,58.530162 C37.5731514,58.8809249 37.9331056,59.0810567 38.305343,59.0810567 C38.4687644,59.0810567 38.6343219,59.0422014 38.7891984,58.9607647 C39.295484,58.6940998 39.4888125,58.0686879 39.2212501,57.5641004 L36.5312071,52.4921437 C37.3413709,52.3521579 38.1467283,52.1813007 38.9440747,51.9726527 C39.3189825,51.8741836 39.6901519,51.7661337 40.0602531,51.6532935 L43.7083936,58.5306943 C43.8942454,58.8809249 44.2536655,59.0810567 44.6259029,59.0810567 C44.7898583,59.0810567 44.9554158,59.0427336 45.1097581,58.961297 C45.6165779,58.694632 45.8099064,58.0686879 45.542344,57.5641004 L42.0426712,50.9661388 C45.7735905,49.5210385 49.1878144,47.3105403 52.0444831,44.4634529 C57.2291046,39.2956884 60.0329017,32.6413067 60.460147,25.8650363 L69.481431,20.6738522 C69.8023991,20.4896884 70,20.147974 70,19.7785819 C70,19.4097219 69.8023991,19.0680076 69.481431,18.8838439 Z M14.0746611,47.0843275 L7.33219658,59.2630914 L2.50432493,54.4514125 L11.8065228,45.1804144 C12.5333738,45.8553268 13.289598,46.4908516 14.0746611,47.0843275 Z M38.3363184,3.31188825 C41.4034055,1.65175253 45.1423357,1.65175253 48.2099568,3.31188825 L38.3363184,3.31188825 Z M60.5119504,23.4474871 C60.4564085,20.7100462 60.0126076,17.9789926 59.1826836,15.3442791 L66.8885863,19.7785819 L60.5119504,23.4474871 Z" id="Shape" fill="#FFFFFF" fill-rule="nonzero"></path>
                        <path d="M25,61.5061457 C32.7611819,59.7526452 38.4135257,58.9193119 41.9570313,59.0061457 C45.5005368,59.0929796 50.2282413,60.1806767 56.1401449,62.2692371" id="Line-14" stroke="#FFFFFF" stroke-width="2" stroke-linecap="square"></path>
                        <path d="M56,17.9997253 C56,15.7941359 54.2057409,14 51.9999999,14 C49.7942591,14 48,15.7941359 48,17.9997253 C48,20.2053148 49.7942591,22 51.9999999,22 C54.2057409,22 56,20.2053148 56,17.9997253 Z M50.1337728,17.9997253 C50.1337728,16.9708164 50.9710204,16.1336263 51.9999999,16.1336263 C53.0289796,16.1336263 53.866227,16.9708164 53.866227,17.9997253 C53.866227,19.0286343 53.0289796,19.8658244 51.9999999,19.8658244 C50.9710204,19.8658244 50.1337728,19.0286343 50.1337728,17.9997253 Z" id="Shape" fill="#FFFFFF" fill-rule="nonzero"></path>
                    </g>
                </g>
            </g>
        </g>
    </g>
</svg>