<svg viewBox="0 0 72 89" xmlns="http://www.w3.org/2000/svg">
  <g fill-rule="nonzero" fill="none">
    <path d="M17.45067 14.94408v27.22108c0 12.22897 9.94143 22.14225 22.20723 22.14225 12.26581 0 22.20723-9.9135 22.20723-22.14225V15.71179l-44.41446-.76771z" fill="#F7DECE"/>
    <path d="M29.78805 54.46593h19.73971s-2.46752 4.92117-9.86986 4.92117c-7.40233 0-9.86985-4.92117-9.86985-4.92117" fill="#C1694F"/>
    <g fill="#662113">
      <path d="M29.78805 39.70263c-1.36193 0-2.46752-1.10227-2.46752-2.4606v-2.46058c0-1.3581 1.10537-2.46059 2.46752-2.46059 1.36214 0 2.46752 1.10227 2.46752 2.4606v2.46058c-.00022 1.35832-1.1056 2.46059-2.46752 2.46059M49.52776 39.70263c-1.36193 0-2.46752-1.10227-2.46752-2.4606v-2.46058c0-1.3581 1.10537-2.46059 2.46752-2.46059 1.36193 0 2.46752 1.10227 2.46752 2.4606v2.46058c0 1.35832-1.1056 2.46059-2.46752 2.46059"/>
    </g>
    <path d="M42.1252 48.31468h-4.93503c-.68118 0-1.23376-.55103-1.23376-1.2303 0-.67926.55258-1.23029 1.23376-1.23029h4.93503c.68119 0 1.23376.55103 1.23376 1.2303 0 .67905-.55257 1.23029-1.23376 1.23029" fill="#C1694F"/>
    <g fill="#F7DECE">
      <path d="M22.00858 34.081c0 3.88767-1.97653 7.03963-4.41195 7.03963-2.43781 0-4.41196-3.15196-4.41196-7.03964 0-3.88767 1.97393-7.03964 4.41196-7.03964 2.43542 0 4.41195 3.15197 4.41195 7.03964M66.13178 34.081c0 3.88767-1.97392 7.03963-4.41195 7.03963-2.43802 0-4.41195-3.15196-4.41195-7.03964 0-3.88767 1.97393-7.03964 4.41195-7.03964 2.43803 0 4.41195 3.15197 4.41195 7.03964"/>
    </g>
    <path d="M39.6579 2.35806c-17.31903 0-25.01761 11.52505-25.01761 21.13125 0 9.6036 3.31395 12.26833 3.84918 9.6036 1.9247-9.6036 7.69598-12.55358 7.69598-12.55358C37.7332 30.1453 35.8085 22.461 35.8085 22.461c11.54776 11.52505 5.77388 0 5.77388 0 3.84918 3.84334 15.39455 3.84334 15.39455 3.84334s1.9247 2.94782 3.84918 6.78857c1.92448 3.84074 3.84918 0 3.84918-9.6036.00022-9.60598-9.62306-21.13125-25.0174-21.13125" fill="#292F33"/>
    <path d="M25.8929 7.55691c-1.45844-.95716-3.4224-.55102-4.38225.90288l-1.59159 2.41625v-5.6199c0-2.7188-2.21096-4.92117-4.93504-4.92117H5.11417C2.3877.33497.17913 2.53712.17913 5.25614V24.9404s0 2.46059 2.46752 2.46059h14.8049l2.46751-2.46059v-2.56634l6.87925-10.44743c.96224-1.45629.55518-3.41256-.90542-4.36972" fill="#F7DECE"/>
    <g fill="#E0AA94">
      <path d="M7.58082 12.63682H5.1133V.3341h2.46752zM14.98315 12.63682h-2.4675V.3341h2.4675z"/>
    </g>
    <path d="M61.86513 66.76865H17.45046l2.46752-41.82911H.17827v41.8291s0 22.14486 19.7397 22.14486h51.8168V76.61078c.00022-5.43522-4.4191-9.84213-9.86964-9.84213" fill="#58C99A"/>
    <path d="M32.25535 59.3871v9.84213c0 4.07712 3.31395 7.38155 7.40234 7.38155 4.08838 0 7.40255-3.30443 7.40255-7.38155V59.3871h-14.8049z" fill="#F7DECE"/>
  </g>
</svg>
