<svg viewBox="0 0 341 155" xmlns="http://www.w3.org/2000/svg">
  <g fill="none" fill-rule="evenodd">
    <path d="M188.57 80.16c-2.8 0-5.45.56-7.88 1.57l-5.8-11.25h8.1a1.6 1.6 0 0 1 0 3.19h-1.72a1.65 1.65 0 1 0 0 3.3H183a4.9 4.9 0 0 0 0-9.8h-10.82a1.65 1.65 0 0 0-1.46 2.41l2.88 5.6h-23.8l-2.4-4.7h3.8a1.65 1.65 0 1 0 0-3.3H140.4a1.65 1.65 0 1 0 0 3.3h3.31l3.2 6.28-3.76 5.83A20.49 20.49 0 0 0 113 100.62a20.49 20.49 0 0 0 20.47 20.47 20.5 20.5 0 0 0 20.4-18.82h4.83l-1.88 6.12h-1.08a1.65 1.65 0 1 0 0 3.3h5.94a1.65 1.65 0 1 0 0-3.3h-1.4l2.16-7.06 13.72-21.18 1.6 3.1a20.47 20.47 0 0 0-9.66 17.37c0 7.48 5.96 11.26 13.17 12.2 3.67.47 7.57-.64 11.38-.64 11.28 0 16.38-.27 16.38-11.56a20.49 20.49 0 0 0-20.46-20.46zm-39.93 0l9.6 18.81h-4.37a20.46 20.46 0 0 0-7.96-14.59l2.73-4.23zm1.91 18.81H136.5l7.62-11.8a17.16 17.16 0 0 1 6.44 11.8zm-17.08 18.82c-9.47 0-17.17-7.7-17.17-17.17a17.19 17.19 0 0 1 25.04-15.25l-9.26 14.36a1.65 1.65 0 0 0 1.39 2.54h17.08a17.2 17.2 0 0 1-17.08 15.52zm27.63-20.46l-9.61-18.85h21.83L161.1 97.33zm27.47 12.6c-9.47 0-17.17.16-17.17-9.3 0-6.05 3.14-11.38 7.88-14.44l7.82 15.19a1.65 1.65 0 1 0 2.93-1.51l-7.82-15.2a17.19 17.19 0 0 1 23.53 15.94c0 9.48-7.7 9.33-17.17 9.33z" fill="#5AD2A0" fill-rule="nonzero"/>
    <path d="M187.46 120.08c-2.65-1.86-3.8-3.41-3.46-4.67.51-1.88 1.79-2.36 5.42-2.55 3.64-.18 6.67-.17 8.36 1.84 1.12 1.34.49 3.29-1.9 5.86l-8.42-.48z" fill="#5AD2A0" fill-rule="nonzero"/>
    <path d="M36 147c87.67-36 175.33-36 263 0" stroke="#5AD2A0" stroke-width="2" stroke-linecap="round"/>
    <path d="M178.84 149.93c26.56-6.27 52.99-4.8 79.27 4.43M89 144c16.33-6.67 32.67-6.67 49 0" stroke="#5AD2A0" stroke-linecap="round"/>
    <path fill="#F4F4F4" d="M71.2 63.51l-10.65-3.87 10.66-12.78L46.8 63.5l10.64 3.87-10.66 12.78zM218 19.85h-8.4L213.79 8 201 26.15h8.4L205.21 38zM340.42 105.88h-8.4l4.19-11.85-12.79 18.15h8.39l-4.18 11.85zM.42 112.88h8.4l-4.2-11.85 12.8 18.15h-8.4l4.19 11.85zM103.98 10.55l7.28-4.2-9.56-8.16 20.15 9.32-7.26 4.2 9.54 8.17z"/>
    <path d="M310.28 67.6a14.7 14.7 0 0 0-13.19-14.59 14.71 14.71 0 0 0-21.36-7.48 14.72 14.72 0 0 0-27.38 4.8 14.7 14.7 0 0 0-16.48 15.73 14.64 14.64 0 0 0-1.38 23.82c-.02.27-.04.53-.04.8a14.7 14.7 0 0 0 21.47 13.03c2.8 2 6.82 4.52 8.77 4.02 0 0 .72 11.17.57 14-.3 5.4.57 6.92-.57 11.78l15.2 4.49s-2.6-10.84-2.72-14.46c-.11-3.62 1.14-10.28 1.14-10.28l6.14-6.33a14.66 14.66 0 0 0 8.3 2.53c7.6 0 13.87-5.78 14.64-13.16A14.69 14.69 0 0 0 313 82.53c0-3.72-1.4-7.11-3.7-9.7.62-1.63.98-3.38.98-5.23zm-54.95 33.69a14.75 14.75 0 0 0 2.92-3.9l2.9 6.04s-1.58.7-5.82-2.14zm10.8 3.72c-1.5.28-4.04-4.32-5.85-8.05a14.68 14.68 0 0 0 8.5 1.48c-.47 2.99-1.28 6.33-2.65 6.57zm6.36 2.94c-3.46.96-1.39-6.18-.4-10.32.72-.26 1.41-.58 2.07-.95.4 3.02 1.72 5.74 3.66 7.89-1.68 1.49-3.62 2.91-5.33 3.38z" fill="#5AD2A0" fill-rule="nonzero"/>
    <g fill="#5AD2A0" fill-rule="nonzero">
      <path d="M119.75 133.94s-1.24 0-2.17 1.46c-.09.14-.16.28-.21.43a8.29 8.29 0 0 0-1.02-2.77 9.9 9.9 0 0 1-1.13 3.83c-.26-3.6-2-5.89-2-5.89-.19 2.5-.58 4.5-.94 5.9a61.42 61.42 0 0 1-1.19-4.42s-.6 1.13-.9 2.96l-.03-.04c-.92-1.46-2.16-1.46-2.16-1.46.7 1.98.34 4.12.13 5.06.22-.07.45-.1.7-.1h10.1c.24 0 .47.03.69.1a9.55 9.55 0 0 1 .13-5.06zM89.09 122.82s-1.5.4-2.14 2.46c-.06.2-.1.4-.12.6-1.02-2.05-2.13-3.02-2.13-3.02.34 1.9.2 3.6-.12 4.99-1.48-4.26-4.32-6.47-4.32-6.47.58 3.07.75 5.62.78 7.42a76.77 76.77 0 0 1-2.87-4.95s-.36 1.56-.13 3.87l-.05-.04c-1.6-1.46-3.08-1.06-3.08-1.06 1.48 2.16 1.75 4.87 1.79 6.07.24-.16.51-.28.8-.36l12.2-3.27c.29-.07.59-.1.87-.09-.56-1.06-1.68-3.54-1.48-6.15zM230.21 142.15s-1.23-.13-2.3 1.22c-.1.13-.2.27-.26.42-.18-1.83-.73-2.87-.73-2.87a9.9 9.9 0 0 1-1.52 3.7c.12-3.61-1.37-6.07-1.37-6.07a35.13 35.13 0 0 1-1.55 5.76c-.22-1.1-.48-2.58-.72-4.52 0 0-.72 1.06-1.2 2.86l-.03-.05c-.77-1.55-2-1.68-2-1.68a9.55 9.55 0 0 1-.4 5.05c.22-.05.46-.06.7-.04l10.04 1.06c.25.03.47.09.69.18a9.55 9.55 0 0 1 .65-5.02z"/>
    </g>
  </g>
</svg>
