<svg viewBox="0 0 47 65" xmlns="http://www.w3.org/2000/svg">
  <g fill-rule="nonzero" fill="none">
    <path d="M39.56 48.48H8.79v16.46h38v-9.15a7.28 7.28 0 0 0-7.23-7.31" fill="#58C99A"/>
    <path d="M6.99 9.95V30.2c0 9.09 7.29 16.46 16.28 16.46 9 0 16.29-7.37 16.29-16.46V10.52L6.99 9.95z" fill="#F7DECE"/>
    <path d="M16.03 28.36c-1 0-1.8-.82-1.8-1.83V24.7c0-1.01.8-1.83 1.8-1.83s1.81.82 1.81 1.83v1.83c0 1-.8 1.83-1.8 1.83" fill="#662113"/>
    <path d="M25.08 34.76h-3.62c-.5 0-.9-.41-.9-.92 0-.5.4-.91.9-.91h3.62c.5 0 .9.41.9.91 0 .51-.4.92-.9.92" fill="#C1694F"/>
    <g fill="#F7DECE">
      <path d="M10.33 24.18c0 2.89-1.45 5.23-3.24 5.23-1.79 0-3.23-2.34-3.23-5.23 0-2.9 1.44-5.23 3.23-5.23s3.24 2.34 3.24 5.23M42.69 24.18c0 2.89-1.45 5.23-3.24 5.23-1.78 0-3.23-2.34-3.23-5.23 0-2.9 1.45-5.23 3.23-5.23 1.8 0 3.24 2.34 3.24 5.23"/>
    </g>
    <path d="M23.27.6C10.57.6 4.92 9.17 4.92 16.3c0 7.14 2.43 9.13 2.83 7.14 1.4-7.13 5.64-9.33 5.64-9.33 8.47 7.14 7.06 1.43 7.06 1.43 8.47 8.57 4.23 0 4.23 0 2.83 2.86 11.3 2.86 11.3 2.86s1.4 2.19 2.82 5.04c1.41 2.86 2.82 0 2.82-7.13C41.62 9.17 34.56.6 23.27.6" fill="#292F33"/>
    <path d="M17.84 42.99v7.32a5.46 5.46 0 0 0 5.43 5.48c3 0 5.43-2.45 5.43-5.48v-7.32H17.84z" fill="#F7DECE"/>
    <path d="M15.15 13.45c1.71-.54 2.9.92 3.2 2.18l.52 2.09 1.37-3.95a3.6 3.6 0 0 1 4.61-2.24l6.83 2.43a3.67 3.67 0 0 1 2.22 4.66l-4.8 13.8s-.6 1.73-2.3 1.13L16.55 29.9l-1.1-2.33.62-1.8-2.22-9.02c-.31-1.25.08-2.93 1.3-3.31" fill="#E0AA94"/>
    <path d="M34.41 29.04c-.04-.1-1.07-2.36-3.16-2.8l-.88 2.55.18-.01c2.1 0 3.19.77 3.21.79a.44.44 0 0 0 .53-.01c.15-.13.2-.34.12-.52" fill="#662113"/>
    <path d="M30.55 26.15c-2.57 0-3.81 2.77-3.87 2.89-.08.18-.02.39.13.51.15.13.37.13.53.02 0-.01 1.04-.73 3.03-.78l.88-2.55c-.22-.05-.45-.1-.7-.1" fill="#4F140B"/>
    <path d="M28.7 41.83s-1.02-2.05-3.04-3.08l-1.46 3.08h4.5z" fill="#C1694F"/>
    <path d="M24.6 32.72l-3.44 5.92-1.85 3.19-2.1 3.6.63 4.88c0 1.08.33 2.09.86 2.94a1312.83 1312.83 0 0 0 6.96-14.5l2.25-4.77-3.3-1.26z" fill="#E0AA94"/>
    <path d="M25.66 38.75a5.2 5.2 0 0 0-4.5-.11l-1.85 3.19h4.89l1.46-3.08" fill="#894935"/>
    <path d="M13.34 13.1c1.25-.31 2.5.45 2.82 1.7l.51 2.1 1.37-3.95a3.61 3.61 0 0 1 4.61-2.24l6.83 2.42a3.67 3.67 0 0 1 2.22 4.66L26.9 31.6s-.6 1.73-2.3 1.12L14.35 29.1l-1.1-2.33.62-1.8-2.22-9.02a2.35 2.35 0 0 1 1.7-2.84" fill="#F7DECE"/>
    <g fill="#E0AA94">
      <path d="M24.62 21.14l1.7.6 3-8.63-1.7-.6zM19.5 19.32l1.7.61 3-8.63-1.71-.6z"/>
    </g>
    <path d="M16.54 53.69s-3.11 6.55-3.81 8.08a5.72 5.72 0 0 1-3.93 3.17c-14.48 0-6.56-15.26-6.56-15.26L13.88 28l11.84 4.72-9.18 20.96z" fill="#58C99A"/>
  </g>
</svg>
