<svg id="_x33_0" enable-background="new 0 0 64 64" height="512" viewBox="0 0 64 64" width="512" xmlns="http://www.w3.org/2000/svg"><g><path d="m21 26c0 2.757 2.243 5 5 5s5-2.243 5-5-2.243-5-5-5-5 2.243-5 5zm4-2.816v1.816h-1.816c.302-.847.969-1.514 1.816-1.816zm-1.816 3.816h1.816v1.816c-.847-.302-1.514-.969-1.816-1.816zm3.816 1.816v-1.816h1.816c-.302.847-.969 1.514-1.816 1.816zm1.816-3.816h-1.816v-1.816c.847.302 1.514.969 1.816 1.816z"/><path d="m61.809 53.174c.116-.378.191-.77.191-1.174 0-1.011-.379-1.934-1-2.639v-16.543c.416-.147.8-.376 1.121-.697.567-.566.879-1.32.879-2.121s-.312-1.555-.879-2.121l-22-22c-1.133-1.134-3.109-1.134-4.242 0l-5.879 5.879-1.879-1.879c-1.133-1.134-3.109-1.134-4.242 0l-22 22c-.567.566-.879 1.32-.879 2.121s.312 1.555.879 2.121c1.133 1.134 3.109 1.134 4.242 0l.879-.879v17.758c-1.103 0-2 .897-2 2v6h-4v2h62v-8c0-.815-.491-1.514-1.191-1.826zm-.809 3.826h-4v-2h4zm-52-22h4v2h-4zm41.121-3.121-.879-.879h7.516l1.121 1.121c.321.321.706.55 1.121.697v15.322c-.173-.045-.347-.091-.528-.113-.351-.626-.863-1.136-1.472-1.489v-7.538h-10v8c-.732 0-1.409.212-2 .556v-12.314l.879.879c.566.567 1.32.879 2.121.879s1.555-.312 2.121-.879c.567-.566.879-1.32.879-2.121s-.312-1.555-.879-2.121zm-15.879-15.879 3.758-3.758 16.758 16.758h-7.516zm25.488 37h-3.73c0-1.795-1.197-3.3-2.828-3.805.31-.702 1.012-1.195 1.828-1.195.848 0 1.601.536 1.874 1.333l.293.803.833-.136c1.103 0 2 .897 2 2 0 .355-.096.698-.27 1zm-8.73 4v-2h4v2zm-8-22v2h-4v-2zm10 11.556v-1.556h2v1c-.732 0-1.409.212-2 .556zm-3 6.444c0-1.103.897-2 2-2s2 .897 2 2zm5-10h-2v-2h2zm-4 0h-2v-2h2zm-2 2h2v4.142c-.136.035-.27.075-.399.124-.35-.721-.914-1.312-1.601-1.713zm-.071 5.469c-.572.692-.929 1.566-.929 2.531h-3v-2c0-1.103.897-2 2-2 .91 0 1.694.62 1.929 1.469zm-39.687-17.469 16.758-16.758 16.758 16.758zm5.758 2h22v2h-22zm28 4v14h-2v-14zm6 16v2h-2v-2zm-2 4h4v2h-4zm6 0h4v2h-4zm-15.707-51.707c.384-.383 1.03-.383 1.414 0l22 22c.191.192.293.436.293.707s-.102.515-.293.707c-.384.383-1.03.383-1.414 0l-21.293-21.293-5.172 5.172-1.414-1.414zm-32.586 27.414c-.384.383-1.03.383-1.414 0-.191-.192-.293-.436-.293-.707s.102-.515.293-.707l22-22c.384-.383 1.03-.383 1.414 0l22 22c.191.192.293.436.293.707s-.102.515-.293.707c-.384.383-1.03.383-1.414 0l-21.293-21.293zm4.293 4.293h2v14h-2zm-2 16h6v6h-6zm24 6h-10v-18h10zm6-6v6h-4v-20h-14v20h-4v-6c0-1.103-.897-2-2-2v-14h26v14c-1.103 0-2 .897-2 2zm2 0h6v6h-6zm20 6v-2h2v2z"/><path d="m23 45h6v2h-6z"/><path d="m23 53h2v2h-2z"/><path d="m35 45h2v2h-2z"/><path d="m48 1h2v2h-2z"/><path d="m48 5h2v2h-2z"/><path d="m50 3h2v2h-2z"/><path d="m46 3h2v2h-2z"/><path d="m57 12h2v2h-2z"/><path d="m57 16h2v2h-2z"/><path d="m59 14h2v2h-2z"/><path d="m55 14h2v2h-2z"/><path d="m15 7h2v2h-2z"/><path d="m15 11h2v2h-2z"/><path d="m17 9h2v2h-2z"/><path d="m13 9h2v2h-2z"/><path d="m7 1h2v2h-2z"/><path d="m7 5h2v2h-2z"/><path d="m9 3h2v2h-2z"/><path d="m5 3h2v2h-2z"/><path d="m5 16h2v2h-2z"/><path d="m5 20h2v2h-2z"/><path d="m7 18h2v2h-2z"/><path d="m3 18h2v2h-2z"/></g></svg>