<svg viewBox="0 0 26 21" xmlns="http://www.w3.org/2000/svg">
  <g fill="#FFF">
    <path d="M.38101 10.3726c-.08264-.19994-.03663-.42999.11653-.58276l9.6231-9.62309c.21236-.20514.55082-.19923.75596.01313.20008.2072.20008.53564 0 .74278L2.16555 9.63372h23.30177c.29526.00005.53463.23942.53463.53468 0 .29526-.23937.53464-.53463.53464H2.16555l8.70995 8.70995c.21236.20514.21827.54355.01313.75596-.20514.21236-.54355.21823-.75596.01314a.54051.54051 0 0 1-.01313-.01314l-9.6231-9.6231a.53594.53594 0 0 1-.11543-.17326z"/>
    <path d="M10.4981 20.32608c.29525.00055.53503-.23842.53558-.53368a.53465.53465 0 0 0-.15708-.37946L1.63091 10.1684l9.2457-9.24458c.20514-.21236.19922-.55082-.01314-.75597-.2072-.20008-.53563-.20008-.74278 0l-9.6231 9.6231c-.2087.20875-.2087.54716 0 .75596l9.6231 9.6231a.53425.53425 0 0 0 .3774.15607z"/>
    <path d="M.875 10.70299h24.59232c.29526 0 .53463-.23933.53463-.53459s-.23937-.53463-.53463-.53463H.87495c-.29526 0-.53463.23937-.53463.53463.00005.29526.23942.53459.53468.53459z"/>
  </g>
</svg>
