<svg viewBox="0 0 26 21" xmlns="http://www.w3.org/2000/svg">
  <g fill="#FFF">
    <path d="M25.6229 10.3726c.08264-.19994.03663-.42999-.11654-.58276L15.88326.16675c-.21235-.20514-.55081-.19923-.75596.01313-.20008.2072-.20008.53564 0 .74278l8.71106 8.71106H.53659c-.29526.00005-.53464.23942-.53464.53468 0 .29526.23938.53464.53464.53464h23.30177l-8.70995 8.70995c-.21236.20514-.21828.54355-.01314.75596.20515.21236.54356.21823.75597.01314a.54051.54051 0 0 0 .01313-.01314l9.6231-9.6231a.53594.53594 0 0 0 .11542-.17326z"/>
    <path d="M15.50581 20.32608c-.29526.00055-.53503-.23842-.53558-.53368a.53465.53465 0 0 1 .15707-.37946l9.2457-9.24454L15.1273.92382c-.20514-.21236-.19923-.55082.01313-.75597.2072-.20008.53564-.20008.74279 0l9.6231 9.6231c.2087.20875.2087.54716 0 .75596l-9.6231 9.6231a.53425.53425 0 0 1-.3774.15607z"/>
    <path d="M25.1289 10.70299H.5366c-.29526 0-.53464-.23933-.53464-.53459s.23938-.53463.53464-.53463h24.59237c.29525 0 .53463.23937.53463.53463-.00005.29526-.23943.53459-.53468.53459z"/>
  </g>
</svg>
