<svg viewBox="0 0 65 65" xmlns="http://www.w3.org/2000/svg">
  <g>
    <path d="M41.03394 41.63964c0-.58876-.47788-1.06664-1.06664-1.06664s-1.06664.47788-1.06664 1.06664v2.1334c0 .58877.47788 1.06665 1.06664 1.06665s1.06664-.47788 1.06664-1.06664v-2.1334zm-1.06676 11.73354c-.58876 0-1.06664.47788-1.06664 1.06664v4.26669c0 .58875.47788 1.06664 1.06664 1.06664.58875 0 1.06664-.47789 1.06664-1.06664v-4.26669c.00012-.58876-.47776-1.06664-1.06664-1.06664zm5.33345-24.53372c0-.58875-.47789-1.06664-1.06664-1.06664-.58876 0-1.06664.47789-1.06664 1.06664v2.1334c0 .58877.47788 1.06665 1.06664 1.06665.58875 0 1.06664-.47788 1.06664-1.06664v-2.1334zm-4.26669 6.40009c0-.58875-.47788-1.06664-1.06664-1.06664s-1.06664.47789-1.06664 1.06664v2.1334c0 .58877.47788 1.06665 1.06664 1.06665s1.06664-.47788 1.06664-1.06664v-2.1334zm0 12.80018c0-.58876-.47788-1.06664-1.06664-1.06664s-1.06676.47788-1.06676 1.06664v2.1334c0 .58876.47788 1.06665 1.06664 1.06665.58875 0 1.06664-.47789 1.06664-1.06664v-2.1334h.00012zm4.26669-12.80018c0-.58875-.47789-1.06664-1.06664-1.06664-.58876 0-1.06664.47789-1.06664 1.06664v2.1334c0 .58877.47788 1.06665 1.06664 1.06665.58875 0 1.06664-.47788 1.06664-1.06664v-2.1334zm-8.5335-6.40009c0-.58875-.47788-1.06664-1.06664-1.06664s-1.06664.47789-1.06664 1.06664v2.1334c0 .58877.47788 1.06665 1.06664 1.06665s1.06664-.47788 1.06664-1.06664v-2.1334zm4.26681 0c0-.58875-.47788-1.06664-1.06664-1.06664s-1.06664.47789-1.06664 1.06664v2.1334c0 .58877.47788 1.06665 1.06664 1.06665s1.06664-.47788 1.06664-1.06664v-2.1334zm4.26669-10.66677v-2.1334c0-.58876-.47789-1.06664-1.06664-1.06664-.58876 0-1.06664.47788-1.06664 1.06664v2.1334c0 .58876.47788 1.06664 1.06664 1.06664.58875 0 1.06664-.47788 1.06664-1.06664zm-8.5335 17.06686c0-.58875-.47788-1.06664-1.06664-1.06664s-1.06664.47789-1.06664 1.06664v2.1334c0 .58877.47788 1.06665 1.06664 1.06665s1.06664-.47788 1.06664-1.06664v-2.1334zm12.80018-19.20026c0-.58876-.47788-1.06664-1.06664-1.06664s-1.06664.47788-1.06664 1.06664v2.1334c0 .58876.47788 1.06664 1.06664 1.06664s1.06664-.47788 1.06664-1.06664v-2.1334zM35.7005 40.573c-.58877 0-1.06665.47788-1.06665 1.06664v2.1334c0 .58877.47788 1.06665 1.06664 1.06665s1.06664-.47788 1.06664-1.06664v-2.1334c0-.58877-.47788-1.06665-1.06664-1.06665zm18.13362 7.46673c0-.58876-.47788-1.06664-1.06664-1.06664s-1.06677.47788-1.06677 1.06664v2.1334c0 .58876.47789 1.06665 1.06664 1.06665.58876 0 1.06664-.47789 1.06664-1.06664v-2.1334h.00013zm-1.06677 5.33345c-.58875 0-1.06664.47788-1.06664 1.06664v4.26669c0 .58875.47789 1.06664 1.06664 1.06664.58876 0 1.06664-.47789 1.06664-1.06664v-4.26669c.00013-.58876-.47775-1.06664-1.06664-1.06664zM57.03416 40.573c-.58875 0-1.06664.47788-1.06664 1.06664v2.1334c0 .58877.47789 1.06665 1.06664 1.06665.58876 0 1.06664-.47788 1.06664-1.06664v-2.1334c0-.58877-.47788-1.06665-1.06664-1.06665z"/>
    <path d="M39.96718 19.23933c.58875 0 1.06664-.47788 1.06664-1.06664v-4.50031l10.6669-2.66679v17.83387c0 .44476.27625.84264.69225.99952l7.84124 2.93979v10.99428c0 .58876.47788 1.06664 1.06664 1.06664s1.06664-.47788 1.06664-1.06664V32.0395c0-.44476-.27626-.84264-.69226-.99952l-7.84124-2.93979V7.5058c0-.58877-.47788-1.06665-1.06664-1.06665-.58875 0-1.06664.47788-1.06664 1.06664v1.30027l-11.99266 2.99842c-.47463.11837-.80751.54513-.80751 1.03464v5.33345c0 .58888.47788 1.06676 1.06664 1.06676z"/>
    <path d="M58.1008 35.23955c0-.58875-.47788-1.06664-1.06664-1.06664-.58875 0-1.06664.47789-1.06664 1.06664v2.1334c0 .58877.47789 1.06665 1.06664 1.06665.58876 0 1.06664-.47788 1.06664-1.06664v-2.1334zm-4.26668 0c0-.58875-.47788-1.06664-1.06664-1.06664s-1.06664.47789-1.06664 1.06664v2.1334c0 .58877.47788 1.06665 1.06664 1.06665s1.06664-.47788 1.06664-1.06664v-2.1334zm-8.53349 12.80018c0-.58876-.47789-1.06664-1.06664-1.06664-.58876 0-1.06664.47788-1.06664 1.06664v2.1334c0 .58876.47788 1.06665 1.06664 1.06665.58875 0 1.06664-.47789 1.06664-1.06664v-2.1334zm8.53349-6.40009c0-.58876-.47788-1.06664-1.06664-1.06664s-1.06664.47788-1.06664 1.06664v2.1334c0 .58877.47788 1.06665 1.06664 1.06665s1.06664-.47788 1.06664-1.06664v-2.1334zm-9.60013 11.73354c-.58876 0-1.06664.47788-1.06664 1.06664v4.26669c0 .58875.47788 1.06664 1.06664 1.06664.58875 0 1.06664-.47789 1.06664-1.06664v-4.26669c0-.58876-.47789-1.06664-1.06664-1.06664zm1.06664-11.73354c0-.58876-.47789-1.06664-1.06664-1.06664-.58876 0-1.06664.47788-1.06664 1.06664v2.1334c0 .58877.47788 1.06665 1.06664 1.06665.58875 0 1.06664-.47788 1.06664-1.06664v-2.1334z"/>
    <path d="M48.50067 59.77327c.58876 0 1.06664-.47788 1.06664-1.06664V24.57278c0-.48963-.33388-.91626-.80751-1.03464l-17.06686-4.26681c-.31676-.08-.65714-.0075-.91527.19413-.25925.20163-.41063.512-.41063.84051v23.46695c0 .58876.47788 1.06664 1.06664 1.06664s1.06664-.47788 1.06664-1.06664V21.6725l14.93359 3.73343v33.30071c.00012.58876.478 1.06664 1.06676 1.06664zm-24.53372-37.3339c0-.58875-.47788-1.06664-1.06664-1.06664s-1.06664.47789-1.06664 1.06664v2.1334c0 .58877.47788 1.06665 1.06664 1.06665s1.06664-.47788 1.06664-1.06664v-2.1334zm0-6.40008c0-.58876-.47788-1.06664-1.06664-1.06664s-1.06664.47788-1.06664 1.06664v2.1334c0 .58876.47788 1.06664 1.06664 1.06664s1.06664-.47788 1.06664-1.06664v-2.1334zm-8.53337 32.00044c0-.58876-.47788-1.06664-1.06664-1.06664-.58875 0-1.06676.47788-1.06676 1.06664v2.1334c0 .58876.47788 1.06665 1.06664 1.06665s1.06664-.47789 1.06664-1.06664v-2.1334h.00012z"/>
    <path d="M5.83345 38.4396c.58876 0 1.06664-.47788 1.06664-1.06664V32.0395h10.66677v26.667c0 .58875.47788 1.06664 1.06664 1.06664s1.06664-.47789 1.06664-1.06664V30.97287c0-.58876-.47788-1.06664-1.06664-1.06664H5.83332c-.58875 0-1.06664.47788-1.06664 1.06664v6.40009c0 .58876.47789 1.06664 1.06677 1.06664zm11.73341-16.00023v2.1334c0 .58877.47788 1.06665 1.06664 1.06665s1.06664-.47788 1.06664-1.06664v-2.1334c0-.58876-.47788-1.06665-1.06664-1.06665s-1.06664.47789-1.06664 1.06664zM23.96695 9.6392c0-.58876-.47788-1.06664-1.06664-1.06664s-1.06664.47788-1.06664 1.06664v2.1334c0 .58876.47788 1.06664 1.06664 1.06664s1.06664-.47788 1.06664-1.06664V9.6392z"/>
    <path d="M14.36682 53.37318c-.58876 0-1.06664.47788-1.06664 1.06664v4.26669c0 .58875.47788 1.06664 1.06664 1.06664s1.06664-.47789 1.06664-1.06664v-4.26669c.00012-.58876-.47776-1.06664-1.06664-1.06664z"/>
    <path d="M63.43425 61.90655h-2.1334v-6.5516c1.83465-.47675 3.20004-2.1334 3.20004-4.1153 0-2.35316-1.91365-4.26668-4.26668-4.26668s-4.26669 1.91365-4.26669 4.26668c0 1.9819 1.3654 3.63843 3.20005 4.1153v6.5516H32.50045v-4.37444c2.4309-.496 4.26668-2.64966 4.26668-5.2257 0-2.94078-2.39253-5.33344-5.33345-5.33344-2.94079 0-5.33345 2.39253-5.33345 5.33345 0 2.57603 1.83578 4.72969 4.26669 5.2257v4.37443H6.90009V51.13203c2.4309-.49601 4.26668-2.64967 4.26668-5.2257 0-2.9408-2.39253-5.33345-5.33345-5.33345C2.89253 40.573.5 42.96554.5 45.90633c0 2.57603 1.83578 4.72969 4.26668 5.2257v10.77452H1.56664C.97788 61.90655.5 62.38443.5 62.9732s.47788 1.06677 1.06664 1.06677h61.86749c.58876 0 1.06664-.47789 1.06664-1.06664 0-.58876-.47776-1.06677-1.06652-1.06677zM2.6334 45.90633c0-1.76428 1.43577-3.20005 3.20005-3.20005 1.76427 0 3.20004 1.43577 3.20004 3.20005 0 1.76427-1.43577 3.20004-3.20004 3.20004-1.76428 0-3.20005-1.43577-3.20005-3.20004zm25.60036 6.40009c0-1.76428 1.43577-3.20005 3.20005-3.20005 1.76427 0 3.20004 1.43577 3.20004 3.20005 0 1.76427-1.43577 3.20004-3.20004 3.20004-1.76428 0-3.20005-1.43577-3.20005-3.20004zm29.86704-1.06664c0-1.17652.95677-2.1334 2.1334-2.1334 1.17665 0 2.13341.95676 2.13341 2.1334 0 1.17651-.95676 2.1334-2.1334 2.1334s-2.1334-.95689-2.1334-2.1334z"/>
    <path d="M9.0335 54.43982v4.26669c0 .58875.47788 1.06664 1.06663 1.06664.58876 0 1.06664-.47789 1.06664-1.06664v-4.26669c0-.58876-.47788-1.06664-1.06664-1.06664-.58875 0-1.06664.47788-1.06664 1.06664zm6.40008-19.20027c0-.58875-.47788-1.06664-1.06664-1.06664-.58875 0-1.06664.47789-1.06664 1.06664v2.1334c0 .58877.47789 1.06665 1.06664 1.06665.58876 0 1.06664-.47788 1.06664-1.06664v-2.1334zm0 6.40009c0-.58876-.47788-1.06664-1.06664-1.06664-.58875 0-1.06664.47788-1.06664 1.06664v2.1334c0 .58877.47789 1.06665 1.06664 1.06665.58876 0 1.06664-.47788 1.06664-1.06664v-2.1334zM9.0335 35.23955v2.1334c0 .58877.47788 1.06665 1.06663 1.06665.58876 0 1.06664-.47788 1.06664-1.06664v-2.1334c0-.58876-.47788-1.06665-1.06664-1.06665-.58875 0-1.06664.47789-1.06664 1.06664zm14.93345 6.40009c0-.58876-.47788-1.06664-1.06664-1.06664s-1.06664.47788-1.06664 1.06664v2.1334c0 .58877.47788 1.06665 1.06664 1.06665s1.06664-.47788 1.06664-1.06664v-2.1334zm4.26681-12.80018c0-.58875-.47788-1.06664-1.06664-1.06664s-1.06664.47789-1.06664 1.06664v2.1334c0 .58877.47788 1.06665 1.06664 1.06665s1.06664-.47788 1.06664-1.06664v-2.1334zm0-6.40009c0-.58875-.47788-1.06664-1.06664-1.06664s-1.06664.47789-1.06664 1.06664v2.1334c0 .58877.47788 1.06665 1.06664 1.06665s1.06664-.47788 1.06664-1.06664v-2.1334zm0 12.80018c0-.58875-.47788-1.06664-1.06664-1.06664s-1.06664.47789-1.06664 1.06664v2.1334c0 .58877.47788 1.06665 1.06664 1.06665s1.06664-.47788 1.06664-1.06664v-2.1334zM27.167 40.573c-.58876 0-1.06664.47788-1.06664 1.06664v2.1334c0 .58877.47788 1.06665 1.06664 1.06665s1.06664-.47788 1.06664-1.06664v-2.1334c.00012-.58877-.47776-1.06665-1.06664-1.06665zm1.06676-24.53371c0-.58876-.47788-1.06664-1.06664-1.06664s-1.06664.47788-1.06664 1.06664v2.1334c0 .58876.47788 1.06664 1.06664 1.06664s1.06664-.47788 1.06664-1.06664v-2.1334zm-4.26681 32.00044c0-.58876-.47788-1.06664-1.06664-1.06664s-1.06664.47788-1.06664 1.06664v2.1334c0 .58876.47788 1.06665 1.06664 1.06665s1.06664-.47789 1.06664-1.06664v-2.1334z"/>
    <path d="M14.36682 27.77282c.58876 0 1.06664-.47788 1.06664-1.06664v-7.87436l3.6768-1.8379c.36163-.18137.58988-.55038.58988-.95463V7.0984l5.33345-2.66666 5.33345 2.66666v8.94088c0 .58875.47788 1.06664 1.06664 1.06664s1.06677-.47789 1.06677-1.06664V6.43915c0-.40425-.22826-.77338-.58989-.95464l-5.8102-2.90466V1.1057c0-.58876-.47788-1.06664-1.06664-1.06664s-1.06664.47788-1.06664 1.06664v1.47415l-5.8102 2.90454c-.36164.18138-.5899.55038-.5899.95464v8.94087l-3.6768 1.8379c-.36162.18138-.58988.55038-.58988.95464v8.5335c-.00012.589.47776 1.06688 1.06652 1.06688zm9.60013 7.46673c0-.58875-.47788-1.06664-1.06664-1.06664s-1.06664.47789-1.06664 1.06664v2.1334c0 .58877.47788 1.06665 1.06664 1.06665s1.06664-.47788 1.06664-1.06664v-2.1334zm-1.06664 18.13363c-.58876 0-1.06664.47788-1.06664 1.06664v4.26669c0 .58875.47788 1.06664 1.06664 1.06664s1.06664-.47789 1.06664-1.06664v-4.26669c0-.58876-.47788-1.06664-1.06664-1.06664z"/>
    <path d="M28.23376 9.6392c0-.58876-.47788-1.06664-1.06664-1.06664s-1.06664.47788-1.06664 1.06664v2.1334c0 .58876.47788 1.06664 1.06664 1.06664s1.06664-.47788 1.06664-1.06664V9.6392zm-4.26681 19.20026c0-.58875-.47788-1.06664-1.06664-1.06664s-1.06664.47789-1.06664 1.06664v2.1334c0 .58877.47788 1.06665 1.06664 1.06665s1.06664-.47788 1.06664-1.06664v-2.1334z"/>
  </g>
</svg>
