<svg xmlns="http://www.w3.org/2000/svg" viewBox="0 0 512 512"><path d="M456.828 441.379H349.196c27.42-10.952 48.388-26.532 64.374-45.4 65.231-9.903 94.458-63.846 94.458-113.496 0-35.246-19.627-64.674-45.028-69.82l.007-.8c0-4.414-1.766-8.828-5.297-12.359-3.531-3.531-7.945-5.297-12.359-5.297H39.283c-4.414 0-8.828 1.766-12.359 5.297-3.531 3.531-5.297 7.945-5.297 12.359.683 94.94 17.221 190.936 113.811 229.517H26.924c-12.359 0-22.952 9.71-22.952 22.952 0 10.593 7.062 18.538 19.421 21.186l112.11 7.945c2.648 0 5.297 1.766 6.179 4.414 4.414 8.828 13.241 14.124 22.952 14.124h146.538c9.71 0 18.538-5.297 22.069-14.124.883-2.648 3.531-4.414 6.179-4.414l120.055-7.945h.883c12.359-2.648 19.421-10.593 19.421-21.186 0-12.36-9.71-22.953-22.951-22.953zm6.179-210.096c15.007 5.297 26.483 26.483 26.483 51.2 0 34.4-15.867 75.85-59.925 90.887a172.4 172.4 0 0 0 2.167-3.789c24.517-42.527 29.561-93.739 31.275-138.298zM39.283 211.862h406.069c-.883 119.172-26.483 229.517-203.034 229.517S40.166 331.034 39.283 211.862zm419.31 256l-118.29 7.945c-8.828.883-16.772 6.179-21.186 14.124-1.766 2.648-4.414 4.414-7.062 4.414h-147.42c-2.648 0-5.297-1.766-7.062-4.414-4.414-7.945-12.359-13.241-21.186-14.124l-110.345-7.945c-4.414-.883-4.414-2.648-4.414-3.531 0-2.648 2.648-5.297 5.297-5.297H457.71c2.648 0 5.297 2.648 5.297 5.297 0 .883 0 2.648-4.414 3.531zM236.138 73.269c-13.241 13.241-20.303 26.483-20.303 40.607s7.062 28.248 20.303 42.372c1.766 1.766 3.531 2.648 6.179 2.648s4.414-.883 6.179-2.648c3.531-3.531 3.531-8.828 0-12.359-9.71-10.593-15.007-20.303-15.007-30.014s5.297-19.421 15.007-28.248C261.738 73.269 268.8 59.145 268.8 45.021s-6.179-29.131-20.303-42.372c-3.531-3.531-8.828-3.531-12.359 0-3.531 3.531-3.531 8.828 0 12.359 9.71 10.593 15.007 20.303 15.007 30.014s-5.297 19.419-15.007 28.247zm76.8 40.607c0 14.124 7.062 28.248 20.303 42.372 1.766 1.766 3.531 2.648 6.179 2.648 1.766 0 4.414-.883 5.297-2.648 3.531-3.531 3.531-8.828 0-12.359-9.71-10.593-15.007-20.303-15.007-30.014s5.297-19.421 15.007-28.248c14.124-12.359 21.186-26.483 21.186-40.607 0-15.007-6.179-29.131-20.303-42.372-3.531-3.531-8.828-3.531-12.359 0-3.531 3.531-3.531 8.828 0 12.359 9.71 10.593 15.007 20.303 15.007 30.014s-5.297 18.538-15.007 28.248C320 86.51 312.938 99.752 312.938 113.876zm-185.379 0c0 14.124 7.062 28.248 20.303 42.372 1.766 1.766 3.531 2.648 6.179 2.648 1.766 0 4.414-.883 5.297-2.648 3.531-3.531 3.531-8.828 0-12.359-9.71-10.593-15.007-20.303-15.007-30.014s5.297-19.421 15.007-28.248c14.124-12.359 21.186-26.483 21.186-40.607 0-15.007-6.179-29.131-20.303-42.372-3.531-3.531-8.828-3.531-12.359 0-3.531 3.531-3.531 8.828 0 12.359 9.71 10.593 15.007 20.303 15.007 30.014s-5.297 18.538-15.007 28.248c-13.241 13.241-20.303 26.483-20.303 40.607z"/><path d="M191.117 397.241c-62.676-10.593-94.455-45.903-107.697-116.524-.883-4.414-6.179-7.945-10.593-7.062s-7.945 6.179-7.062 10.593c14.124 78.565 52.083 118.29 121.821 130.648h1.766c4.414 0 7.945-2.648 8.828-7.062.882-5.296-2.649-9.71-7.063-10.593z"/></svg>