<svg viewBox="0 0 35 35" xmlns="http://www.w3.org/2000/svg">
  <path d="M29.87434 5.12566C26.56904 1.82036 22.17441 0 17.5 0S8.43096 1.82036 5.12566 5.12566C1.82036 8.43096 0 12.82559 0 17.5c0 3.3569.94659 6.5979 2.74263 9.40836L.06813 34.9318l8.02358-2.67443C10.90203 34.05341 14.14303 35 17.5 35c4.67441 0 9.06904-1.82036 12.37434-5.12559C33.17964 26.56904 35 22.17441 35 17.5c0-4.67441-1.82036-9.06904-5.12566-12.37434zM17.5 33c-3.13472 0-6.15456-.93146-8.73317-2.69357l-.4483-.30635L3.3405 31.6594l1.65934-4.97787-.30628-.4483C2.93146 23.65457 2 20.63465 2 17.5 2 8.95326 8.95326 2 17.5 2S33 8.95326 33 17.5 26.04674 33 17.5 33z" />
</svg>
