<svg viewBox="0 0 50 50" xmlns="http://www.w3.org/2000/svg">
  <path d="M49.00293 23.0746c-3.21611-1.15497-5.19424-4.42791-4.9457-7.01238 0-.4249-.2546-.81972-.57647-1.09862-.32187-.27754-.8211-.39766-1.23887-.33047-4.90097.71904-9.38867-2.8664-9.8333-7.90642a1.46271 1.46271 0 0 0-.6752-1.10869c-.38476-.24316-.86405-.2961-1.28886-.1373C26.47197 6.9355 22.71836 4.30504 21.22061.8775c-.28038-.64092-.97559-.99423-1.66084-.84257C8.2831 2.55124 0 13.443 0 25.00008 0 38.73148 11.26855 50 25 50s25-11.26852 25-24.99992c-.04072-.87245-.04678-1.58505-.99707-1.92548zm-38.72461 3.50058c-.80898 0-1.46484-.65586-1.46484-1.46484 0-.80918.65586-1.46484 1.46484-1.46484.80898 0 1.46484.65566 1.46484 1.46484 0 .80898-.65595 1.46484-1.46484 1.46484zm5.93262 11.60845c-2.42324 0-4.39453-1.97128-4.39453-4.39451 0-2.42324 1.97129-4.39452 4.39453-4.39452s4.39453 1.97128 4.39453 4.39452c0 2.42323-1.9712 4.39451-4.39453 4.39451zm1.46484-17.57806c-1.61504 0-2.92969-1.31465-2.92969-2.92968 0-1.61503 1.31465-2.92968 2.9297-2.92968 1.61503 0 2.92968 1.31465 2.92968 2.92968 0 1.61503-1.31465 2.92968-2.92969 2.92968zM29.39453 41.1133c-1.61504 0-2.92969-1.31464-2.92969-2.92968 0-1.61503 1.31465-2.92967 2.9297-2.92967 1.61503 0 2.92968 1.31464 2.92968 2.92967 0 1.61504-1.31465 2.92968-2.92969 2.92968zm1.46485-11.7187c-2.42325 0-4.39454-1.9713-4.39454-4.39453 0-2.42323 1.9713-4.39451 4.39454-4.39451s4.39453 1.97128 4.39453 4.39451c0 2.42324-1.9712 4.39452-4.39453 4.39452zm8.71582 3.03992c-.80899 0-1.46485-.65585-1.46485-1.46484 0-.80917.65586-1.46484 1.46485-1.46484.80898 0 1.46484.65567 1.46484 1.46484 0 .80899-.65596 1.46484-1.46484 1.46484z" fill="#FFF"/>
</svg>
