<svg viewBox="0 0 36 36" xmlns="http://www.w3.org/2000/svg">
  <path d="M18 36C8.07 36 0 27.93 0 18S8.07 0 18 0s18 8.07 18 18-8.07 18-18 18zm0-34.9C8.68 1.1 1.1 8.67 1.1 18c0 9.32 7.58 16.9 16.9 16.9 9.32 0 16.9-7.58 16.9-16.9 0-9.32-7.58-16.9-16.9-16.9zM18 36c-3.75 0-7.35-1.15-10.42-3.34a.54.54 0 1 1 .13-.96c4.52-1.67 5.25-3.03 5.25-5.63 0-.7-.15-.92-.43-1.33a7.19 7.19 0 0 1-1.23-3.2c-.06-.28-.1-.3-.35-.42-.66-.32-1.27-.78-1.43-2.87 0-1.01.35-1.57.64-1.86-.06-.36-.17-.98-.26-1.66-.5-3.03-.52-6.74 3.74-8.46 3.72-1.5 6.68-.69 7.61.3.66.01 2.36.19 3.54 1.56 1.82 2.12 1.24 6.94 1.04 8.25.3.29.65.84.65 1.83-.16 2.13-.77 2.59-1.43 2.9-.25.13-.3.15-.35.43a7.19 7.19 0 0 1-1.23 3.2c-.28.41-.43.64-.43 1.33 0 2.6.73 3.96 5.25 5.64a.54.54 0 0 1 .13.95A17.87 17.87 0 0 1 18 36zm-8.93-3.65a16.76 16.76 0 0 0 17.86 0c-3.8-1.56-4.98-3.13-4.98-6.28 0-1.03.3-1.47.62-1.94.33-.49.75-1.09 1.06-2.8.15-.81.63-1.04.94-1.2.34-.16.7-.32.82-1.96 0-.83-.38-1.06-.4-1.07a.58.58 0 0 1-.28-.59c.27-1.45.71-5.97-.74-7.67a3.82 3.82 0 0 0-2.87-1.17l-.15-.02c-.14-.04-.38-.16-.45-.29-.3-.5-2.88-1.53-6.45-.08-3.52 1.42-3.53 4.48-3.07 7.28.15 1.05.31 1.95.31 1.96a.55.55 0 0 1-.3.59s-.38.23-.38 1.1c.13 1.6.48 1.76.82 1.92.31.16.79.38.94 1.2.31 1.7.73 2.31 1.06 2.8.32.47.62.91.62 1.94 0 3.15-1.19 4.72-4.98 6.28z" fill-rule="nonzero"/>
</svg>
