<svg viewBox="0 0 512 512" xmlns="http://www.w3.org/2000/svg">
  <path d="M297.28 508.67zm0 0M302.4 507.8l-3.06.53 3.06-.54zm0 0M285.14 510.34zm0 0M290.05 509.74zm0 0M309.37 506.41zm0 0M326.66 502.11c-.72.21-1.45.4-2.18.6.73-.2 1.46-.39 2.18-.6zm0 0M321.43 503.54l-2.37.62c.8-.2 1.58-.4 2.37-.62zm0 0M314.59 505.25l-2.52.57 2.52-.57zm0 0M277.53 511.09zm0 0M512 256C512 114.64 397.36 0 256 0S0 114.64 0 256s114.64 256 256 256c1.5 0 3-.03 4.5-.06V312.66h-55v-64.1h55v-47.17c0-54.7 33.4-84.48 82.2-84.48 23.36 0 43.44 1.75 49.3 2.52v57.18h-33.65c-26.55 0-31.69 12.61-31.69 31.12v40.83h63.48l-8.27 64.1h-55.2V502.1C433.66 471.43 512 372.85 512 256zm0 0M272.91 511.43zm0 0M264.75 511.84zm0 0"/>
</svg>
