<svg viewBox="0 0 53 60" xmlns="http://www.w3.org/2000/svg">
  <g fill="#FFF">
    <path d="M.64748.51814L6.22586 4.6937l5.61001 13.07988h4.5113l1.7714-3.83862h-1.15735c-2.117 0-3.83862-1.70327-3.83862-3.82028V6.25773h-1.91931V.5h5.75793v5.75773h-1.91931v3.85696c0 1.0576.8607 1.90097 1.91931 1.90097h2.04305l2.45294-5.30672-2.93841-1.46447 9.62134-4.12075 2.2619 7.91604c.06146-4.7098 3.90673-8.52243 8.63105-8.52243 4.7626 0 8.6367 3.87409 8.6367 8.6367 0 2.87796-1.45762 5.57736-3.83862 7.17323v1.44613h2.32417l.14973.78695c.46632 2.4193.50965 4.9057.12857 7.38544l6.5467 11.66922-7.22986 1.65149v12.09423h-9.59636v8.6367H13.1228v-13.3725C6.40541 41.87279 2.5688 34.23222 2.57445 26.081l-.00201-3.50067c0-1.31957.12192-2.67542.36757-4.01132l.14208-.79562h1.88384L.64748 7.42757V.51814zm14.39463 3.83862V2.43745H13.1228v1.9193h1.91931zm3.41905 13.41663h3.63992l1.74459-3.83862h-3.61312l-1.77139 3.83862zm8.43336-14.02503L23.07988 5.3827l.9002.44134-2.86163 6.19161h3.59961l2.33869-5.133.85889.43367-1.02112-3.56797zm-2.6851 14.02523h4.26746v-1.90097c0-1.0584-.8607-1.93745-1.9193-1.93745H25.954v-.0002l-1.7446 3.83862zm3.76849-8.27516l-1.164 2.56137c1.9961.13441 3.58228 1.78308 3.58228 3.81262v1.90097h3.83862v-1.44613c-1.92031-1.28693-3.22337-3.29531-3.66289-5.53223l-2.59401-1.2966zm17.77236-.3434c0-3.7032-3.01418-6.71738-6.71738-6.71738-3.7032 0-6.71739 3.01419-6.71739 6.71739 0 2.38382 1.28774 4.61106 3.3596 5.81153l.47882.2763v2.53052h1.91931v-5.91713c-1.11422-.3972-1.9193-1.45299-1.9193-2.70243 0-1.5872 1.29176-2.87897 2.87896-2.87897 1.5872 0 2.87897 1.29197 2.87897 2.87917 0 1.24944-.8051 2.30502-1.91932 2.70243v5.91713h1.91932v-2.53073l.47882-.2773c2.07186-1.20047 3.3596-3.4269 3.3596-5.81052zm-6.71738.95966c.5298 0 .95965-.43106.95965-.95965 0-.52981-.42985-.95966-.95965-.95966s-.95966.42985-.95966.95966c0 .5298.42985.95965.95966.95965zM4.6973 19.6929c-.13925.95946-.20938 1.93262-.20938 2.87877l-.00202 3.50752c-.00584 7.68772 3.78764 14.88675 10.13382 19.25598l.42219.28798V58.0783h19.1927v-8.6367h9.59656V37.7359l6.21942-1.41932-5.61767-10.01573.0546-.34259c.3569-2.09967.37706-4.34626.06712-6.26537H4.6973zm2.34815-1.9195H9.7487L4.96492 6.62046 2.83744 7.67988 7.04545 17.7734zM2.5668 5.68197l1.06143-.53061-1.06143-.79461v1.32522z"/>
    <path d="M37.11358 25.45064c1.5872 0 2.87896-.95966 2.87896-2.87897h1.91932c0 2.87897-2.15248 4.79828-4.79828 4.79828s-4.79828-1.91931-4.79828-4.79828h1.91931c.0002 1.91931 1.29177 2.87897 2.87897 2.87897z"/>
  </g>
</svg>
