<svg viewBox="0 0 30 34" xmlns="http://www.w3.org/2000/svg">
  <g fill-rule="nonzero">
    <path d="M23.5 32c.1 0 .3 0 .4-.2l3-3.5.1-.4V4.6c0-.3-.2-.6-.5-.6h-3c-.3 0-.5.3-.5.6s.2.6.5.6H26v22.5L23.1 31c-.1.2-.1.6 0 .8l.4.2z"/>
    <path d="M6.2 5.2c.3 0 .6-.3.6-.6S6.5 4 6.2 4H2.6c-.3 0-.6.3-.6.6v25C2 31 3 32 4.4 32h17.4c.3 0 .6-.3.6-.6V28c0-.2.3-.6.6-.6h2.4c.3 0 .6-.2.6-.5 0-.4-.3-.6-.6-.6H23c-1 0-1.8.8-1.8 1.7v3H4.4c-.7 0-1.2-.6-1.2-1.2V5.2h3z"/>
    <path d="M27.1 2h-3.4c-.4 0-.6.3-.6.6s.2.5.6.5H27c.9 0 1.7 1 1.7 1.8V31c0 .9-.8 1.8-1.7 1.8H3c-.9 0-1.7-1-1.7-1.8V5C1.2 4 2 3 2.9 3h3.4c.4 0 .6-.2.6-.5S6.7 2 6.3 2H3A3 3 0 0 0 0 4.9V31A3 3 0 0 0 2.9 34H27a3 3 0 0 0 2.9-2.9V5A3 3 0 0 0 27.1 2z"/>
    <path d="M5 19c0 .3.2.5.6.5h2.2c.2 0 .4-.1.5-.3l1.7-5 4 11.4c0 .2.2.4.4.4.3 0 .5-.1.6-.3l3.4-8.6 1.1 2.1c.1.2.3.3.5.3h1.8c.2.7.8 1.1 1.5 1.1 1 0 1.7-.7 1.7-1.6 0-.9-.7-1.6-1.7-1.6-.7 0-1.3.4-1.5 1h-1.5l-1.5-2.9a.6.6 0 0 0-.5-.3c-.2 0-.4.2-.5.4l-3.3 8.3-4-11.5c0-.3-.3-.4-.5-.4s-.5.1-.5.4l-2.1 6H5.6c-.4 0-.6.3-.6.6zm18.5 0a.5.5 0 1 1 0 1 .5.5 0 0 1 0-1zM8.6 6h12.8c.3 0 .6-.2.6-.5v-3c0-.3-.3-.5-.6-.5h-3.1C17.8.8 16.5 0 15 0c-1.5 0-2.8.8-3.3 2H8.6c-.3 0-.6.2-.6.5v3c0 .3.3.5.6.5zM9 3h3c.3 0 .6-.2.6-.4C13 1.6 14 1 15 1c1.1 0 2.1.7 2.4 1.6 0 .2.3.4.5.4H21v2H9V3z"/>
    <path d="M15 2a1 1 0 1 0 0 2 1 1 0 0 0 0-2z"/>
  </g>
</svg>
