<svg viewBox="0 0 37 47" xmlns="http://www.w3.org/2000/svg">
  <path d="M18.49923 0C8.29925 0 0 7.76247 0 17.30369c0 2.48872.5446 4.86489 1.61789 7.06308 4.62532 9.46667 13.49334 19.46148 16.1017 22.29893.19543.21212.48033.3343.78015.3343.29982 0 .58473-.12218.78015-.3343 2.60733-2.83697 11.47536-12.8313 16.10222-22.29893C36.45591 22.16857 37 19.79241 37 17.3037 36.99897 7.76247 28.69972 0 18.49923 0zm0 26.29127c-5.2985 0-9.6096-4.03226-9.6096-8.98806 0-4.95628 4.3111-8.98855 9.6096-8.98855 5.2985 0 9.6096 4.03227 9.6096 8.98855.00051 4.9558-4.31059 8.98806-9.6096 8.98806z" />
</svg>
