<svg xmlns="http://www.w3.org/2000/svg" viewBox="0 0 508.52 508.52">
  <path d="M254.26 0C113.85 0 0 113.84 0 254.26s113.84 254.26 254.26 254.26 254.26-113.84 254.26-254.26C508.52 113.81 394.68 0 254.26 0zm19.83 323c-18.6-1.43-26.38-10.64-40.93-19.5-8.01 42-17.8 82.3-46.79 103.32-8.96-63.47 13.13-111.15 23.4-161.78-17.49-29.46 2.1-88.67 38.96-74.08 45.35 17.95-39.32 109.42 17.54 120.87 59.34 11.92 83.6-103.01 46.79-140.39-53.2-53.96-154.78-1.24-142.3 76.03 3.06 18.88 22.54 24.6 7.8 50.7-34.05-7.51-44.22-34.4-42.91-70.19 2.1-58.57 52.63-99.57 103.32-105.26 64.1-7.18 124.24 23.52 132.54 83.81 9.37 68.05-28.93 141.78-97.42 136.47z"/>
</svg>
