<svg viewBox="0 0 75 75" xmlns="http://www.w3.org/2000/svg">
  <g fill-rule="nonzero">
    <path d="M74.08111 47.80934c-.09232-1.65574-.9089-3.17212-2.24079-4.16018-2.15483-1.59901-5.14505-1.43231-7.10916.39678L52.78431 55.17203c.07278-2.44787-1.53621-4.60834-3.94602-5.21973l-14.5905-3.7032c-2.55871-.64958-5.23782-.56189-7.74877.25339l-10.0865 3.27472v-2.90239c0-.79907-.648-1.44692-1.44693-1.44692H1.44692C.64785 45.4279 0 46.0759 0 46.87482v25.77476c0 .79907.648 1.44693 1.44692 1.44693h13.51881c.79908 0 1.44693-.648 1.44693-1.44693V52.81996l10.98007-3.56486c1.99073-.64655 4.11503-.71572 6.14324-.20114l14.59065 3.7032c1.1332.28767 1.8715 1.34085 1.7553 2.50458-.1201 1.2031-1.12264 2.11055-2.3318 2.11055h-10.1703c-.79907 0-1.44692.648-1.44692 1.44693 0 .79907.648 1.44692 1.44692 1.44692h3.11728c.0544.00622.10954.01013.16569.01013h7.17587c2.39345 0 4.6762-.89848 6.42802-2.52962l12.43713-11.58292c.94276-.87808 2.37811-.95796 3.41277-.19043.63931.4742 1.03118 1.20208 1.07546 1.99695.04442.79488-.26453 1.56168-.84712 2.10418l-17.1333 15.9496c-1.18182 1.10006-2.72208 1.70595-4.33657 1.70595h-22.4232c-.79908 0-1.44693.648-1.44693 1.44692 0 .79908.648 1.44693 1.44692 1.44693h22.4235c2.3486 0 4.58894-.88141 6.30835-2.48172l17.13287-15.9496c1.21365-1.12987 1.85687-2.72744 1.76455-4.38317zm-60.5623 23.39332H2.89385V48.32189h10.62481v22.88077h.00015z"/>
    <path d="M21.63629 68.15397c-.2706-.2693-.6425-.42399-1.02294-.42399-.38217 0-.75392.1547-1.02438.424-.26915.26915-.42399.64249-.42399 1.02292 0 .38044.1547.75393.424 1.0228.2706.26915.64235.42413 1.02437.42413.38058 0 .75248-.15484 1.02294-.42414.269-.269.42399-.64235.42399-1.02279 0-.38043-.15484-.75377-.424-1.02293zM9.22883 66.6593c-.26785-.26916-.6412-.424-1.02163-.424-.38203 0-.75537.1534-1.02438.424-.26901.26915-.42255.64119-.42255 1.02293 0 .38058.15354.75392.42255 1.02293.2706.26901.6425.424 1.02438.424.38058 0 .75247-.15484 1.02163-.424.27046-.26915.4253-.6425.4253-1.02293 0-.38203-.15484-.75378-.4253-1.02294zM37.04208.0125c-7.18065 0-13.02261 5.84196-13.02261 13.0226 0 2.3936 1.94732 4.34093 4.34091 4.34093 2.3936 0 4.34092-1.94732 4.34092-4.34092 0-2.3936 1.94732-4.34092 4.34092-4.34092 2.3936 0 4.34092 1.94732 4.34092 4.34092 0 2.3936-1.94732 4.34092-4.34092 4.34092-2.3936 0-4.34092 1.94732-4.34092 4.34091v6.22197c0 2.3936 1.94732 4.34092 4.34092 4.34092 2.3936 0 4.34092-1.94732 4.34092-4.34092v-2.6244c5.16459-1.82302 8.68169-6.72106 8.68169-12.2794C50.06468 5.8543 44.22273.0125 37.04208.0125zm2.53208 22.83099c-.63888.16496-1.08502.74133-1.08502 1.4009v3.69423c0 .79791-.64915 1.44692-1.44692 1.44692-.79791 0-1.44692-.64915-1.44692-1.44692v-6.22196c0-.79792.64915-1.44693 1.44692-1.44693 3.98928 0 7.23477-3.24549 7.23477-7.23477S41.0315 5.8002 37.04222 5.8002s-7.23477 3.24548-7.23477 7.23476c0 .79792-.64915 1.44693-1.44692 1.44693-.79792 0-1.44693-.64916-1.44693-1.44693 0-5.58496 4.54366-10.12876 10.12876-10.12876 5.58511 0 10.12876 4.5438 10.12876 10.12876-.00028 4.61977-3.12422 8.65319-7.59696 9.80853zM40.11261 36.89916c-.80688-.8092-1.92605-1.27313-3.07053-1.27313-1.14435 0-2.26366.46407-3.0678 1.27038-.80905.80689-1.27298 1.92605-1.27298 3.0704 0 1.14433.46408 2.26364 1.27154 3.06908.80833.80833 1.92692 1.27168 3.06924 1.27168 1.14246 0 2.26119-.46364 3.06908-1.27168.80834-.80833 1.27169-1.92692 1.27169-3.06909.00014-1.14217-.46335-2.2609-1.27024-3.06764zm-2.04804 4.09057c-.26539.26554-.64785.42414-1.0225.42414-.37479 0-.7574-.1586-1.02423-.42544-.26467-.26394-.42269-.64597-.42269-1.02148 0-.3813.15397-.75364.4253-1.0241.26408-.26466.64611-.42283 1.02163-.42283.37565 0 .7574.15802 1.02264.42428.26568.2654.42428.64786.42428 1.02265 0 .37479-.1586.7571-.42443 1.02278zM8.20647 51.30676c-.79907 0-1.44692.648-1.44692 1.44692v9.18846c0 .79907.64785 1.44692 1.44692 1.44692.79908 0 1.44693-.648 1.44693-1.44692v-9.18846c0-.79892-.648-1.44692-1.44693-1.44692z"/>
  </g>
</svg>
