<svg viewBox="0 0 40 33" xmlns="http://www.w3.org/2000/svg">
  <g>
    <path d="M38.16156 31.80954H37.495V14.15087C39.00016 13.167 40 11.4514 40 9.5019a.60298.60298 0 0 0-.07719-.2953L35.27336.94101C34.9468.36062 34.33516 0 33.6771 0H6.32289C5.66484 0 5.0532.36055 4.72664.94102L.0772 9.20659A.6032.6032 0 0 0 0 9.5019c0 1.9495.99984 3.6651 2.505 4.64897v17.65867h-.66656c-.3236 0-.58594.2665-.58594.59523S1.51484 33 1.83844 33h36.32312c.32367 0 .58594-.2665.58594-.59523 0-.32872-.26234-.59523-.58594-.59523zm-36.9493-21.7124H3.0907c.3236 0 .58594-.26651.58594-.59524 0-.32872-.26234-.59522-.58594-.59522H1.59563l4.14851-7.37504c.11844-.21047.34016-.34118.57875-.34118h27.35422c.2386 0 .46039.1307.57875.34118l4.14844 7.37504h-1.4954c-.32367 0-.58593.2665-.58593.59522 0 .32873.26226.59523.58594.59523h1.87875c-.28649 2.1098-2.07282 3.74002-4.2272 3.74002-2.15429 0-3.93976-1.63037-4.22632-3.74002h4.07c.32367 0 .58594-.2665.58594-.59523 0-.32872-.26227-.59522-.58594-.59522H5.59617c-.3236 0-.58594.2665-.58594.59522 0 .32873.26235.59523.58594.59523h4.06961c-.28656 2.10965-2.0721 3.74002-4.22633 3.74002-2.15437 0-3.9407-1.63021-4.22718-3.74002zm27.86758 0c-.28656 2.10964-2.0721 3.74-4.22632 3.74-2.1543 0-3.93977-1.63036-4.22633-3.74h8.45265zm-9.70703 0c-.28656 2.10964-2.0721 3.74-4.22633 3.74-2.15421 0-3.93976-1.63036-4.22632-3.74h8.45265zm13.8189 21.71248h-6.3432V29.8191h6.3432v1.99052zm0-3.18098h-6.3432v-10.8972h6.3432v10.8972zm3.13141 3.18098h-1.95945v-14.6734c0-.32873-.26226-.59523-.58594-.59523h-7.51507c-.32368 0-.58594.2665-.58594.59523v14.67332l-21.99985.00008V14.72816c.5532.1931 1.1457.29944 1.76258.29944 2.1168 0 3.955-1.23458 4.85352-3.03225.89851 1.7976 2.73672 3.03225 4.85351 3.03225 2.1168 0 3.955-1.23458 4.85352-3.03225.89852 1.7976 2.73672 3.03225 4.85352 3.03225 2.1168 0 3.955-1.23458 4.85351-3.03225.89852 1.7976 2.73672 3.03225 4.85352 3.03225.61687 0 1.20937-.10634 1.76257-.29936v17.08138z"/>
    <path d="M23.41669 17H6.5833C6.26117 17 6 17.26092 6 17.58276v11.83448c0 .32184.26117.58276.58331.58276H23.4167C23.7389 30 24 29.73908 24 29.41724V17.58276C24 17.26084 23.7389 17 23.41669 17zm-.58332 11.83448H7.16663V18.16552h15.66674v10.66896z"/>
  </g>
</svg>
