<svg viewBox="0 0 47 73" xmlns="http://www.w3.org/2000/svg">
  <g fill-rule="nonzero">
    <path d="M22.9591 8.50348c-.09799-.92487-.38186-1.82059-.83453-2.63392-.46832-.83617-1.11588-1.55908-1.89667-2.11721-1.65643-1.18464-4.05256-1.80216-7.22633-1.45559C9.20822 2.71264 5.23785.4757 4.78265.21736c-.49756-.36532-1.19822-.2593-1.5646.2366a1.1126 1.1126 0 0 0-.21195.7779c.66384 6.49656 2.21279 10.89483 4.15372 13.67997 1.09627 1.70496 2.71793 3.00963 4.62156 3.71773 1.62402.54521 3.3911.48693 4.9756-.16383a8.48934 8.48934 0 0 0 1.34664-.66793 9.1871 9.1871 0 0 0-.26553-.43479 7.27473 7.27473 0 0 0-1.12536-1.32326 6.1707 6.1707 0 0 1-.75867.36547c-1.09248.45086-2.31157.49339-3.43298.11973-1.44337-.56144-2.66704-1.57122-3.48988-2.87967-1.54263-2.21173-2.8134-5.6333-3.51517-10.59237 1.85874.80025 4.80491 1.76434 7.7005 1.44298 2.57315-.28355 4.42557.16383 5.69002 1.046.52.36737.95197.84516 1.26445 1.39888a4.68985 4.68985 0 0 1 .56268 1.78955 6.09606 6.09606 0 0 1-.0822 1.80215 13.3699 13.3699 0 0 1 1.83978 1.75175 8.7306 8.7306 0 0 0 .46785-3.78074z"/>
    <path d="M34.52582 11.4181c-.50922-.36812-1.21748-.24935-1.58178.2652a1.24568 1.24568 0 0 0-.0261.03851c-.80707 1.19093-2.01766 1.86406-3.26029 2.55014-1.92158 1.07442-3.93924 2.1812-5.2267 4.96435-1.53085-5.68926-4.73349-7.47565-7.83364-9.18437-1.72302-.95145-3.4012-1.88348-4.54134-3.57278-.3643-.51456-1.0724-.63332-1.58178-.2652-.49464.3576-.62195 1.04578-.28855 1.55969 1.44759 2.14237 3.35636 3.20385 5.32277 4.29121 3.25388 1.79286 6.6743 3.68928 7.39169 11.90279h1.32589c.33307 0 1.17857 0 1.28105.03236.68536-5.17794 3.01048-6.47242 5.2267-7.6763 1.49883-.85435 2.94642-1.65693 4.05454-3.3074.3643-.5144.24676-1.23009-.26246-1.5982zM23.51552 26C10.53676 25.99139.00847 36.50573 0 49.48449c-.00408 6.23114 2.46662 12.20865 6.86895 16.6185C11.26862 70.52193 17.2488 73.00423 23.48448 73 36.46324 73.00862 46.99138 62.49412 47 49.51552 47.00846 36.53676 36.49412 26.00847 23.51552 26zm11.4995 5.6242c4.0241 2.59688 7.05675 6.473 8.60873 11.00387a31.52053 31.52053 0 0 0-4.53322-3.1977c-3.06603-1.881-5.33577-3.28549-4.0755-7.80617zM6.59936 62.45384c-2.85395-3.712-4.39747-8.26528-4.38901-12.94757-.01348-5.643 2.22272-11.05857 6.21358-15.04802 1.02201 2.80896 3.02841 4.53321 4.86553 6.10699 1.67409 1.43583 3.17262 2.72745 3.20397 4.52694 0 1.2979-.77748 2.28229-1.66782 3.37327a11.32447 11.32447 0 0 0-2.62714 4.74013 14.14105 14.14105 0 0 0-.11286 3.4485c.06897 1.84965.15676 4.00027-.42636 5.34832-.52668 1.254-1.881 1.7556-5.0599.45144zm16.88513 8.32657v-.00627a21.50958 21.50958 0 0 1-2.59578-.15675c-.66243-1.48583-.17227-3.23266 1.16622-4.15702.97812-.71478 3.67422.08779 6.51454.93424 1.46718.4389 2.96571.88407 4.389 1.15995a21.18775 21.18775 0 0 1-9.47398 2.22585zm12.72812-4.23225c-1.77441.30723-4.45798-.49534-7.03495-1.254-3.37953-1.00948-6.58978-1.96252-8.45824-.59566-1.80498 1.19366-2.69736 3.36888-2.25094 5.48626a21.21879 21.21879 0 0 1-9.04135-4.71505c1.85984.25645 3.64554-.8234 4.28242-2.58951.7712-1.79322.67716-4.21972.627-6.30136a13.46683 13.46683 0 0 1 .05016-2.85285 9.52411 9.52411 0 0 1 2.18823-3.84352c1.15995-1.41702 2.20077-2.6961 2.16315-4.80283-.05016-2.80896-1.881-4.389-3.97518-6.18223-1.79322-1.54242-3.762-3.24786-4.48306-6.05055 3.75213-2.98876 8.40761-4.61583 13.20464-4.61473a21.18732 21.18732 0 0 1 9.54923 2.2572c-2.12554 6.51454.84645 8.34538 4.8718 10.84085 2.16315 1.33551 4.68996 2.8842 6.68382 5.68063a21.45526 21.45526 0 0 1 .14421 2.508c-.00642 6.69998-3.16228 13.0073-8.52094 17.02935z"/>
    <path d="M38.01658 7.00563c-.23058-.02405-.4624.02937-.662.15267 0 0-3.01487 1.87853-5.82011 1.55576-2.36134-.27113-4.16162.21302-5.4132 1.15552-.6005.44639-1.09943 1.02609-1.46118 1.69777-.33817.65345-.54795 1.37114-.61654 2.11093-.08046.71703-.04932 1.4431.09248 2.14965.61685-.69686 1.3126-1.31255 2.07156-1.83334v-.06455c.04224-.43703.16801-.86083.36993-1.2459.207-.3786.49122-.70477.83232-.9554.83232-.64554 2.12089-.9425 3.90268-.73592 1.79134.13072 3.587-.1835 5.24056-.91667-.51173 3.43429-1.38104 5.80988-2.423 7.39146-.55934.94265-1.39383 1.67147-2.37982 2.07865-.57631.20544-1.19655.23465-1.78796.08392-.56952.55032-1.07632 1.16762-1.51051 1.8398l.23428.10328c1.20764.52047 2.55431.56647 3.7917.12911 1.43021-.55985 2.64818-1.59062 3.4711-2.93722 1.4242-2.14965 2.55863-5.5323 3.0457-10.50943.05964-.62795-.37825-1.18764-.97799-1.2501z"/>
  </g>
</svg>
