<svg viewBox="0 0 57 75" xmlns="http://www.w3.org/2000/svg">
  <g >
    <path d="M22.1766 66C21.52837 66 21 65.55208 21 65s.52591-1 1.1766-1h13.64927C36.4741 64 37 64.44792 37 65s-.52591 1-1.17413 1H22.1766zm1.00076 4C22.52736 70 22 69.55208 22 69s.52983-1 1.17736-1h10.64528c.65 0 1.17736.44792 1.17736 1s-.52736 1-1.17736 1H23.17736zM28 53.84658C28 54.48371 27.42975 55 26.72627 55s-1.27373-.51648-1.27373-1.15342c-.00537-4.87686-.1599-8.52056-.90338-11.89414-.73542-3.33482-2.05194-6.42601-4.38885-10.23875-.3411-.55738-.1199-1.25965.49303-1.56853.61563-.30887 1.39105-.10857 1.73483.44647 2.4809 4.04917 3.88527 7.34553 4.66865 10.90967.77532 3.51828.9379 7.29714.94318 12.34528zm4.54807.00007c0 .6371-.5705 1.15335-1.27404 1.15335S30 54.48355 30 53.84665c.00548-5.04802.1679-8.82412.9435-12.34453.78368-3.56392 2.1884-6.85989 4.66988-10.909.34128-.55735 1.11947-.75764 1.73265-.44644.61577.30886.83413 1.01343.49316 1.56843-2.33757 3.81241-3.6543 6.90594-4.39 10.23813-.74118 3.37337-.89833 7.01694-.90112 11.89341z"/>
    <path d="M20.84607 32.23309c-.64084-.19117-.9918-.83612-.7883-1.43825.20595-.60204.89-.93174 1.53093-.74057.84936.25807 1.5843.60445 2.26322.9246l.06608.03345c1.06035.50169 1.94285.89347 2.59888.39179l1.50036-1.14913c.5213-.39651 1.28947-.32247 1.71144.16726.42216.48973.34326 1.21121-.17804 1.60782l-1.50036 1.14913c-1.86906 1.4286-3.39743.73344-5.23848-.1338l-.05593-.02392c-.59508-.28197-1.24105-.58536-1.9098-.78838zM29 5.8085C29 6.4663 28.5521 7 27.99996 7 27.4479 7 27 6.4663 27 5.8085v-4.617C27 .5337 27.4479 0 27.99996 0 28.55218 0 29 .5337 29 1.1915v4.617z"/>
    <path d="M35.4109 30.05507c.64063-.19327 1.327.13848 1.53043.7398.20588.6014-.14742 1.24574-.78804 1.4367-.66844.20282-1.31419.50829-1.91173.78997l-.0558.02388c-1.83807.86623-3.3683 1.56316-5.23674.13357l-1.49985-1.14782c-.52112-.39618-.5999-1.1169-.17798-1.60611.42202-.48921 1.18975-.56317 1.71096-.16708l1.49986 1.1479c.65591.50116 1.53545.10739 2.5981-.39136l.06626-.03342c.68076-.32222 1.41536-.66823 2.26453-.92603z"/>
    <path d="M43.84788 18.0437C47.64683 21.77578 50 26.93548 50 32.63139c0 2.22723-.36385 4.3794-1.03271 6.39656-.6909 2.08463-1.71626 4.02918-3.00716 5.76366-2.16623 2.91073-3.92427 4.82145-5.28898 6.3069-2.45646 2.66918-3.53343 3.8385-3.53343 7.74202 0 .64013-.52866 1.15948-1.18026 1.15948h-13.8165c-.6516 0-1.18273-.51935-1.18273-1.15948 0-3.86492-1.0991-5.04613-3.5383-7.67194l-.00248-.00234-.00248.00234c-1.3794-1.4831-3.1547-3.39392-5.3751-6.37707-1.2909-1.73449-2.31626-3.68138-3.00716-5.766C8.36385 37.01088 8 34.85617 8 32.63147c0-2.78752.56805-5.45436 1.5958-7.88931l.02213-.04591c1.06714-2.51225 2.62117-4.7732 4.53658-6.65245 1.9278-1.89376 4.24158-3.4253 6.8185-4.47366v-.00243C23.4515 12.55805 26.16614 12 29.00372 12c2.8328 0 5.54478.55805 8.02585 1.5677 2.57186 1.04836 4.8905 2.58224 6.8183 4.476zM47.637 32.63139c0-5.05579-2.08775-9.63326-5.45866-12.94754-1.72351-1.69335-3.77682-3.05568-6.04883-3.97848-2.18837-.89132-4.5981-1.38406-7.13086-1.38406-2.53018 0-4.93981.49274-7.1258 1.38406v-.00234l-.00495.00234c-2.27201.9228-4.32265 2.28513-6.04636 3.97848-1.70643 1.6764-3.08583 3.6765-4.02765 5.88433l-.02461.06278c-.90482 2.1474-1.40887 4.5147-1.40887 7.00034 0 1.98558.32208 3.89874.91226 5.67895.61716 1.85263 1.52446 3.57756 2.66542 5.11379 2.1319 2.86482 3.86781 4.73216 5.21774 6.18621l-.00248.00235c2.62604 2.819 3.93171 4.22967 4.13582 8.07042h11.51244c.20162-3.86726 1.4827-5.2635 4.12103-8.12842 1.31798-1.43241 3.01211-3.27549 5.1342-6.12588 1.14086-1.53388 2.04825-3.25862 2.66294-5.11135.59514-1.78723.91722-3.69796.91722-5.68598zM25.18225 75C24.52955 75 24 74.55208 24 74s.52955-1 1.18225-1h7.6355C33.47045 73 34 73.44792 34 74s-.52955 1-1.18225 1h-7.6355zm18.18359-64.5594c-.3475.533-1.12437.71771-1.73155.4115-.6045-.30622-.81379-.9912-.4665-1.52657l2.46585-3.76613c.3473-.533 1.12426-.71771 1.73134-.4115.60718.30622.814.9912.4667 1.52657l-2.46584 3.76613zM15.83156 9.32717c.34749.5332.14066 1.21844-.46694 1.52487-.60483.30633-1.38212.12155-1.7296-.41165l-2.46716-3.76763c-.34749-.5332-.13799-1.21844.46694-1.52478.6075-.30633 1.3848-.12164 1.73228.41156l2.46448 3.76763zM5.4406 18.63293c.533.34748.71771 1.12477.4115 1.73228-.30622.60484-.9913.81444-1.5243.46695L.5616 18.36498c-.53535-.34749-.71997-1.12478-.41376-1.72961.30622-.60751.9912-.81444 1.52656-.46695l3.7662 2.4645zm47.2339 2.19928c-.53535.34734-1.22032.13793-1.52653-.46675-.30631-.60725-.1216-1.3842.4114-1.73154l3.76616-2.46613c.53518-.34734 1.22015-.13793 1.52655.46675.30621.60457.1216 1.3842-.4115 1.73154l-3.76607 2.46613z"/>
    <path d="M16.4323 37.40336c.25317.58489-.02974 1.26118-.63282 1.50671-.60308.24554-1.3004-.02894-1.55357-.61374-.40458-.92892-.71974-1.90853-.92825-2.91942-.206-.99884-.31766-2.01935-.31766-3.0447 0-.63783.53608-1.15532 1.19124-1.15532.65766 0 1.19124.51992 1.19124 1.15532 0 .90259.09183 1.77148.26308 2.59462.17625.85666.44425 1.68942.78675 2.47653zm0-10.1451c-.25307.58489-.95048.85927-1.55356.61373-.60308-.24553-.886-.92191-.63283-1.50671.39949-.91706.8884-1.78595 1.44682-2.5923l.0025-.00242-.0025-.00233c.57333-.82315 1.22348-1.5886 1.93572-2.27936.70483-.68357 1.49408-1.3142 2.35264-1.87492v-.00243c.824-.53914 1.72481-1.01331 2.6778-1.40318.9555-.39239 1.96307-.69804 3.0079-.90026C26.69668 17.10587 27.75392 17 28.80866 17 29.46652 17 30 17.51749 30 18.15531c0 .63783-.53358 1.15532-1.19133 1.15532-.93316 0-1.83148.08906-2.67781.25272-.886.17094-1.74224.43328-2.55122.76535-.78665.32256-1.54616.72447-2.26831 1.1962h-.0025c-.70233.45728-1.3724.99643-1.99281 1.59822-.613.5945-1.16891 1.2468-1.6479 1.93756l-.00251-.00242c-.48381.6957-.89831 1.43221-1.2333 2.2z"/>
  </g>
</svg>
