<svg viewBox="0 0 92 68" xmlns="http://www.w3.org/2000/svg">
  <g fill-rule="nonzero">
    <path d="M91.19247 18.8029L73.423 1.03323c-.57138-.57156-1.49779-.57156-2.06953 0l-8.88473 8.88474a1.46319 1.46319 0 0 0-.4284 1.03467c0 .38814.15407.76035.4284 1.03468l.88632.88632-2.03678 2.03642c-1.32224 1.3217-3.37387 1.68247-5.105.8967-1.62306-.73672-3.42739-1.12593-5.21829-1.12593-2.12643 0-4.20455.5338-6.05093 1.54485-.77-.18968-1.56024-.28685-2.35834-.28685-1.15421 0-2.28785.19917-3.3694.59232-1.72703.62739-3.57824.23853-4.83212-1.015l-3.65715-3.65732.43556-.43556a1.46319 1.46319 0 0 0 .4284-1.03467 1.46319 1.46319 0 0 0-.4284-1.03467L22.27787.4692c-.57173-.57156-1.49796-.57156-2.06952 0L.42858 20.24897c-.57138.57156-.57138 1.49797 0 2.06935l8.88456 8.88473a1.46303 1.46303 0 0 0 1.03485.42858 1.46334 1.46334 0 0 0 1.03485-.42858l.52987-.52986 2.57934 2.57935c.65083.65083 1.08228 1.46343 1.24744 2.34975.85645 4.59591 3.0575 8.77415 6.36516 12.0836l.48584.48585c-.93303.9826-1.44625 2.26279-1.44625 3.62279 0 1.4067.54794 2.7293 1.54253 3.72407 1.0268 1.0268 2.37517 1.54002 3.72407 1.54002.08787 0 .17537-.00233.26323-.0068-.07122 1.43498.43986 2.89358 1.53322 3.9873.99477.99477 2.31737 1.54253 3.72408 1.54253.03919 0 .0782-.00197.11739-.00286-.03007 1.38666.48155 2.78299 1.53733 3.83896.99477.99494 2.31737 1.54252 3.72426 1.54252 1.4067 0 2.72912-.54793 3.72407-1.54252.08375-.08375.16266-.17036.2398-.25804.51804.18055 1.06598.27665 1.61982.27665 1.3158 0 2.55197-.51269 3.47892-1.44268.49336-.49317.86771-1.07332 1.11144-1.70519l.14978.14978c.95898.95898 2.21859 1.43856 3.4782 1.43856 1.2596 0 2.51922-.47958 3.4782-1.43856.50964-.50964.89259-1.11144 1.13524-1.76764.85841.62435 1.87465.93697 2.89143.93697 1.25961 0 2.51994-.4794 3.47981-1.43802.92892-.92892 1.44053-2.16473 1.44053-3.47963 0-.39727-.0476-.78683-.13833-1.16352.93715-.1904 1.79825-.65047 2.48916-1.34228.92892-.92892 1.44053-2.1642 1.44053-3.4782 0-1.03521-.31889-2.02068-.9078-2.84706l1.1739-1.17389c3.34613-3.34775 5.55667-7.57842 6.39289-12.23481.14011-.77967.52628-1.50387 1.11717-2.09494l4.36595-4.36596.7675.76751c.28579.28578.66032.42858 1.03486.42858.37436 0 .74907-.1428 1.03485-.42858l8.88474-8.88474a1.4632 1.4632 0 0 0 .4284-1.03467c0-.38814-.15461-.75999-.42894-1.0345zM10.348 28.0992L3.5326 21.28382 21.24284 3.57358l6.81557 6.81539L10.348 28.0992zm17.7174 25.3504c-.9121.91192-2.39646.91227-3.30927 0-.442-.44218-.68537-1.02966-.68537-1.65473 0-.62488.24354-1.21254.68554-1.65454.45614-.45614 1.05508-.6843 1.65437-.6843.59912 0 1.1986.22816 1.65455.6843.91227.91227.91227 2.39682.00018 3.30927zm5.52017 5.52017c-.44164.44218-1.02913.68537-1.65455.68537-.62488 0-1.21255-.24355-1.65437-.68537-.91245-.91227-.91245-2.39682 0-3.30927.45614-.45614 1.05508-.6843 1.65455-.6843.59894 0 1.19841.22816 1.65437.6843.91263.91227.91263 2.397 0 3.30927zm5.3788 5.37862c-.442.442-1.02949.68537-1.65437.68537-.62506 0-1.21273-.24355-1.65455-.68537-.91245-.91227-.91245-2.39682 0-3.30927.45614-.45614 1.05508-.6843 1.65455-.6843.59894 0 1.19841.22816 1.65437.6843.91245.91245.91245 2.397 0 3.30927zM63.818 53.11552c-.37615.3765-.8763.5839-1.40814.5839-.53183 0-1.03199-.2074-1.40885-.5848l-14.1959-14.19267c-.57191-.57138-1.49814-.5712-2.06952.00036-.5712.57137-.57102 1.49796.00036 2.06934l15.29123 15.28962c.37633.37615.58337.87649.58337 1.40868 0 .53326-.20722 1.03413-.58283 1.40974-.77789.77717-2.04287.77735-2.8195.00054l-2.5797-2.5797c-.01432-.01486-.02828-.02989-.04313-.04456-.0043-.0043-.00913-.00805-.0136-.01235l-11.8583-11.8583c-.57174-.57138-1.49797-.57138-2.06953 0-.57156.57137-.57156 1.49796 0 2.06934l11.89642 11.89625c.36362.37274.56386.86592.56386 1.38916 0 .5322-.2074 1.03253-.58355 1.40868-.77627.7768-2.04017.7768-2.81716 0L36.8041 48.46915c-.57174-.57156-1.49797-.57156-2.06953 0-.57156.57138-.57156 1.49797 0 2.06934l9.56187 9.56206c.00269.00268.00483.00572.0077.00823.37597.37525.58283.8747.58283 1.40635 0 .532-.20722 1.03234-.58498 1.4101-.37561.3765-.87559.5839-1.40832.5839-.12866 0-.25446-.01324-.37757-.0365.23674-1.59496-.25697-3.27831-1.48205-4.50357-.99477-.99459-2.31737-1.54252-3.72407-1.54252-.03919 0-.0782.00197-.11739.00286.03006-1.38666-.48137-2.78299-1.53734-3.83896-.99494-.99459-2.31737-1.54252-3.72425-1.54252a5.34719 5.34719 0 0 0-.26287.00644c.07032-1.43409-.44075-2.89143-1.53358-3.98444-1.3303-1.33012-3.2003-1.79735-4.91103-1.4042l-1.04935-1.04935c-2.88821-2.88946-4.80975-6.53784-5.55757-10.55074-.27397-1.4697-.98457-2.81251-2.05485-3.88298l-2.57953-2.57952 14.67548-14.67548 3.65732 3.65733c1.40581 1.40581 3.31983 2.1581 5.2802 2.1581.87792 0 1.76568-.15103 2.62086-.46186.4148-.15085.84374-.25911 1.2784-.32783l-9.06046 9.06064c-1.10858 1.1084-1.71915 2.58221-1.71915 4.14997 0 1.56758.61057 3.04139 1.71897 4.14979 1.1442 1.14419 2.64663 1.7161 4.1498 1.71593 1.5028 0 3.00577-.57228 4.15014-1.71593l4.55063-4.55063 1.2317 1.23259.00089.0009.05118.05117.04921.04921a.0039.0039 0 0 0 .0009.00072l.00089.0009c.01414.01395.02792.0272.0417.04043l17.15765 17.15766c.37632.37614.58337.87648.58337 1.40867 0 .53308-.20705 1.03342-.58391 1.4101zm9.21704-21.82944c-1.01535 1.01553-1.6821 2.27675-1.92798 3.64713-.7301 4.06568-2.6604 7.75987-5.5819 10.6828l-1.1245 1.12468-9.25713-9.25712c.20113.01485.40316.0247.60663.0247.93732 0 1.89648-.16428 2.85135-.55492.748-.306 1.10625-1.16048.80025-1.9083-.306-.74782-1.15976-1.10625-1.9083-.80025-3.76612 1.54092-8.28132-2.70568-8.78399-3.1951a1.07113 1.07113 0 0 0-.0254-.02416l-.0519-.0519c-.00018-.00018-.00036-.00018-.00054-.00036l-.04527-.0451c-.00018-.00017-.00054-.00053-.0009-.0007L47.3536 29.6947l1.39686-1.39705c.57174-.57155.57174-1.49797.00018-2.06952-.57156-.5712-1.49797-.57138-2.06935 0l-2.42831 2.42831c-.0009.0009-.00197.0018-.00286.00269-.0009.0009-.0018.00197-.00269.00286l-5.58316 5.58316c-1.1474 1.14723-3.01383 1.14687-4.16088 0-.55563-.55563-.86163-1.2945-.86163-2.08044 0-.78594.306-1.52481.8618-2.08045l9.63668-9.63703c.53613-.53595 1.13202-1.00747 1.77248-1.4024 1.52158-.94056 3.27903-1.43767 5.08228-1.43767 1.37664 0 2.76277.29884 4.00896.8645 2.83488 1.28627 6.20428.68697 8.38386-1.49207l2.03696-2.0366 11.97677 11.97677-4.3665 4.36631zm8.23784-4.63294L65.57276 10.953l6.81557-6.81539 15.70012 15.70013-6.81557 6.81539z"/>
    <circle cx="82.74705" cy="20.95653" r="1.46325"/>
    <circle cx="9.58567" cy="22.40224" r="1.46325"/>
  </g>
</svg>
