<?xml version="1.0" encoding="UTF-8"?>
<svg width="17px" height="19px" viewBox="0 0 17 19" version="1.1" xmlns="http://www.w3.org/2000/svg" xmlns:xlink="http://www.w3.org/1999/xlink">
    <!-- Generator: Sketch 52.6 (67491) - http://www.bohemiancoding.com/sketch -->
    <title>Path</title>
    <desc>Created with Sketch.</desc>
    <g id="dashboard" stroke="none" stroke-width="1" fill="none" fill-rule="evenodd">
        <g id="flexini/appointments" transform="translate(-32.000000, -117.000000)" fill="#787878">
            <path d="M49,136 L49,123.654247 C49,121.697487 47.4350562,120.105564 45.5114508,120.105564 L33.3831849,120.105564 L35.381828,117.732309 C35.538483,117.546283 35.5172954,117.266227 35.3345574,117.106748 C35.1517411,116.947349 34.8766158,116.968953 34.7198433,117.154899 L32.1044105,120.260539 C32.0984968,120.267595 32.0943063,120.275487 32.0888625,120.282781 C32.0813822,120.292866 32.0739803,120.30291 32.0672833,120.313633 C32.0590198,120.327026 32.0520486,120.340817 32.0453124,120.354848 C32.0402212,120.365451 32.0348949,120.375734 32.030626,120.386776 C32.0242815,120.403118 32.0197385,120.419859 32.0153913,120.43672 C32.0128457,120.446486 32.0096343,120.455853 32.0077544,120.465858 C31.9974152,120.520984 31.9974152,120.577545 32.0077544,120.632671 C32.0096343,120.642676 32.0128849,120.652043 32.0153913,120.661809 C32.0197385,120.678669 32.0242815,120.695371 32.030626,120.711753 C32.0348949,120.722794 32.0402212,120.733078 32.0453124,120.743641 C32.0520486,120.757672 32.0590198,120.771463 32.0672833,120.784896 C32.0739803,120.795658 32.0813431,120.805663 32.0888625,120.815747 C32.0943063,120.823042 32.0984968,120.830934 32.1044105,120.837989 L34.7198825,123.94359 C34.8060819,124.04599 34.9282728,124.098525 35.0510902,124.098525 C35.1514669,124.098525 35.2523527,124.063449 35.3345966,123.991741 C35.5173346,123.832261 35.5385221,123.552206 35.3818672,123.36618 L33.3831849,120.992924 L45.5114508,120.992924 C46.9543213,120.992924 48.128176,122.186847 48.128176,123.654287 L48.128176,136 L49,136 Z" id="Path" transform="translate(40.500000, 126.500000) scale(-1, 1) translate(-40.500000, -126.500000) "></path>
        </g>
    </g>
</svg>