<svg viewBox="0 0 51 31" xmlns="http://www.w3.org/2000/svg">
  <path d="M40.4 10.2c-1.5 0-2.9.4-4.2.9l-1.8-3.4V2.3c0-.3-.2-.6-.5-.7L29.7 0a.8.8 0 0 0-1 .4c-.2.4 0 .8.5 1l3.7 1.3v4.4H17.5V5.7h1.9c.4 0 .8-.4.8-.8s-.4-.7-.8-.7h-4.9c-.4 0-.8.3-.8.7 0 .4.4.8.8.8h1.4v2L14.4 11c-1.2-.4-2.5-.7-3.8-.7C4.8 10.3 0 14.9 0 20.6 0 26.4 4.7 31 10.6 31c5.6 0 10.1-4.3 10.6-9.6h3.4c.2 0 .5 0 .6-.3l8.3-11.6 1.3 2.4c-3 1.7-5 5-5 8.7 0 5.7 4.7 10.3 10.6 10.3C46.3 31 51 26.3 51 20.6c0-5.7-4.7-10.4-10.6-10.4zM10.6 29.4c-5 0-9-4-9-8.8a9 9 0 0 1 12.1-8.3l-3.8 8v.8h.1v.1l.2.2h9.4c-.4 4.5-4.3 8-9 8zm1.2-9.6l3.3-6.8a8.7 8.7 0 0 1 4.5 6.8h-7.8zm12.4 0h-3c-.3-3.5-2.4-6.5-5.4-8.2l1.4-3H32l-7.8 11.2zm16.1 9.6c-5 0-9-4-9-8.8 0-3.1 1.7-5.8 4.2-7.4l4.2 7.8c.1.2.4.4.6.4l.4-.1c.4-.2.5-.7.3-1L37 12.4a10 10 0 0 1 3.4-.7c5 0 9 4 9 8.8a9 9 0 0 1-9 8.8z" fill-rule="nonzero"/>
</svg>
