<svg viewBox="0 0 70 75" xmlns="http://www.w3.org/2000/svg">
  <path d="M69.38173 16.54854L35.47563.1092a1.09005 1.09005 0 0 0-.95111 0L.61827 16.54854C.24022 16.7318 0 17.11632 0 17.5379v39.92413c0 .42158.24022.8061.61827.98935l33.9061 16.43934A1.0905 1.0905 0 0 0 35 75c.16263 0 .32525-.03647.47563-.10928l33.9061-16.43934c.37805-.18325.61827-.56777.61827-.98935V17.53804c0-.42187-.24037-.8061-.61827-.9895zM35 2.31863L66.39 17.5379l-9.09932 4.41181c-.05761-.0441-.11843-.08481-.18523-.11719L25.92869 6.71682 35 2.31861zM23.45823 7.959l31.34435 15.19715-6.41971 3.11265-31.33137-15.191 6.40673-3.1188zm32.0777 17.28133v11.50575l-5.99645 2.90742V28.14775l5.99645-2.90742zM67.8122 56.77267L36.0939 72.15088V34.66674l7.56582-3.66826c.54403-.26382.77214-.9205.50946-1.46704-.26268-.54624-.91654-.77563-1.46071-.51167L35 32.75732l-3.03315-1.4707c-.54418-.26412-1.19804-.03472-1.46072.51166-.26268.5464-.03457 1.20323.50946 1.46704l2.89051 1.40142v37.48414L2.1878 56.77238V19.28824L26.341 30.99892c.1533.07441.31534.10957.47475.10957.40664 0 .79723-.2288.98582-.62124.26268-.54639.03457-1.20322-.50946-1.46704L3.61 17.5379l10.86676-5.26875 32.85976 15.93207c.00481.00674.01021.01274.01517.01933V41.404c0 .37807.19355.72949.51238.93061a1.09018 1.09018 0 0 0 .58166.16802c.16219 0 .32481-.03618.47548-.10928l8.18424-3.9681c.37805-.18326.61827-.56764.61827-.98936v-13.2561l10.08849-4.8914v37.4843z" fill="#5AD2A0" fill-rule="nonzero"/>
</svg>
