<svg viewBox="0 0 29 29" xmlns="http://www.w3.org/2000/svg">
  <path d="M27.41 2.16h-3.46v-.44c0-.74-.58-1.34-1.3-1.34-.7 0-1.29.6-1.29 1.34v.44H7.53v-.44c0-.74-.58-1.34-1.3-1.34-.71 0-1.3.6-1.3 1.34v.44H1.49c-.48 0-.87.4-.87.89V27.9c0 .49.4.89.87.89H27.4c.48 0 .87-.4.87-.9V3.06c0-.5-.39-.89-.87-.89zm-5.18-.44c0-.25.19-.45.43-.45s.43.2.43.45v1.77c0 .25-.2.45-.43.45a.44.44 0 0 1-.43-.45V1.72zm-16.43 0c0-.25.2-.45.43-.45.24 0 .44.2.44.45v1.77c0 .25-.2.45-.44.45a.44.44 0 0 1-.43-.45V1.72zM27.41 27.9H1.48V7.49H27.4V27.9zm0-21.31H1.48V3.05h3.46v.44c0 .74.58 1.33 1.3 1.33.71 0 1.29-.6 1.29-1.33v-.44h13.83v.44c0 .74.58 1.33 1.3 1.33.71 0 1.3-.6 1.3-1.33v-.44h3.45V6.6zm-10.8 12.87a3.4 3.4 0 0 0 2.59-1.2v1.2a2.63 2.63 0 0 1-2.6 2.67c-.9 0-1.68-.47-2.15-1.19 0 0-.26-.3-.62-.04-.29.2-.1.53-.1.53a3.43 3.43 0 0 0 2.88 1.58 3.5 3.5 0 0 0 3.45-3.55v-3.55a3.6 3.6 0 0 0-1.25-2.74 3.4 3.4 0 0 0-2.2-.8 3.5 3.5 0 0 0-3.46 3.54 3.5 3.5 0 0 0 3.46 3.55zm0-6.21c1.43 0 2.59 1.2 2.59 2.66a2.63 2.63 0 0 1-2.6 2.67c-1.43 0-2.59-1.2-2.59-2.67a2.63 2.63 0 0 1 2.6-2.66zm-7.35 0h1.3v9.32c0 .25.19.44.43.44s.43-.2.43-.44v-9.77c0-.24-.2-.44-.43-.44H9.26c-.24 0-.43.2-.43.44 0 .25.2.45.43.45z" fill-rule="nonzero"/>
</svg>
