<svg viewBox="0 0 26 26" xmlns="http://www.w3.org/2000/svg">
  <g fill-rule="nonzero">
    <path d="M20.53978 16.09949c-.53207-.55401-1.17384-.85022-1.854-.85022-.6747 0-1.32195.29072-1.87596.84473l-1.73333 1.72785c-.14262-.0768-.28523-.1481-.42236-.21941-.19747-.09874-.38397-.19198-.54304-.29072-1.62363-1.03122-3.09916-2.3751-4.51435-4.11392-.68565-.86667-1.14641-1.5962-1.48101-2.33671.44979-.4114.86667-.83924 1.27257-1.25063.15359-.1536.30718-.31266.46076-.46625 1.1519-1.1519 1.1519-2.64388 0-3.79578L8.3516 3.85096c-.17004-.17004-.34556-.34557-.51012-.5211-.32912-.34008-.67469-.69113-1.03123-1.02025-.53206-.52658-1.16835-.80633-1.83755-.80633s-1.31645.27975-1.86498.80633l-.01097.01097-1.86498 1.88144c-.7021.7021-1.10253 1.5578-1.1903 2.55063-.13164 1.60169.3401 3.09367.70212 4.07004.8886 2.39705 2.21603 4.61857 4.1962 6.99916 2.40253 2.86877 5.29325 5.13418 8.59536 6.73038 1.2616.59789 2.94557 1.30548 4.827 1.42616.1152.00548.23587.01097.34557.01097 1.2671 0 2.33123-.45528 3.16498-1.36034.00549-.01097.01646-.01645.02194-.02743.28524-.34556.61435-.65822.95992-.99282.23586-.2249.47721-.46076.71308-.7076.54304-.56498.82827-1.2232.82827-1.89789 0-.68017-.29072-1.3329-.84473-1.88143l-3.01139-3.02236zm1.96371 5.77594c-.00548 0-.00548.00549 0 0-.21392.23038-.43333.43882-.6692.6692-.35653.34009-.71856.69663-1.05864 1.09705-.55401.5924-1.20676.87215-2.06245.87215-.08228 0-.17004 0-.25232-.00548-1.62912-.10422-3.14304-.74051-4.27848-1.28355-3.10464-1.50295-5.8308-3.6367-8.0962-6.34093-1.87047-2.25443-3.1211-4.33882-3.94937-6.57679-.51013-1.36582-.69663-2.42996-.61435-3.43376.05485-.64177.30169-1.17383.75696-1.6291l1.87047-1.87047c.26877-.25232.554-.38945.83375-.38945.34557 0 .62532.20843.80085.38396l.01645.01646c.3346.31266.65274.63628.98734.98185.17005.17553.34557.35106.5211.53207l1.49747 1.49747c.58143.58143.58143 1.11899 0 1.70042-.15907.15907-.31266.31815-.47173.47173-.46076.47173-.89958.91055-1.3768 1.3384-.01096.01097-.02193.01645-.02742.02742-.47173.47173-.38397.9325-.28523 1.24515l.01645.04937c.38945.94346.93798 1.83207 1.77173 2.89072l.00549.00548c1.51392 1.86498 3.11013 3.31857 4.87088 4.43207.2249.14262.45528.2578.67469.36751.19747.09873.38396.19198.54304.29072.02194.01097.04388.02742.06582.0384.1865.09324.36202.13712.54304.13712.45527 0 .7405-.28523.83375-.37848l1.87595-1.87595c.1865-.1865.4827-.41139.82827-.41139.34009 0 .61983.21393.78988.40042l.01097.01097 3.02236 3.02237c.56498.5595.56498 1.13544.00548 1.71687zM14.04527 6.18219c1.43713.24135 2.74261.92151 3.7848 1.9637 1.0422 1.0422 1.71688 2.34769 1.96372 3.78482.06034.36202.373.61434.72953.61434.04389 0 .08228-.00548.12617-.01097.4059-.06582.67468-.44978.60886-.8557-.2962-1.73881-1.119-3.32404-2.37511-4.58016-1.25612-1.25612-2.84135-2.0789-4.58017-2.3751-.4059-.06583-.78439.20295-.8557.60337-.0713.40042.19199.78987.5979.8557zM25.95919 11.46446c-.48819-2.86329-1.83755-5.46877-3.91097-7.54219C19.9748 1.84885 17.36932.49949 14.50602.0113c-.40042-.0713-.7789.20295-.8502.60338-.06583.4059.20295.78438.60886.8557 2.55611.43332 4.88734 1.64556 6.74135 3.49408 1.854 1.85401 3.06075 4.18524 3.49409 6.74135.06034.36203.373.61435.72953.61435.04389 0 .08228-.00548.12616-.01097.40043-.06034.67469-.4443.60338-.84473z"/>
  </g>
</svg>
