<svg viewBox="0 0 187 206" xmlns="http://www.w3.org/2000/svg">
  <path d="M185.5856 100.0576c-8.02407-10.07787-4.8431-22.04711-7.32674-32.88917-1.3469-5.81746-10.4313-8.33931-7.64198-12.64748 14.03258-21.57903-14.51976-29.71774-13.96572-46.81667.02866-1.11763-3.81143-3.82098-6.04671-1.5475-9.41874 9.54292-23.65193 8.75962-33.9495 16.15324-4.4801 3.19052-8.63543 2.97081-13.53585.66867 2.23528-4.25085 4.31772-8.18647 6.39061-12.1412-7.99542 6.08493-18.56046 5.7506-21.83695-.21015-8.3202-15.21709-21.03455-7.97631-33.55784-9.58113 10.51727 4.65206.48717 11.7591 3.61083 16.5831 2.68425 4.14577 5.31118 7.99541-.67822 10.0683-4.824 1.70034-3.6586 12.02656-14.23319 6.61031-12.81942-6.54344-18.27388-.77375-17.5861 13.76512.25792 5.36849-.3821 11.07131-5.64551 14.03258-2.38812 1.37555-3.95472 1.7481-2.9135 4.96728 3.25739 10.15428 1.07942 14.26185-8.8838 16.14368-2.97082.5827-7.86169 1.64303-6.34285 3.73502 7.9381 10.91848-7.97631 24.44478 4.36548 34.43667 1.41377 1.13674 1.11764 3.00902.79286 5.16788-2.99948 19.75452 3.86875 28.75295 23.76655 32.19184 4.28906.73554 8.4826 2.1302 14.7108 3.70636-7.7948 8.07184-9.79128 16.9843-11.48206 26.17377-1.64303 8.91246 2.18751 12.67613 10.19249 9.75308 12.07432-4.38459 23.24116-.49673 34.81876 1.31824 4.35593.68778 8.81693 6.26642 9.34232 5.57864 8.78827-11.31012 21.8274 2.07289 31.64734-6.05626 4.70937-3.8783 12.98181-4.18399 19.54436-.90749 7.82348 3.8974 8.62588.97435 5.85567-5.6073-2.6556-6.36195-3.095-9.6671 5.14878-13.73646 16.18189-8.03363 15.60874-9.69576.71643-21.2447-3.44844-2.63648-7.54645-4.6234-10.52682-7.72795-6.16135-6.42881-12.48508-18.00641-6.31419-22.40055 12.04567-8.57812 27.65441-16.68817 41.71565-16.58309 12.88629.09552 11.5585-8.81693 9.8486-10.95669z" fill="#363636"/>
</svg>
