<svg version="1.1" xmlns="http://www.w3.org/2000/svg" xmlns:xlink="http://www.w3.org/1999/xlink" x="0px" y="0px" viewBox="0 0 512 512" style="enable-background:new 0 0 512 512;" xml:space="preserve"><path d="M168.825 58.324 C 99.694 69.876,86.038 72.383,84.454 73.813 C 82.793 75.314,52.576 114.503,45.372 124.501 C 41.224 130.259,42.016 136.113,47.362 139.195 C 49.398 140.369,53.095 140.794,65.493 141.279 L 81.067 141.889 81.067 207.038 L 81.067 272.186 83.413 274.672 C 86.690 278.142,251.689 353.622,256.000 353.623 C 260.303 353.624,425.306 278.138,428.587 274.668 L 430.933 272.186 430.933 207.024 L 430.933 141.861 446.732 141.238 C 460.944 140.677,462.807 140.428,465.292 138.758 C 468.294 136.741,469.967 132.282,469.044 128.757 C 468.413 126.349,432.184 78.418,428.107 74.599 L 425.302 71.971 341.718 58.155 C 295.746 50.557,256.597 44.385,254.720 44.441 C 252.843 44.497,214.190 50.744,168.825 58.324 M212.878 96.162 C 201.264 112.030,191.477 125.332,191.129 125.722 C 190.311 126.640,71.680 122.758,71.680 121.813 C 71.680 120.523,95.651 89.601,96.691 89.550 C 97.250 89.522,128.235 84.410,165.547 78.188 C 202.859 71.967,233.524 66.974,233.691 67.093 C 233.858 67.213,224.492 80.294,212.878 96.162 M415.735 89.579 C 416.480 89.606,440.320 120.852,440.320 121.801 C 440.320 122.737,321.683 126.633,320.871 125.723 C 319.576 124.272,278.187 67.545,278.187 67.221 C 278.187 67.036,309.003 71.986,346.667 78.221 C 384.331 84.457,415.412 89.567,415.735 89.579 M246.293 329.138 C 246.113 329.318,213.088 314.410,172.903 296.010 L 99.840 262.554 99.840 202.531 L 99.840 142.507 104.320 142.551 C 106.784 142.575,128.359 143.276,152.265 144.109 C 176.171 144.942,196.609 145.455,197.684 145.249 C 198.759 145.044,200.555 143.959,201.675 142.839 C 202.795 141.719,213.269 127.756,224.949 111.810 L 246.187 82.817 246.403 205.815 C 246.522 273.463,246.472 328.959,246.293 329.138 M286.694 111.360 C 309.114 141.992,311.291 144.671,314.217 145.230 C 315.293 145.436,335.562 144.930,359.260 144.105 C 382.958 143.280,404.555 142.583,407.253 142.556 L 412.160 142.507 412.160 202.530 L 412.160 262.554 339.937 295.615 C 300.214 313.799,267.190 328.877,266.550 329.123 C 265.571 329.499,265.387 309.991,265.387 206.029 C 265.387 138.082,265.543 82.649,265.735 82.844 C 265.926 83.040,275.358 95.872,286.694 111.360 M27.899 157.148 C 17.515 158.550,6.431 167.357,2.342 177.455 L 0.427 182.187 0.179 266.240 C -0.082 355.153,0.030 358.328,3.909 371.866 C 7.728 385.193,11.511 392.195,25.907 412.587 C 36.083 426.999,38.734 429.905,42.316 430.577 C 48.068 431.656,53.760 426.617,53.760 420.444 C 53.760 417.239,53.163 416.260,39.571 397.171 C 30.716 384.735,25.825 375.614,22.899 366.080 L 20.935 359.680 20.685 272.587 L 20.434 185.494 22.377 182.647 C 27.859 174.614,38.675 174.731,44.722 182.888 C 46.489 185.273,46.511 185.978,46.975 254.995 C 47.233 293.329,47.749 325.653,48.122 326.827 C 48.495 328.000,49.585 331.456,50.546 334.507 C 52.869 341.886,56.168 348.336,60.801 354.560 C 67.244 363.215,114.940 413.329,117.918 414.572 C 119.423 415.201,121.825 415.481,123.313 415.202 C 126.274 414.646,130.036 411.125,130.972 408.032 C 132.518 402.925,131.394 401.420,105.317 373.695 C 91.446 358.947,79.355 345.455,78.448 343.714 C 77.450 341.797,76.800 338.835,76.800 336.205 C 76.800 326.499,84.145 319.341,93.209 320.212 C 96.888 320.565,99.848 322.268,118.708 334.878 C 148.307 354.669,156.714 362.018,168.418 378.331 C 174.415 386.688,181.744 401.121,185.095 411.173 C 186.558 415.558,191.767 438.248,196.673 461.596 C 201.578 484.944,205.980 505.068,206.455 506.316 C 207.504 509.077,212.042 511.992,215.296 511.997 C 220.565 512.004,225.280 507.396,225.280 502.239 C 225.280 497.739,207.250 414.483,204.374 405.704 C 196.119 380.503,179.671 356.048,160.044 339.793 C 148.850 330.523,109.890 304.464,103.861 302.215 C 97.914 299.997,87.786 299.737,81.385 301.638 C 79.043 302.333,74.958 304.422,72.306 306.279 L 67.485 309.657 67.217 246.775 C 66.981 191.246,66.786 183.418,65.553 179.824 C 60.100 163.929,45.006 154.839,27.899 157.148 M473.196 157.132 C 459.009 159.139,447.894 170.417,445.488 185.247 C 444.934 188.660,444.597 213.108,444.593 250.213 L 444.587 309.707 439.730 306.305 C 437.058 304.433,432.957 302.333,430.615 301.638 C 424.216 299.738,414.087 299.997,408.139 302.214 C 403.067 304.104,366.271 328.317,355.413 336.910 C 333.455 354.287,316.465 378.803,307.535 405.999 C 304.755 414.467,286.720 497.860,286.720 502.248 C 286.720 507.396,291.439 512.004,296.704 511.997 C 299.958 511.992,304.496 509.077,305.545 506.316 C 306.020 505.068,310.422 484.944,315.327 461.596 C 320.233 438.248,325.442 415.558,326.905 411.173 C 330.256 401.121,337.585 386.688,343.582 378.331 C 355.278 362.028,363.698 354.666,393.206 334.936 C 415.825 319.812,418.164 318.751,424.381 320.803 C 433.618 323.851,438.086 335.020,433.547 343.714 C 432.638 345.455,420.547 358.946,406.678 373.693 C 380.605 401.418,379.481 402.922,381.028 408.032 C 381.964 411.125,385.726 414.646,388.687 415.202 C 390.174 415.481,392.582 415.200,394.092 414.572 C 397.084 413.328,444.767 363.225,451.206 354.560 C 455.836 348.329,459.134 341.876,461.454 334.507 C 462.415 331.456,463.505 328.000,463.878 326.827 C 464.251 325.653,464.767 293.329,465.025 254.995 C 465.489 185.978,465.511 185.273,467.278 182.888 C 473.312 174.748,484.140 174.614,489.600 182.613 L 491.520 185.426 491.520 270.523 L 491.520 355.621 489.444 363.805 C 488.302 368.306,485.784 375.171,483.847 379.061 C 481.687 383.401,465.027 407.675,440.732 441.883 C 418.955 472.545,400.893 498.402,400.594 499.344 C 399.656 502.301,400.988 506.486,403.693 509.077 C 405.851 511.145,407.019 511.573,410.493 511.573 C 414.039 511.573,415.067 511.177,417.143 509.013 C 419.389 506.673,487.897 410.487,495.897 398.443 C 503.440 387.086,509.161 371.865,511.085 358.029 C 511.685 353.716,512.000 322.865,512.000 268.466 C 512.000 177.133,512.200 180.798,506.745 172.205 C 501.905 164.583,493.055 158.446,485.404 157.408 C 483.370 157.132,480.939 156.795,480.000 156.658 C 479.061 156.522,476.000 156.735,473.196 157.132 M362.667 183.099 C 347.883 186.590,334.715 189.882,333.406 190.414 C 326.222 193.334,327.203 204.713,334.757 206.088 C 336.590 206.422,345.097 204.794,360.533 201.156 L 383.573 195.726 383.804 213.216 C 383.932 222.835,383.740 230.977,383.378 231.310 C 383.016 231.642,367.552 237.373,349.013 244.045 C 300.312 261.575,302.488 260.670,300.883 264.052 C 300.133 265.632,299.520 267.769,299.520 268.801 C 299.520 271.286,304.783 276.480,307.302 276.480 C 308.390 276.480,329.068 269.351,353.254 260.637 C 386.535 248.647,397.693 244.278,399.147 242.670 C 401.060 240.553,401.067 240.437,401.067 211.087 L 401.067 181.629 398.572 179.134 C 396.651 177.213,395.328 176.653,392.812 176.696 C 391.016 176.727,377.451 179.608,362.667 183.099 M300.696 196.629 C 297.110 198.204,295.253 201.084,295.253 205.075 C 295.253 207.700,295.853 208.983,298.155 211.285 C 302.973 216.104,309.668 215.021,312.827 208.911 C 316.571 201.670,308.296 193.292,300.696 196.629 M60.793 443.158 C 56.461 445.563,54.699 451.910,57.111 456.418 C 58.485 458.983,63.009 461.646,66.002 461.650 C 70.951 461.657,75.947 456.748,75.947 451.879 C 75.947 448.957,73.903 445.045,71.495 443.358 C 69.227 441.770,63.486 441.662,60.793 443.158 M79.701 473.941 C 76.567 477.075,75.836 481.260,77.777 484.963 C 79.565 488.374,93.783 508.246,95.635 509.923 C 96.914 511.080,98.704 511.573,101.620 511.573 C 105.133 511.573,106.191 511.162,108.420 508.934 C 110.165 507.189,111.213 505.152,111.512 502.927 C 111.919 499.890,111.479 498.849,107.038 492.340 C 93.686 472.769,91.947 471.040,85.619 471.040 C 83.326 471.040,81.907 471.736,79.701 473.941 " stroke="none" fill-rule="evenodd"></path></svg>