<svg viewBox="0 0 34 41" xmlns="http://www.w3.org/2000/svg">
  <g fill="#FFF" fill-rule="nonzero">
    <circle cx="16.5" cy="17.5" r="1"/>
    <circle cx="18.5" cy="16.5" r="1"/>
    <circle cx="14.5" cy="16.5" r="1"/>
    <circle cx="12.5" cy="14.5" r="1"/>
    <circle cx="20.5" cy="14.5" r="1"/>
    <circle cx="22.5" cy="13.5" r="1"/>
    <circle cx="10.5" cy="13.5" r="1"/>
    <circle cx="16.5" cy="14.5" r="1"/>
    <circle cx="16.5" cy="23.5" r="1"/>
    <circle cx="16.5" cy="25.5" r="1"/>
    <circle cx="16.5" cy="27.5" r="1"/>
    <circle cx="16.5" cy="29.5" r="1"/>
    <circle cx="16.5" cy="31.5" r="1"/>
    <circle cx="16.5" cy="33.5" r="1"/>
    <path d="M33.32 39.63333h-2.04V36.9h-3.4v-6.98503c0-1.845-.91256-3.5588-2.44052-4.58244L18.22604 20.5l7.21344-4.83253c1.52796-1.02364 2.44052-2.73744 2.44052-4.58244V4.1h3.4V1.36667h2.04c.37536 0 .68-.30545.68-.68334C34 .30545 33.69536 0 33.32 0H.68C.30464 0 0 .30545 0 .68333c0 .37789.30464.68334.68.68334h2.04V4.1h3.4v6.98503c0 1.845.91256 3.5588 2.44052 4.58244L15.77396 20.5l-7.21344 4.83253C7.03256 26.35617 6.12 28.06997 6.12 29.91497V36.9h-3.4v2.73333H.68c-.37536 0-.68.30545-.68.68334C0 40.69455.30464 41 .68 41h32.64c.37536 0 .68-.30545.68-.68333 0-.37789-.30464-.68334-.68-.68334zm-29.24-36.9V1.36667h25.84v1.36666H4.08zM9.31464 14.5304C8.16612 13.76028 7.48 12.4722 7.48 11.08503V4.1h19.04v6.98503c0 1.38717-.68612 2.67525-1.83464 3.44537L17 19.67863 9.31464 14.5304zM7.48 29.91497c0-1.38717.68612-2.67525 1.83464-3.44537L17 21.32137l7.68536 5.14823c1.14852.77012 1.83464 2.0582 1.83464 3.44537V36.9H7.48v-6.98503zm-3.4 8.3517h25.84v1.36666H4.08v-1.36666z"/>
  </g>
</svg>
