<svg viewBox="0 0 525 385" xmlns="http://www.w3.org/2000/svg">
  <g fill="#FFF" fill-rule="evenodd">
    <path d="M382.6132 30.869c.007-.002.014-.005.021-.007 7.232-2.758 15.283-2.402 22.243.983 7.062 3.164 12.501 9.107 15.028 16.421 5.489 15.088-2.292 31.77-17.379 37.26-.007.003-.014.005-.021.008-7.23 2.758-15.279 2.405-22.238-.978-7.062-3.166-12.501-9.111-15.027-16.427h-.005c-5.491-15.089 2.29-31.77 17.378-37.26m-93.681-6.912l62.189 74.675c4.671 5.182 10.419 9.279 16.841 12.002 13.919 6.766 30.015 7.474 44.474 1.956 30.184-10.956 45.772-44.307 34.816-74.492-.006-.015-.011-.029-.017-.044-5.053-14.629-15.931-26.518-30.055-32.847-6.211-3.174-13.042-4.951-20.013-5.207l-97.227.379c-2.704-.038-5.354.762-7.585 2.291-4.601 3.048-7.108 8.416-6.49 13.9.27 2.711 1.337 5.282 3.067 7.387M489.1473 173.1273c-24.107-24.071-58.102-37.331-95.725-37.331-37.55 0-67.583 15.437-90.643 35.183-8.4 7.192-8.771 20.074-.951 27.894l.096.096c7.245 7.245 18.849 7.408 26.446.533 17.135-15.508 38.876-27.572 65.052-27.572 52.244 0 90.159 37.23 90.159 88.523 0 51.294-37.917 88.524-90.159 88.524-74.684 0-111.358-93.342-111.71-94.259l-.102-.259c-1.931-4.846-48.506-118.663-150.469-118.663-37.623 0-71.61 13.258-95.724 37.331-22.84 22.804-35.417 53.819-35.417 87.326 0 33.508 12.577 64.522 35.417 87.328 24.107 24.072 58.101 37.331 95.724 37.331 37.233 0 66.839-14.557 89.603-33.49 8.672-7.213 9.346-20.28 1.371-28.256l-.106-.105c-7.191-7.191-18.679-7.399-26.301-.667-16.904 14.929-38.396 26.392-64.565 26.392-52.243 0-90.159-37.23-90.159-88.524 0-51.293 37.918-88.523 90.159-88.523 72.078 0 110.556 91.474 111.783 94.452 2.723 7.074 47.382 118.73 150.498 118.73 37.623 0 71.61-13.258 95.724-37.33 22.839-22.808 35.418-53.821 35.418-87.329 0-33.507-12.581-64.531-35.419-87.335"/>
  </g>
</svg>
