<svg viewBox="0 0 512 512" xmlns="http://www.w3.org/2000/svg">
  <path d="M305 256a49 49 0 1 1-98 0 49 49 0 0 1 98 0zm0 0"/>
  <path d="M370.6 169.3a45.55 45.55 0 0 0-11-16.9 45.51 45.51 0 0 0-16.9-11c-5.18-2-12.97-4.4-27.3-5.05-15.5-.7-20.15-.86-59.4-.86s-43.9.15-59.4.85c-14.33.66-22.12 3.05-27.3 5.07a45.48 45.48 0 0 0-16.9 11 45.57 45.57 0 0 0-11 16.9c-2 5.17-4.4 12.96-5.06 27.3-.7 15.5-.86 20.14-.86 59.4 0 39.24.16 43.9.86 59.4.66 14.33 3.05 22.11 5.06 27.29a45.56 45.56 0 0 0 11 16.9 45.51 45.51 0 0 0 16.9 11c5.18 2.01 12.97 4.4 27.3 5.06 15.5.7 20.14.86 59.4.86 39.25 0 43.9-.15 59.4-.86 14.33-.65 22.12-3.05 27.3-5.06a48.68 48.68 0 0 0 27.9-27.9c2-5.18 4.4-12.96 5.06-27.3.7-15.5.85-20.15.85-59.4s-.15-43.9-.85-59.4c-.66-14.33-3.05-22.12-5.07-27.3zM256 331.48a75.48 75.48 0 1 1 0-150.96 75.48 75.48 0 0 1 0 150.96zm78.47-136.3a17.64 17.64 0 1 1 0-35.3 17.64 17.64 0 0 1 0 35.3zm0 0"/>
  <path d="M256 0C114.64 0 0 114.64 0 256s114.64 256 256 256 256-114.64 256-256S397.36 0 256 0zm146.11 316.6c-.7 15.65-3.2 26.34-6.83 35.69a75.16 75.16 0 0 1-43 43c-9.34 3.62-20.03 6.1-35.67 6.82-15.68.72-20.68.89-60.6.89-39.93 0-44.94-.17-60.62-.89-15.64-.71-26.33-3.2-35.68-6.83a72.02 72.02 0 0 1-26.03-16.96 72.04 72.04 0 0 1-16.96-26.03c-3.63-9.35-6.12-20.04-6.83-35.68-.72-15.68-.89-20.69-.89-60.61s.17-44.93.89-60.6c.7-15.65 3.2-26.34 6.82-35.69 3.7-9.8 9.49-18.7 16.97-26.03a72 72 0 0 1 26.03-16.96c9.35-3.63 20.04-6.12 35.68-6.83 15.68-.72 20.69-.89 60.61-.89s44.93.17 60.6.9c15.65.7 26.34 3.19 35.69 6.81 9.8 3.7 18.7 9.49 26.04 16.97a72.03 72.03 0 0 1 16.95 26.03c3.64 9.35 6.12 20.04 6.84 35.68.71 15.68.88 20.69.88 60.61s-.17 44.93-.89 60.6zm0 0"/>
</svg>
