<svg xmlns="http://www.w3.org/2000/svg" viewBox="102 208 10 80">
    <defs>
        <style>.cls-1{fill:#fff;}</style>
    </defs>
    <path class="cls-1"
          d="M96.15,213.5a25.84,25.84,0,0,0-25.82,25.81c0,17.67,23.11,43.6,24.09,44.7a2.32,2.32,0,0,0,3.46,0c1-1.1,24.09-27,24.09-44.7A25.85,25.85,0,0,0,96.15,213.5Zm0,65.39C88.37,269.66,75,251.44,75,239.31a21.17,21.17,0,0,1,42.34,0C117.32,251.44,103.93,269.66,96.15,278.89Z"/>
    <path class="cls-1"
          d="M117.31,213.5A25.84,25.84,0,0,0,91.5,239.31c0,17.67,23.1,43.6,24.08,44.7a2.32,2.32,0,0,0,3.46,0c1-1.1,24.09-27,24.09-44.7A25.84,25.84,0,0,0,117.31,213.5Zm0,65.39c-7.77-9.23-21.17-27.45-21.17-39.58a21.17,21.17,0,0,1,42.34,0C138.48,251.44,125.09,269.66,117.31,278.89Z"/>
</svg>
