<svg id="_30" data-name=" 30" xmlns="http://www.w3.org/2000/svg" viewBox="0 0 512 512"><defs><style>.cls-1{fill:#fff;}</style></defs><path class="cls-1" d="M78.57,59.79A23.64,23.64,0,1,0,102.2,83.44h0A23.66,23.66,0,0,0,78.57,59.79Zm0,33.18a9.54,9.54,0,1,1,9.54-9.54A9.54,9.54,0,0,1,78.57,93h0Z"/><path class="cls-1" d="M134.71,59.79a23.64,23.64,0,1,0,23.64,23.64A23.63,23.63,0,0,0,134.71,59.79Zm0,33.18a9.54,9.54,0,1,1,9.55-9.54A9.54,9.54,0,0,1,134.71,93h0Z"/><path class="cls-1" d="M190.87,59.79A23.64,23.64,0,1,0,214.5,83.44h0A23.66,23.66,0,0,0,190.87,59.79Zm0,33.18a9.54,9.54,0,1,1,9.53-9.55h0A9.56,9.56,0,0,1,190.87,93h0Z"/><path class="cls-1" d="M447.51,83.43a7,7,0,0,0-6.95-7.05H268.84a7.05,7.05,0,1,0,0,14.1H440.47a7,7,0,0,0,7-7Z"/><path class="cls-1" d="M467.11,34.35H44.89A29.46,29.46,0,0,0,15.47,63.78v392a29.31,29.31,0,0,0,.46,5.2,3.76,3.76,0,0,0,.14.73c.05.24.15.71.24,1.06l.18.71c.06.23.13.46.2.7a29.49,29.49,0,0,0,28.2,21H467.11a29.46,29.46,0,0,0,29.42-29.43v-392A29.46,29.46,0,0,0,467.11,34.35ZM167.23,471.14H44.89A15.35,15.35,0,0,1,30.15,460a1.61,1.61,0,0,0-.1-.36l-.09-.37a14.94,14.94,0,0,1-.4-3.46V132.5H167.23Zm299.88,0H181.32V132.5H341.5a7,7,0,0,0,0-14.09H29.56V63.78A15.35,15.35,0,0,1,44.89,48.45H467.11a15.35,15.35,0,0,1,15.33,15.33v54.63H367.81a7,7,0,0,0,0,14.09H482.44V455.81A15.35,15.35,0,0,1,467.11,471.14Z"/><path class="cls-1" d="M51.89,171.94h93a7,7,0,0,0,0-14.09h-93a7,7,0,0,0,0,14.09Z"/><path class="cls-1" d="M51.89,216h93a7,7,0,1,0,0-14.1h-93a7,7,0,0,0,0,14.1Z"/><path class="cls-1" d="M51.89,260.11h93a7.05,7.05,0,0,0,0-14.1h-93a7.05,7.05,0,1,0,0,14.1Z"/><path class="cls-1" d="M51.89,304.19h93a7.05,7.05,0,0,0,0-14.1h-93a7.05,7.05,0,1,0,0,14.1Z"/><path class="cls-1" d="M210.83,255.1h97.86a14.51,14.51,0,0,0,14.49-14.49V167.36a14.51,14.51,0,0,0-14.49-14.49H210.83a14.51,14.51,0,0,0-14.49,14.49v73.25A14.51,14.51,0,0,0,210.83,255.1Zm-.4-87.74a.4.4,0,0,1,.4-.4h97.86a.4.4,0,0,1,.4.4v73.25a.4.4,0,0,1-.4.4H210.83a.4.4,0,0,1-.4-.4Z"/><path class="cls-1" d="M356.46,255.1h97.86a14.51,14.51,0,0,0,14.49-14.49V167.36a14.51,14.51,0,0,0-14.49-14.49H356.46A14.51,14.51,0,0,0,342,167.36v73.25A14.51,14.51,0,0,0,356.46,255.1ZM453,167a1.73,1.73,0,0,1,1.71,1.71V239.3A1.72,1.72,0,0,1,453,241H357.77a1.73,1.73,0,0,1-1.71-1.71V168.67a1.73,1.73,0,0,1,1.71-1.71Z"/><path class="cls-1" d="M454.81,400.51h-244A14.51,14.51,0,0,0,196.34,415v15.93a14.51,14.51,0,0,0,14.49,14.49h244a14.51,14.51,0,0,0,14.49-14.49V415A14.5,14.5,0,0,0,454.81,400.51Zm.4,30.42a.4.4,0,0,1-.4.4h-244a.4.4,0,0,1-.4-.4V415a.38.38,0,0,1,.39-.39h244a.38.38,0,0,1,.4.38h0Z"/><path class="cls-1" d="M210.83,381H246.6a7.05,7.05,0,0,0,0-14.1H210.83a.38.38,0,0,1-.4-.38h0v-81a.4.4,0,0,1,.4-.4H454.32a.4.4,0,0,1,.4.4V366.5a.38.38,0,0,1-.39.39H272.91a7.05,7.05,0,0,0,0,14.1H454.32a14.51,14.51,0,0,0,14.49-14.49V285.55a14.51,14.51,0,0,0-14.49-14.49H210.83a14.51,14.51,0,0,0-14.49,14.49V366.5A14.51,14.51,0,0,0,210.83,381Z"/></svg>