<svg xmlns="http://www.w3.org/2000/svg" viewBox="0 0 612.01 612.01"><path d="M612 156.23c0-13.06-5.16-24.88-13.4-33.9-.13-.17-.16-.38-.3-.56-.15-.16-.34-.23-.48-.37-9.37-9.8-22.56-16-37.25-16H51.44c-14.7 0-27.88 6.2-37.27 16-.13.14-.33.2-.47.38-.15.17-.18.4-.32.57C5.16 131.35 0 143.17 0 156.23v299.55c0 13.38 5.37 25.48 13.96 34.57.17.2.22.42.4.6.08.07.15.08.22.14 9.36 9.5 22.4 15.5 36.86 15.5h509.13c14.47 0 27.52-6 36.87-15.56.06-.05.13-.07.2-.13.18-.16.23-.4.4-.57 8.6-9.08 13.97-21.2 13.97-34.6v-299.5zM411.7 290.18l176.36-146.24c1.73 3.75 2.75 7.9 2.75 12.3v299.54c0 3.97-.8 7.73-2.2 11.2L411.7 290.2zm148.87-163.82c4.45 0 8.64 1 12.44 2.72L306 350.46 39 129.08c3.8-1.7 8-2.73 12.44-2.73h509.13zM23.45 466.98c-1.42-3.47-2.25-7.24-2.25-11.2V156.22c0-4.4 1.03-8.54 2.76-12.3L200.32 290.2 23.45 466.98zm28 18.66c-4.9 0-9.47-1.26-13.56-3.3l178.7-178.68 82.55 68.47c1.96 1.64 4.4 2.46 6.8 2.46 2.42 0 4.85-.86 6.8-2.5l82.6-68.47 178.74 178.7c-4.1 2.04-8.66 3.3-13.56 3.3H51.44z"/></svg>
