<svg viewBox="0 0 31 31" xmlns="http://www.w3.org/2000/svg">
  <g fill-rule="nonzero">
    <path d="M29.12423 13h-6.14117c-.3116 0-.56346.25955-.56346.58065s.25187.58064.56346.58064h5.12863l1.63348 15.67742H1.27793L3.1954 14.16129h5.13765c.3116 0 .56346-.25955.56346-.58064 0-.3211-.25186-.58065-.56346-.58065h-6.1316L0 31h31l-1.87577-18z"/>
    <path d="M15.35625 21.57585c-.086.04945-.17786.0932-.26035.14492-.1287.0807-.25449.16537-.37793.2529-.26034.18582-.3165.54158-.12578.79447.11466.15173.29252.23186.4727.23186a.59856.59856 0 0 0 .34576-.10968c.10414-.07445.21003-.14605.3206-.21538.1878-.1182.3873-.22903.59323-.33018.2738-.13469.38495-.44952.27029-.72117.00468-.00454.01053-.00795.01462-.0125 1.05833-1.08885 4.62472-5.1692 6.10135-11.96714.29954-1.37868.36682-2.70167.20008-3.93203C22.4077 1.9754 20.01782 0 15.9998 0c-4.01687 0-6.40674 1.97539-6.91104 5.71192-.16615 1.23093-.09887 2.55392.20067 3.93203 1.462 6.73201 4.97222 10.79645 6.06683 11.9319zm-5.10737-15.7156c.42883-3.1779 2.3103-4.7231 5.75149-4.7231 3.44177 0 5.32266 1.5452 5.7509 4.7231.1492 1.10249.0866 2.29761-.18486 3.55013-1.32745 6.11087-4.4925 9.98834-5.56604 11.1647-1.07471-1.1775-4.23917-5.05667-5.56604-11.1647-.27204-1.25252-.33405-2.44707-.18545-3.55013z"/>
    <path d="M16 10c2.20583 0 4-1.79417 4-4 0-2.20583-1.79417-4-4-4-2.20583 0-4 1.79417-4 4 0 2.20583 1.79417 4 4 4zm0-6.91043c1.60468 0 2.91097 1.30575 2.91097 2.91097 0 1.60523-1.30574 2.91098-2.91097 2.91098s-2.91097-1.30575-2.91097-2.91098c0-1.60522 1.30629-2.91097 2.91097-2.91097zM18.39836 21.15047c-.2719.04896-.4451.27745-.3872.5098.05035.20186.2593.33973.49193.33973.03474 0 .0705-.003.10574-.00945.29506-.05326.6148-.09835.94963-.13443.27593-.02877.4723-.24352.43756-.47888-.03424-.23579-.28348-.40586-.56142-.37322-.36405.03822-.71298.08761-1.03624.14645zM21.00048 20.54067c.011.25774.23311.45933.49924.45933.0075 0 .0145 0 .02201-.00048l1.00098-.03984c.27563-.012.48973-.23662.47673-.50108-.0125-.26542-.26963-.47229-.52225-.4579l-.99848.03985c-.27613.01103-.49023.2347-.47823.50012zM13.1191 24.12761c-.2826.2466-.57453.48367-.86867.70358-.25455.1913-.32713.58472-.16164.87963.10501.18749.28204.28918.46183.28918.1028 0 .20617-.03305.29908-.10233.31503-.23643.62896-.49066.9319-.75505.2419-.21165.29029-.61015.10776-.89044-.18308-.27774-.5267-.33621-.77026-.12457zM25.11975 20.18994c-.17653.17119-.40581.29542-.703.37993-.28254.08017-.4643.46298-.4058.85374.05118.34165.26845.57639.51131.57639.035 0 .0705-.00506.10602-.01517.43976-.12568.797-.32647 1.0947-.61611l.06999-.07079c.2298-.24124.27524-.69412.10132-1.01192-.17444-.31781-.50139-.37993-.73171-.14013l-.04283.04406zM4.98398 24.63395c.06596-.26759-.0778-.54321-.32026-.6155-.24065-.0748-.49222.08484-.55773.35343a3.67895 3.67895 0 0 0-.10235.70537A4.4634 4.4634 0 0 0 4 25.25447c.00045.0984.00455.1968.0132.2947.0241.25855.22154.45083.45218.45083.015 0 .03048-.001.04685-.00251.24975-.02862.43172-.27462.4067-.55074-.00637-.06577-.00865-.13254-.0091-.1958 0-.04166.00136-.08333.00318-.1245.00728-.16266.03094-.32884.07097-.4925zM25.5648 15.02267c-.39895-.04834-.80594-.0187-1.19886.08255-.2673.06795-.42257.32015-.3467.56231.0623.20113.2638.33247.48287.33247.04572 0 .09144-.00547.13666-.01733.26128-.06658.5301-.08756.79138-.05564.28238.03192.52858-.14183.56526-.39084.03718-.25038-.15576-.47977-.4306-.51352zM27.04185 18.34635c-.07433.266.06066.54917.301.63094A.40692.40692 0 0 0 27.47737 19c.19518 0 .37532-.1388.43552-.35585.04514-.1605.07296-.32354.08345-.48607A2.33109 2.33109 0 0 0 28 18.03189c0-.23622-.03922-.47295-.1163-.7026-.08755-.26197-.3516-.39421-.586-.2978-.2367.0969-.35663.38764-.26907.6486.03922.1171.05928.23571.05928.3513l-.00136.05905c-.00548.0838-.02007.16758-.0447.25591zM10.25745 25.06848c-.30531.19731-.61635.38028-.92427.54458-.26832.14207-.4017.5575-.29802.92774.07972.28413.27666.4592.4861.4592.06252 0 .12609-.01507.18757-.04807.33084-.1758.66428-.37239.99148-.58333.2605-.1679.37252-.59553.25008-.95428-.1214-.35947-.43087-.51517-.69294-.34584zM5.51007 23c.08199 0 .1655-.0161.24342-.05037a1.46044 1.46044 0 0 1 .46394-.11932c.06876-.0066.13903-.0066.20677.00083.28671.03014.53472-.12922.5714-.35506.03666-.22625-.1594-.4335-.43798-.46323-.15176-.0161-.30606-.01692-.45375-.0033-.29232.02601-.57445.09867-.83825.2151-.247.1094-.33815.3596-.2032.55984.09269.1379.26737.21551.44765.21551zM5.37557 26.92009c.10836.02617.21873.0458.32809.05795.12842.01448.25684.02196.38577.02196.15701 0 .31453-.01028.47155-.02897.2749-.03225.47005-.26591.43493-.52201-.03511-.2561-.28443-.43648-.56034-.40517-.20267.0243-.40734.0299-.61001.007a1.78334 1.78334 0 0 1-.19765-.03504c-.26839-.06683-.54179.08458-.61202.3346-.06873.25002.0918.50519.35968.56968z"/>
  </g>
</svg>
