<svg viewBox="0 0 75 72" xmlns="http://www.w3.org/2000/svg">
  <g fill-rule="nonzero">
    <path d="M74.08111 44.80934c-.09232-1.65574-.9089-3.17212-2.24079-4.16018-2.15483-1.59901-5.14505-1.43231-7.10916.39678L52.78431 52.17203c.07278-2.44787-1.53621-4.60834-3.94602-5.21973l-14.5905-3.7032c-2.55871-.64958-5.23782-.56189-7.74877.25339l-10.0865 3.27472v-2.90239c0-.79907-.648-1.44692-1.44693-1.44692H1.44692C.64785 42.4279 0 43.0759 0 43.87482v25.77476c0 .79907.648 1.44693 1.44692 1.44693h13.51881c.79908 0 1.44693-.648 1.44693-1.44693V49.81996l10.98007-3.56486c1.99073-.64655 4.11503-.71572 6.14324-.20114l14.59065 3.7032c1.1332.28767 1.8715 1.34085 1.7553 2.50458-.1201 1.2031-1.12264 2.11055-2.3318 2.11055h-10.1703c-.79907 0-1.44692.648-1.44692 1.44693 0 .79907.648 1.44692 1.44692 1.44692h3.11728c.0544.00622.10954.01013.16569.01013h7.17587c2.39345 0 4.6762-.89848 6.42802-2.52962l12.43713-11.58292c.94276-.87808 2.37811-.95796 3.41277-.19043.63931.4742 1.03118 1.20208 1.07546 1.99695.04442.79488-.26453 1.56168-.84712 2.10418l-17.1333 15.9496c-1.18182 1.10006-2.72208 1.70595-4.33657 1.70595h-22.4232c-.79908 0-1.44693.648-1.44693 1.44692 0 .79908.648 1.44693 1.44692 1.44693h22.4235c2.3486 0 4.58894-.88141 6.30835-2.48172l17.13287-15.9496c1.21365-1.12987 1.85687-2.72744 1.76455-4.38317zm-60.5623 23.39332H2.89385V45.32189h10.62481v22.88077h.00015z"/>
    <path d="M21.63629 65.15397c-.2706-.2693-.6425-.42399-1.02294-.42399-.38217 0-.75392.1547-1.02438.424-.26915.26915-.42399.64249-.42399 1.02292 0 .38044.1547.75393.424 1.0228.2706.26915.64235.42413 1.02437.42413.38058 0 .75248-.15484 1.02294-.42414.269-.269.42399-.64235.42399-1.02279 0-.38043-.15484-.75377-.424-1.02293zM9.22883 63.6593c-.26785-.26916-.6412-.424-1.02163-.424-.38203 0-.75537.1534-1.02438.424-.26901.26915-.42255.64119-.42255 1.02293 0 .38058.15354.75392.42255 1.02293.2706.26901.6425.424 1.02438.424.38058 0 .75247-.15484 1.02163-.424.27046-.26915.4253-.6425.4253-1.02293 0-.38203-.15484-.75378-.4253-1.02294zM8.20647 48.30676c-.79907 0-1.44692.648-1.44692 1.44692v9.18846c0 .79907.64785 1.44692 1.44692 1.44692.79908 0 1.44693-.648 1.44693-1.44692v-9.18846c0-.79892-.648-1.44692-1.44693-1.44692z"/>
    <g>
      <path d="M36.5 0C27.40194 0 20 7.40194 20 16.5S27.40194 33 36.5 33 53 25.59806 53 16.5 45.59821 0 36.5 0zm0 30.82863c-7.90077 0-14.32848-6.42786-14.32848-14.32863 0-7.90077 6.4277-14.32848 14.32848-14.32848 7.90077 0 14.32848 6.4277 14.32848 14.32848 0 7.90077-6.4277 14.32863-14.32848 14.32863z"/>
      <path d="M37.62679 16.04193v-6.0623c.6376.22437 1.1939.63606 1.58071 1.19281.34239.49253 1.04115.6289 1.56076.30461.51977-.32429.66368-.98644.3213-1.47897-.80952-1.16475-2.05687-1.95548-3.46277-2.23416V6.06774C37.62679 5.47804 37.1223 5 36.5 5c-.6223 0-1.12679.47804-1.12679 1.06774V7.7607C32.87931 8.2534 31 10.35211 31 12.85931s1.87948 4.60622 4.37321 5.0989v6.06232c-.6376-.22438-1.1939-.63607-1.58071-1.19282-.34239-.49253-1.04115-.62905-1.56076-.3046-.51977.32428-.66368.98643-.3213 1.47896.80952 1.16475 2.05687 1.95549 3.46277 2.23417v1.69602C35.37321 28.52196 35.8777 29 36.5 29c.6223 0 1.12679-.47804 1.12679-1.06774v-1.69282C40.12069 25.74676 42 23.64804 42 21.14084s-1.87932-4.60622-4.37321-5.0989zm-4.37322-3.18262c0-1.31987.88437-2.44466 2.11964-2.87892v5.75785c-1.23527-.43427-2.11964-1.55905-2.11964-2.87893zm4.37322 11.1603v-5.75785c1.23527.43427 2.11964 1.55905 2.11964 2.87893 0 1.31987-.8842 2.44466-2.11964 2.87892z"/>
    </g>
  </g>
</svg>
