<svg viewBox="0 0 38 25" xmlns="http://www.w3.org/2000/svg">
  <g fill-rule="nonzero">
    <path d="M2.3 11.9c.02.8.81 1.41 1.9 1.49.53.13 2.08.15 6.25.15 1.43 0 2.91 0 4.04.02h.01l.13-.01 6.38-1.48c4.19-.96 8.53-1.95 12.73-3.05l.03-.01c1.62-.51 3.56-2.2 3.3-3.21-.38-1.59-3.88-2.32-7.34-1.54l-6.7 1.6c-1.15-.1-10.49-4.24-12.59-5.21a.56.56 0 0 0-.37-.04l-1.1.26-1.12.27a.6.6 0 0 0-.18 1.07c1.19.8 4.73 3.27 7.88 5.5l-.35.08-3.18.77-3.26-.31L3.1 4.43a.56.56 0 0 0-.45-.08l-1.54.4a.58.58 0 0 0-.39.32.6.6 0 0 0 .01.52l2.56 5.08c-.72.27-.98.77-.97 1.23zM2.09 5.7l.59-.15 5.58 3.76c.08.05.17.08.26.1l3.5.33c.06 0 .12 0 .18-.02a288.93 288.93 0 0 0 4.88-1.18.6.6 0 0 0 .2-1.06c-2.71-1.93-5.98-4.21-7.86-5.51.23-.05.46-.1.74-.18.79.37 3.55 1.6 6.26 2.77 6.14 2.63 6.56 2.53 6.84 2.46l6.73-1.62c3.34-.75 5.66.13 5.95.6a4.89 4.89 0 0 1-2.49 1.86c-4.18 1.1-8.5 2.09-12.68 3.05-2.08.47-4.22.96-6.32 1.46-1.13-.02-2.59-.02-4-.02-2.32 0-5.5 0-5.96-.11a.56.56 0 0 0-.16-.04c-.53-.02-.79-.23-.85-.32.06-.06.27-.18.72-.22.19-.02.36-.13.45-.3a.6.6 0 0 0 0-.56l-2.56-5.1zM36.61 23.45h-35a.58.58 0 0 0-.58.59c0 .33.25.59.57.59h35.01c.32 0 .58-.26.58-.6 0-.32-.26-.58-.58-.58z"/>
  </g>
</svg>
