<svg viewBox="0 0 66 71" xmlns="http://www.w3.org/2000/svg">
  <g>
    <path d="M62.26156 35.52967l-2.09634-4.76855a10.67528 10.67528 0 0 0-.40957-.83196c-.87434-1.59881-2.30921-2.80242-4.04004-3.3893-1.72539-.58494-3.59576-.50688-5.2672.21997l-.80784.3513-1.03228-2.34825c-.00014-.00027-.00028-.0007-.00042-.00097l-.76058-1.73c-.6499-1.47822-1.83845-2.6124-3.34665-3.1933-1.50081-.57796-3.1335-.536-4.59849.11794l-2.68044 1.16122c-.49585-.70537-1.09807-1.2436-1.80025-1.60703-1.46666-.75905-3.23108-.6952-5.24448.19l-1.91804.84311-2.48277-5.64777c-1.01067-2.29917-2.88648-3.8768-5.1462-4.32846-2.12436-.42462-4.28734.17634-5.78662 1.60731-2.24982 2.14709-2.89623 5.37092-1.64802 8.21014l9.40496 21.5287c-.78749-.15933-1.61735-.23224-2.45949-.21175-2.18737.05395-4.1542.74957-5.47114 1.92237a1.39507 1.39507 0 0 0-.24215.19907c-1.32349 1.36294-1.9759 3.01166-1.8871 4.76772.1111 2.19462 1.36476 4.35885 3.62532 6.25891a1.1421 1.1421 0 0 0 .03485.0283l19.33255 15.21542c.25008.19698.55468.2986.86234.2986.18987 0 .38085-.03875.56082-.11793l27.69547-12.17504c.47746-.2098.7978-.66872.83029-1.18925l.15069-2.41334c.40427-6.47193-.76142-13.0307-3.37118-18.96718zm.5887 18.79348l-.09786 1.56563-26.15214 11.49685-18.657-14.68388c-1.61875-1.36559-2.5483-2.8749-2.618-4.25151-.04516-.89246.2607-1.72358.90975-2.47412a1.41206 1.41206 0 0 0 .13439-.1217c1.66879-1.7187 5.83039-1.83747 8.00368-.24368l4.80201 4.612c.2703.25958.61812.38866.9655.38866.36622 0 .73188-.14344 1.00566-.42838.53336-.55524.51552-1.4378-.03973-1.97116l-4.67223-4.48752-10.68496-24.45853c-.93637-2.13008-.0874-4.01774 1.01946-5.074.82986-.79208 2.10024-1.1332 3.31528-.89022 1.3759.27504 2.49113 1.2397 3.14033 2.7164l8.09374 18.41124c.2296.52234.74064.83335 1.27693.83335.18736 0 .37778-.03792.56026-.11822.70482-.30989 1.02503-1.13237.71514-1.83719l-4.48892-10.21113 1.91819-.84325c1.20388-.52903 2.15977-.61867 2.84089-.26612.48205.24953.88841.74414 1.20765 1.47015l4.77316 10.85782c.2296.52234.74064.83335 1.27693.83335.18735 0 .37778-.03792.56026-.11822.70482-.30989 1.02503-1.13237.71513-1.83719l-4.20913-9.5749 2.55386-1.10643c.00544-.00237.01074-.0046.01604-.00711.78414-.35144 1.65945-.3743 2.46478-.06413.8098.31185 1.4477.92034 1.79635 1.71354l5.67189 12.90384c.2296.52234.74064.83335 1.27693.83335.18735 0 .37778-.03792.56026-.11821.70482-.30975 1.02503-1.13237.71514-1.8372l-2.75726-6.27201.79767-.34684c2.15614-.93776 4.62818-.0994 5.74953 1.9508a7.94574 7.94574 0 0 1 .30293.61561l2.09648 4.7687c2.43133 5.53095 3.51755 11.64168 3.14103 17.67156z"/>
    <path d="M57.37283 53.95331l-1.3752.6032c-.7051.3092-1.02587 1.1314-.71668 1.8365.22932.5229.74065.83446 1.27735.83446.18694 0 .37709-.03778.55915-.1178l1.3752-.6032c.7051-.30919 1.02588-1.13139.71668-1.83649-.30906-.7051-1.13126-1.026-1.8365-.71667zm-5.54698 2.46409l-14.68652 6.44153c-.7051.3092-1.02587 1.1314-.71667 1.8365.22931.5229.74064.83446 1.27735.83446.18693 0 .37708-.03777.55914-.11765l14.68652-6.44167c.7051-.3092 1.02587-1.1314.71668-1.8365-.30906-.70496-1.13112-1.02587-1.8365-.71667zM15.6155 6.7127c.13606.65896.7164 1.11244 1.36378 1.11244a1.4066 1.4066 0 0 0 .28327-.029c.75403-.1557 1.23901-.89315 1.0833-1.64718l-.9549-4.62455C17.23536.7705 16.49764.2858 15.7439.4411c-.75404.15557-1.23902.89301-1.0833 1.64704l.9549 4.62456zm-11.98614.23922c.40552-.65463.20339-1.51378-.45111-1.91916l-.96286-.59623c-.65463-.40552-1.51377-.20352-1.91916.45111-.40552.65464-.20339 1.51378.4511 1.91916l.96287.59623c.22862.14163.4822.2091.7327.2091.46658 0 .9227-.23433 1.18646-.6602zm2.70706 3.53136l2.97375 1.95596c.23615.1553.50185.22946.76476.22946.45348 0 .89818-.22095 1.1661-.62815.4231-.6432.24452-1.50764-.39868-1.93073L7.86846 8.15385c-.64334-.42308-1.50764-.2445-1.93073.3987-.42309.6432-.24451 1.50764.3987 1.93073zm3.6479 8.81668c-.15571-.7539-.89288-1.23874-1.64718-1.0833l-4.62456.9549c-.75403.15558-1.23901.89303-1.0833 1.64706.13606.65895.7164 1.11243 1.36378 1.11243a1.4089 1.4089 0 0 0 .2834-.029l4.62456-.9549c.75403-.15572 1.23901-.89316 1.0833-1.64719zm3.5064 7.178c-.64334-.42323-1.50778-.24451-1.93073.3987L8.96515 30.8219c-.4231.6432-.24452 1.50764.39869 1.93073.23615.1553.50185.22945.76476.22945.45348 0 .89818-.22095 1.16597-.62815l2.59485-3.94524c.42309-.6432.24451-1.50764-.3987-1.93073zM28.7665 15.07452c.13606.65881.7164 1.1123 1.36378 1.1123.0934 0 .1882-.00949.28341-.029l3.08304-.63666c.75403-.15571 1.23901-.89315 1.0833-1.64718-.15572-.75403-.89302-1.23902-1.64719-1.0833l-3.08304.63665c-.75403.15571-1.239.89315-1.0833 1.64719zm10.03493-.6782a1.4089 1.4089 0 0 0 .2834-.029l.96356-.19892c.75403-.15572 1.23901-.89316 1.0833-1.64719-.15571-.7539-.89274-1.23887-1.64719-1.0833l-.96355.19893c-.75403.15571-1.23901.89315-1.0833 1.64718.13606.65882.7164 1.1123 1.36378 1.1123zM24.52196 9.05259c.23615.15529.50185.22945.76477.22945.45347 0 .89831-.22095 1.16596-.62815l2.59485-3.94524c.42309-.6432.24451-1.50764-.3987-1.93073-.64334-.42323-1.50777-.24452-1.93072.39869l-2.59485 3.94524c-.42309.6432-.24451 1.50765.3987 1.93074z"/>
  </g>
</svg>
