<svg xmlns="http://www.w3.org/2000/svg" viewBox="0 0 54 54">
  <path d="M51.2 21h-5c-.8 0-1.5-.4-1.8-1.2s-.2-1.5.4-2.1l3.6-3.6a2.8 2.8 0 0 0 0-4l-4.6-4.5c-1-1-2.9-1-4 0l-3.5 3.6c-.6.6-1.4.7-2.1.4-.8-.3-1.2-1-1.2-1.8v-5C33 1.2 31.8 0 30.2 0h-6.4A2.8 2.8 0 0 0 21 2.8v5c0 .8-.4 1.5-1.2 1.8-.7.3-1.5.2-2.1-.4L14 5.6c-1-1-2.9-1-4 0l-4.5 4.6a2.8 2.8 0 0 0 0 4l3.6 3.5c.6.6.7 1.4.4 2.1S8.6 21 7.8 21h-5A2.8 2.8 0 0 0 0 23.8v6.4C0 31.8 1.2 33 2.8 33h5c.8 0 1.5.4 1.8 1.2s.2 1.5-.4 2.1L5.6 40a2.8 2.8 0 0 0 0 4l4.6 4.5c1 1 2.9 1 4 0l3.5-3.6c.6-.6 1.4-.7 2.1-.4.8.3 1.2 1 1.2 1.8v5c0 1.6 1.2 2.8 2.8 2.8h6.4c1.6 0 2.8-1.2 2.8-2.8v-5c0-.8.4-1.5 1.2-1.8.7-.3 1.5-.2 2.1.4l3.6 3.6c1 1 2.9 1 4 0l4.5-4.6a2.8 2.8 0 0 0 0-4l-3.6-3.5c-.6-.6-.7-1.4-.4-2.1s1-1.2 1.8-1.2h5c1.6 0 2.8-1.2 2.8-2.8v-6.4c0-1.6-1.2-2.8-2.8-2.8zm.8 9.2c0 .4-.4.8-.8.8h-5c-1.7 0-3 1-3.7 2.4-.6 1.5-.3 3.2.9 4.3l3.6 3.6c.3.3.3.8 0 1.1L42.4 47c-.3.3-.8.3-1.1 0l-3.6-3.6a3.9 3.9 0 0 0-4.3-.9c-1.5.6-2.4 2-2.4 3.7v5c0 .4-.4.8-.8.8h-6.4a.8.8 0 0 1-.8-.8v-5c0-1.7-1-3-2.4-3.7a3.9 3.9 0 0 0-4.3.9L12.7 47c-.3.3-.8.3-1.1 0L7 42.4a.8.8 0 0 1 0-1.1l3.6-3.6a3.9 3.9 0 0 0 .9-4.3c-.6-1.5-2-2.4-3.7-2.4h-5a.8.8 0 0 1-.8-.8v-6.4c0-.4.4-.8.8-.8h5c1.7 0 3-1 3.7-2.4.6-1.5.3-3.2-.9-4.3L7 12.7a.8.8 0 0 1 0-1.1L11.6 7c.3-.3.8-.3 1.1 0l3.6 3.6a3.9 3.9 0 0 0 4.3.9c1.5-.6 2.4-2 2.4-3.7v-5c0-.4.4-.8.8-.8h6.4c.4 0 .8.4.8.8v5c0 1.7 1 3 2.4 3.7 1.5.6 3.2.3 4.3-.9L41.3 7c.3-.3.8-.3 1.1 0l4.6 4.6c.3.3.3.8 0 1.1l-3.6 3.6a3.9 3.9 0 0 0-.9 4.3c.6 1.5 2 2.4 3.7 2.4h5c.4 0 .8.4.8.8v6.4z"/>
  <path d="M27 18a9 9 0 1 0 0 18 9 9 0 0 0 0-18zm0 16a7 7 0 1 1 0-14 7 7 0 0 1 0 14z"/>
</svg>
